{
.appVersion = "924";
classes = (
{
automatic = 1;

glyphs = (
{
glyphname = A;
lastChange = "2016-09-12 12:03:45 +0000";
layers = (
{
anchors = (
{
name = bottom;
position = "{363, 0}";
},
{
name = ogonek;
position = "{652, 10}";
},
{
name = top;
position = "{363, 700}";
}
);
layerId = UUID0;
paths = (
{
closed = 1;
nodes = (
"5 0 LINE",
"280 0 LINE",
"280 60 LINE",
"186 79 LINE",
"225 190 LINE",
"485 190 LINE",
"523 79 LINE",
"430 60 LINE",
"430 0 LINE",
"720 0 LINE",
"720 60 LINE",
"637 79 LINE",
"415 700 LINE",
"315 695 LINE",
"87 79 LINE",
"5 60 LINE"
);
},
{
closed = 1;
nodes = (
"252 270 LINE",
"357 571 LINE",
"458 270 LINE"
);
}
);
width = 725;
},
{
anchors = (
{
name = bottom;
position = "{374, 0}";
},
{
name = ogonek;
position = "{673, 10}";
},
{
name = top;
position = "{374, 705}";
}
);
layerId = "708C77EA-8E11-4C15-94D7-0069457547BC";
paths = (
{
closed = 1;
nodes = (
"5 0 LINE",
"307 0 LINE",
"307 85 LINE",
"229 113 LINE",
"254 185 LINE",
"476 185 LINE",
"500 112 LINE",
"425 85 LINE",
"425 0 LINE",
"743 0 LINE",
"743 85 LINE",
"673 113 LINE",
"458 705 LINE",
"298 702 LINE",
"78 113 LINE",
"5 85 LINE"
);
},
{
closed = 1;
nodes = (
"289 292 LINE",
"368 529 LINE",
"443 292 LINE"
);
}
);
width = 748;
}
);
leftKerningGroup = A;
rightKerningGroup = A;
unicode = 0041;
},
{
glyphname = Aacute;
lastChange = "2016-08-22 17:50:02 +0000";
layers = (
{
layerId = UUID0;
paths = (
{
closed = 1;
nodes = (
"545 860 LINE",
"494 933 LINE",
"312 788 LINE",
"350 735 LINE"
);
},
{
closed = 1;
nodes = (
"5 0 LINE",
"280 0 LINE",
"280 60 LINE",
"186 79 LINE",
"225 190 LINE",
"485 190 LINE",
"523 79 LINE",
"430 60 LINE",
"430 0 LINE",
"720 0 LINE",
"720 60 LINE",
"637 79 LINE",
"415 700 LINE",
"315 695 LINE",
"87 79 LINE",
"5 60 LINE"
);
},
{
closed = 1;
nodes = (
"252 270 LINE",
"357 571 LINE",
"458 270 LINE"
);
}
);
width = 725;
},
{
layerId = "708C77EA-8E11-4C15-94D7-0069457547BC";
paths = (
{
closed = 1;
nodes = (
"5 0 LINE",
"307 0 LINE",
"307 85 LINE",
"229 113 LINE",
"254 185 LINE",
"476 185 LINE",
"500 112 LINE",
"425 85 LINE",
"425 0 LINE",
"743 0 LINE",
"743 85 LINE",
"673 113 LINE",
"458 705 LINE",
"298 702 LINE",
"78 113 LINE",
"5 85 LINE"
);
},
{
closed = 1;
nodes = (
"289 292 LINE",
"368 529 LINE",
"443 292 LINE"
);
},
{
closed = 1;
nodes = (
"579 847 LINE",
"521 956 LINE",
"306 815 LINE",
"352 735 LINE"
);
}
);
width = 748;
}
);
leftKerningGroup = A;
rightKerningGroup = A;
unicode = 00C1;
},
{
glyphname = Abreve;
lastChange = "2016-08-22 17:50:02 +0000";
layers = (
{
layerId = UUID0;
paths = (
{
closed = 1;
nodes = (
"434 760 OFFCURVE",
"503 810 OFFCURVE",
"505 910 CURVE",
"445 905 LINE",
"440 862 OFFCURVE",
"405 834 OFFCURVE",
"366 834 CURVE SMOOTH",
"331 834 OFFCURVE",
"296 856 OFFCURVE",
"285 910 CURVE",
"225 905 LINE",
"227 809 OFFCURVE",
"296 760 OFFCURVE",
"364 760 CURVE SMOOTH"
);
},
{
closed = 1;
nodes = (
"5 0 LINE",
"280 0 LINE",
"280 60 LINE",
"186 79 LINE",
"225 190 LINE",
"485 190 LINE",
"523 79 LINE",
"430 60 LINE",
"430 0 LINE",
"720 0 LINE",
"720 60 LINE",
"637 79 LINE",
"415 700 LINE",
"315 695 LINE",
"87 79 LINE",
"5 60 LINE"
);
},
{
closed = 1;
nodes = (
"252 270 LINE",
"357 571 LINE",
"458 270 LINE"
);
}
);
width = 725;
},
{
layerId = "708C77EA-8E11-4C15-94D7-0069457547BC";
paths = (
{
closed = 1;
nodes = (
"5 0 LINE",
"307 0 LINE",
"307 85 LINE",
"229 113 LINE",
"254 185 LINE",
"476 185 LINE",
"500 112 LINE",
"425 85 LINE",
"425 0 LINE",
"743 0 LINE",
"743 85 LINE",
"673 113 LINE",
"458 705 LINE",
"298 702 LINE",
"78 113 LINE",
"5 85 LINE"
);
},
{
closed = 1;
nodes = (
"289 292 LINE",
"368 529 LINE",
"443 292 LINE"
);
},
{
closed = 1;
nodes = (
"467 763 OFFCURVE",
"550 823 OFFCURVE",
"552 939 CURVE",
"465 932 LINE",
"459 888 OFFCURVE",
"425 867 OFFCURVE",
"390 867 CURVE SMOOTH",
"357 867 OFFCURVE",
"323 889 OFFCURVE",
"312 941 CURVE",
"225 932 LINE",
"225 818 OFFCURVE",
"303 763 OFFCURVE",
"383 763 CURVE SMOOTH"
);
}
);
width = 748;
}
);
leftKerningGroup = A;
rightKerningGroup = A;
unicode = 0102;
},
{
glyphname = Acircumflex;
lastChange = "2016-09-12 12:30:10 +0000";
layers = (
{
layerId = UUID0;
paths = (
{
closed = 1;
nodes = (
"225 750 LINE",
"362 843 LINE",
"495 750 LINE",
"535 795 LINE",
"390 920 LINE",
"330 915 LINE",
"185 795 LINE"
);
},
{
closed = 1;
nodes = (
"5 0 LINE",
"280 0 LINE",
"280 60 LINE",
"186 79 LINE",
"225 190 LINE",
"485 190 LINE",
"523 79 LINE",
"430 60 LINE",
"430 0 LINE",
"720 0 LINE",
"720 60 LINE",
"637 79 LINE",
"415 700 LINE",
"315 695 LINE",
"87 79 LINE",
"5 60 LINE"
);
},
{
closed = 1;
nodes = (
"252 270 LINE",
"357 571 LINE",
"458 270 LINE"
);
}
);
width = 726;
},
{
layerId = "708C77EA-8E11-4C15-94D7-0069457547BC";
paths = (
{
closed = 1;
nodes = (
"228 742 LINE",
"385 840 LINE",
"536 742 LINE",
"584 808 LINE",
"422 947 LINE",
"333 939 LINE",
"180 808 LINE"
);
},
{
closed = 1;
nodes = (
"5 0 LINE",
"307 0 LINE",
"307 85 LINE",
"229 113 LINE",
"254 185 LINE",
"476 185 LINE",
"500 112 LINE",
"425 85 LINE",
"425 0 LINE",
"743 0 LINE",
"743 85 LINE",
"673 113 LINE",
"458 705 LINE",
"298 702 LINE",
"78 113 LINE",
"5 85 LINE"
);
},
{
closed = 1;
nodes = (
"289 292 LINE",
"368 529 LINE",
"443 292 LINE"
);
}
);
width = 758;
}
);
leftKerningGroup = A;
rightKerningGroup = A;
unicode = 00C2;
},
{
glyphname = Adieresis;
lastChange = "2016-08-22 17:50:02 +0000";
layers = (
{
layerId = UUID0;
paths = (
{
closed = 1;
nodes = (
"215 787 OFFCURVE",
"236 765 OFFCURVE",
"270 765 CURVE SMOOTH",
"300 765 OFFCURVE",
"325 787 OFFCURVE",
"325 825 CURVE SMOOTH",
"325 863 OFFCURVE",
"304 885 OFFCURVE",
"270 885 CURVE SMOOTH",
"240 885 OFFCURVE",
"215 863 OFFCURVE",
"215 825 CURVE SMOOTH"
);
},
{
closed = 1;
nodes = (
"420 787 OFFCURVE",
"441 765 OFFCURVE",
"475 765 CURVE SMOOTH",
"505 765 OFFCURVE",
"530 787 OFFCURVE",
"530 825 CURVE SMOOTH",
"530 863 OFFCURVE",
"509 885 OFFCURVE",
"475 885 CURVE SMOOTH",
"445 885 OFFCURVE",
"420 863 OFFCURVE",
"420 825 CURVE SMOOTH"
);
},
{
closed = 1;
nodes = (
"5 0 LINE",
"280 0 LINE",
"280 60 LINE",
"186 79 LINE",
"225 190 LINE",
"485 190 LINE",
"523 79 LINE",
"430 60 LINE",
"430 0 LINE",
"720 0 LINE",
"720 60 LINE",
"637 79 LINE",
"415 700 LINE",
"315 695 LINE",
"87 79 LINE",
"5 60 LINE"
);
},
{
closed = 1;
nodes = (
"252 270 LINE",
"357 571 LINE",
"458 270 LINE"
);
}
);
width = 725;
},
{
layerId = "708C77EA-8E11-4C15-94D7-0069457547BC";
paths = (
{
closed = 1;
nodes = (
"5 0 LINE",
"307 0 LINE",
"307 85 LINE",
"229 113 LINE",
"254 185 LINE",
"476 185 LINE",
"500 112 LINE",
"425 85 LINE",
"425 0 LINE",
"743 0 LINE",
"743 85 LINE",
"673 113 LINE",
"458 705 LINE",
"298 702 LINE",
"78 113 LINE",
"5 85 LINE"
);
},
{
closed = 1;
nodes = (
"289 292 LINE",
"368 529 LINE",
"443 292 LINE"
);
},
{
closed = 1;
nodes = (
"202 797 OFFCURVE",
"227 769 OFFCURVE",
"274 769 CURVE SMOOTH",
"313 769 OFFCURVE",
"348 797 OFFCURVE",
"348 847 CURVE SMOOTH",
"348 896 OFFCURVE",
"323 925 OFFCURVE",
"276 925 CURVE SMOOTH",
"237 925 OFFCURVE",
"202 896 OFFCURVE",
"202 847 CURVE SMOOTH"
);
},
{
closed = 1;
nodes = (
"420 797 OFFCURVE",
"445 769 OFFCURVE",
"492 769 CURVE SMOOTH",
"531 769 OFFCURVE",
"566 797 OFFCURVE",
"566 847 CURVE SMOOTH",
"566 896 OFFCURVE",
"542 925 OFFCURVE",
"494 925 CURVE SMOOTH",
"456 925 OFFCURVE",
"420 896 OFFCURVE",
"420 847 CURVE SMOOTH"
);
}
);
width = 748;
}
);
leftKerningGroup = A;
rightKerningGroup = A;
unicode = 00C4;
},
{
glyphname = Agrave;
lastChange = "2016-09-12 12:30:10 +0000";
layers = (
{
layerId = UUID0;
paths = (
{
closed = 1;
nodes = (
"245 860 LINE",
"440 735 LINE",
"480 790 LINE",
"295 935 LINE"
);
},
{
closed = 1;
nodes = (
"5 0 LINE",
"280 0 LINE",
"280 60 LINE",
"186 79 LINE",
"225 190 LINE",
"485 190 LINE",
"523 79 LINE",
"430 60 LINE",
"430 0 LINE",
"720 0 LINE",
"720 60 LINE",
"637 79 LINE",
"415 700 LINE",
"315 695 LINE",
"87 79 LINE",
"5 60 LINE"
);
},
{
closed = 1;
nodes = (
"252 270 LINE",
"357 571 LINE",
"458 270 LINE"
);
}
);
width = 725;
},
{
layerId = "708C77EA-8E11-4C15-94D7-0069457547BC";
paths = (
{
closed = 1;
nodes = (
"5 0 LINE",
"307 0 LINE",
"307 85 LINE",
"229 113 LINE",
"254 185 LINE",
"476 185 LINE",
"500 112 LINE",
"425 85 LINE",
"425 0 LINE",
"743 0 LINE",
"743 85 LINE",
"673 113 LINE",
"458 705 LINE",
"298 702 LINE",
"78 113 LINE",
"5 85 LINE"
);
},
{
closed = 1;
nodes = (
"289 292 LINE",
"368 529 LINE",
"443 292 LINE"
);
},
{
closed = 1;
nodes = (
"245 847 LINE",
"472 735 LINE",
"518 815 LINE",
"303 956 LINE"
);
}
);
width = 748;
}
);
leftKerningGroup = A;
rightKerningGroup = A;
unicode = 00C0;
},
{
glyphname = Amacron;
lastChange = "2016-08-22 17:50:02 +0000";
layers = (
{
layerId = UUID0;
paths = (
{
closed = 1;
nodes = (
"235 865 LINE",
"235 790 LINE",
"505 790 LINE",
"505 865 LINE"
);
},
{
closed = 1;
nodes = (
"5 0 LINE",
"280 0 LINE",
"280 60 LINE",
"186 79 LINE",
"225 190 LINE",
"485 190 LINE",
"523 79 LINE",
"430 60 LINE",
"430 0 LINE",
"720 0 LINE",
"720 60 LINE",
"637 79 LINE",
"415 700 LINE",
"315 695 LINE",
"87 79 LINE",
"5 60 LINE"
);
},
{
closed = 1;
nodes = (
"252 270 LINE",
"357 571 LINE",
"458 270 LINE"
);
}
);
width = 725;
},
{
layerId = "708C77EA-8E11-4C15-94D7-0069457547BC";
paths = (
{
closed = 1;
nodes = (
"5 0 LINE",
"307 0 LINE",
"307 85 LINE",
"229 113 LINE",
"254 185 LINE",
"476 185 LINE",
"500 112 LINE",
"425 85 LINE",
"425 0 LINE",
"743 0 LINE",
"743 85 LINE",
"673 113 LINE",
"458 705 LINE",
"298 702 LINE",
"78 113 LINE",
"5 85 LINE"
);
},
{
closed = 1;
nodes = (
"289 292 LINE",
"368 529 LINE",
"443 292 LINE"
);
},
{
closed = 1;
nodes = (
"248 907 LINE",
"248 802 LINE",
"548 802 LINE",
"548 907 LINE"
);
}
);
width = 748;
}
);
leftKerningGroup = A;
rightKerningGroup = A;
unicode = 0100;
},
{
glyphname = Aogonek;
lastChange = "2016-08-22 17:50:02 +0000";
layers = (
{
layerId = UUID0;
paths = (
{
closed = 1;
nodes = (
"610 -220 OFFCURVE",
"650 -200 OFFCURVE",
"650 -200 CURVE",
"640 -153 LINE",
"640 -153 OFFCURVE",
"615 -160 OFFCURVE",
"595 -160 CURVE SMOOTH",
"570 -160 OFFCURVE",
"550 -145 OFFCURVE",
"550 -115 CURVE SMOOTH",
"550 -57 OFFCURVE",
"650 -15 OFFCURVE",
"720 0 CURVE",
"720 59 LINE",
"638 75 LINE",
"415 700 LINE",
"315 695 LINE",
"87 79 LINE",
"5 60 LINE",
"5 0 LINE",
"280 0 LINE",
"280 60 LINE",
"186 79 LINE",
"225 190 LINE",
"485 190 LINE",
"523 79 LINE",
"430 60 LINE",
"430 0 LINE",
"580 0 LINE",
"550 -13 OFFCURVE",
"470 -55 OFFCURVE",
"470 -125 CURVE SMOOTH",
"470 -185 OFFCURVE",
"515 -220 OFFCURVE",
"570 -220 CURVE SMOOTH"
);
},
{
closed = 1;
nodes = (
"252 270 LINE",
"357 571 LINE",
"458 270 LINE"
);
}
);
width = 725;
},
{
layerId = "708C77EA-8E11-4C15-94D7-0069457547BC";
paths = (
{
closed = 1;
nodes = (
"640 -235 OFFCURVE",
"687 -210 OFFCURVE",
"687 -210 CURVE",
"670 -140 LINE",
"670 -140 OFFCURVE",
"644 -146 OFFCURVE",
"627 -146 CURVE SMOOTH",
"606 -146 OFFCURVE",
"590 -134 OFFCURVE",
"590 -110 CURVE SMOOTH",
"590 -51 OFFCURVE",
"743 0 OFFCURVE",
"743 0 CURVE",
"743 85 LINE",
"673 113 LINE",
"458 705 LINE",
"298 702 LINE",
"78 113 LINE",
"5 85 LINE",
"5 0 LINE",
"307 0 LINE",
"307 85 LINE",
"229 113 LINE",
"254 185 LINE",
"476 185 LINE",
"500 112 LINE",
"425 85 LINE",
"425 0 LINE",
"603 0 LINE",
"575 -12 OFFCURVE",
"475 -59 OFFCURVE",
"475 -135 CURVE SMOOTH",
"475 -203 OFFCURVE",
"525 -235 OFFCURVE",
"585 -235 CURVE SMOOTH"
);
},
{
closed = 1;
nodes = (
"289 292 LINE",
"368 529 LINE",
"443 292 LINE"
);
}
);
width = 758;
}
);
leftKerningGroup = A;
rightKerningGroup = A;
unicode = 0104;
},
{
glyphname = Aring;
lastChange = "2016-08-22 17:50:02 +0000";
layers = (
{
layerId = UUID0;
paths = (
{
closed = 1;
nodes = (
"5 0 LINE",
"280 0 LINE",
"280 60 LINE",
"186 79 LINE",
"225 190 LINE",
"485 190 LINE",
"523 79 LINE",
"430 60 LINE",
"430 0 LINE",
"720 0 LINE",
"720 60 LINE",
"637 79 LINE",
"416 697 LINE",
"452 714 OFFCURVE",
"480 750 OFFCURVE",
"480 800 CURVE SMOOTH",
"480 871 OFFCURVE",
"422 910 OFFCURVE",
"365 910 CURVE SMOOTH",
"308 910 OFFCURVE",
"250 866 OFFCURVE",
"250 795 CURVE SMOOTH",
"250 745 OFFCURVE",
"278 711 OFFCURVE",
"315 695 CURVE",
"87 79 LINE",
"5 60 LINE"
);
},
{
closed = 1;
nodes = (
"330 735 OFFCURVE",
"310 757 OFFCURVE",
"310 797 CURVE SMOOTH",
"310 837 OFFCURVE",
"334 860 OFFCURVE",
"365 860 CURVE SMOOTH",
"400 860 OFFCURVE",
"420 838 OFFCURVE",
"420 798 CURVE SMOOTH",
"420 758 OFFCURVE",
"396 735 OFFCURVE",
"365 735 CURVE SMOOTH"
);
},
{
closed = 1;
nodes = (
"252 270 LINE",
"357 571 LINE",
"458 270 LINE"
);
}
);
width = 725;
},
{
layerId = "708C77EA-8E11-4C15-94D7-0069457547BC";
paths = (
{
closed = 1;
nodes = (
"5 0 LINE",
"307 0 LINE",
"307 85 LINE",
"229 113 LINE",
"254 185 LINE",
"476 185 LINE",
"500 112 LINE",
"425 85 LINE",
"425 0 LINE",
"743 0 LINE",
"743 85 LINE",
"673 113 LINE",
"460 699 LINE",
"493 721 OFFCURVE",
"517 759 OFFCURVE",
"517 808 CURVE SMOOTH",
"517 891 OFFCURVE",
"449 935 OFFCURVE",
"384 935 CURVE SMOOTH",
"318 935 OFFCURVE",
"250 886 OFFCURVE",
"250 802 CURVE SMOOTH",
"250 757 OFFCURVE",
"270 723 OFFCURVE",
"299 702 CURVE",
"298 702 LINE",
"78 113 LINE",
"5 85 LINE"
);
},
{
closed = 1;
nodes = (
"289 292 LINE",
"368 529 LINE",
"443 292 LINE"
);
},
{
closed = 1;
nodes = (
"353 748 OFFCURVE",
"335 767 OFFCURVE",
"335 805 CURVE SMOOTH",
"335 843 OFFCURVE",
"356 863 OFFCURVE",
"384 863 CURVE SMOOTH",
"414 863 OFFCURVE",
"432 844 OFFCURVE",
"432 806 CURVE SMOOTH",
"432 768 OFFCURVE",
"411 748 OFFCURVE",
"384 748 CURVE SMOOTH"
);
}
);
width = 748;
}
);
leftKerningGroup = A;
rightKerningGroup = A;
unicode = 00C5;
},
{
glyphname = Aringacute;
lastChange = "2016-08-22 17:50:02 +0000";
layers = (
{
layerId = UUID0;
paths = (
{
closed = 1;
nodes = (
"7 0 LINE",
"282 0 LINE",
"282 60 LINE",
"188 79 LINE",
"227 190 LINE",
"487 190 LINE",
"525 79 LINE",
"432 60 LINE",
"432 0 LINE",
"722 0 LINE",
"722 60 LINE",
"639 79 LINE",
"418 697 LINE",
"454 714 OFFCURVE",
"482 750 OFFCURVE",
"482 800 CURVE SMOOTH",
"482 871 OFFCURVE",
"424 910 OFFCURVE",
"367 910 CURVE SMOOTH",
"310 910 OFFCURVE",
"252 866 OFFCURVE",
"252 795 CURVE SMOOTH",
"252 745 OFFCURVE",
"280 711 OFFCURVE",
"317 695 CURVE",
"89 79 LINE",
"7 60 LINE"
);
},
{
closed = 1;
nodes = (
"332 735 OFFCURVE",
"312 757 OFFCURVE",
"312 797 CURVE SMOOTH",
"312 837 OFFCURVE",
"336 860 OFFCURVE",
"367 860 CURVE SMOOTH",
"402 860 OFFCURVE",
"422 838 OFFCURVE",
"422 798 CURVE SMOOTH",
"422 758 OFFCURVE",
"398 735 OFFCURVE",
"367 735 CURVE SMOOTH"
);
},
{
closed = 1;
nodes = (
"254 270 LINE",
"359 571 LINE",
"460 270 LINE"
);
},
{
closed = 1;
nodes = (
"29 86 LINE",
"23 93 LINE",
"5 79 LINE",
"9 74 LINE"
);
}
);
width = 727;
},
{
layerId = "708C77EA-8E11-4C15-94D7-0069457547BC";
paths = (
{
closed = 1;
nodes = (
"27 85 LINE",
"22 96 LINE",
"0 82 LINE",
"5 74 LINE"
);
},
{
closed = 1;
nodes = (
"5 0 LINE",
"307 0 LINE",
"307 85 LINE",
"229 113 LINE",
"254 185 LINE",
"476 185 LINE",
"500 112 LINE",
"425 85 LINE",
"425 0 LINE",
"743 0 LINE",
"743 85 LINE",
"673 113 LINE",
"460 699 LINE",
"493 721 OFFCURVE",
"517 759 OFFCURVE",
"517 808 CURVE SMOOTH",
"517 891 OFFCURVE",
"449 935 OFFCURVE",
"384 935 CURVE SMOOTH",
"318 935 OFFCURVE",
"250 886 OFFCURVE",
"250 802 CURVE SMOOTH",
"250 757 OFFCURVE",
"270 723 OFFCURVE",
"299 702 CURVE",
"298 702 LINE",
"78 113 LINE",
"5 85 LINE"
);
},
{
closed = 1;
nodes = (
"289 292 LINE",
"368 529 LINE",
"443 292 LINE"
);
},
{
closed = 1;
nodes = (
"353 748 OFFCURVE",
"335 767 OFFCURVE",
"335 805 CURVE SMOOTH",
"335 843 OFFCURVE",
"356 863 OFFCURVE",
"384 863 CURVE SMOOTH",
"414 863 OFFCURVE",
"432 844 OFFCURVE",
"432 806 CURVE SMOOTH",
"432 768 OFFCURVE",
"411 748 OFFCURVE",
"384 748 CURVE SMOOTH"
);
}
);
width = 748;
}
);
leftKerningGroup = A;
rightKerningGroup = A;
unicode = 01FA;
},
{
glyphname = Atilde;
lastChange = "2016-08-22 17:50:02 +0000";
layers = (
{
layerId = UUID0;
paths = (
{
closed = 1;
nodes = (
"238 766 LINE",
"238 766 OFFCURVE",
"268 810 OFFCURVE",
"308 810 CURVE SMOOTH",
"368 810 OFFCURVE",
"413 766 OFFCURVE",
"483 766 CURVE SMOOTH",
"553 766 OFFCURVE",
"588 856 OFFCURVE",
"588 856 CURVE",
"553 886 LINE",
"553 886 OFFCURVE",
"528 844 OFFCURVE",
"488 844 CURVE SMOOTH",
"428 844 OFFCURVE",
"383 890 OFFCURVE",
"313 890 CURVE SMOOTH",
"243 890 OFFCURVE",
"203 796 OFFCURVE",
"203 796 CURVE"
);
},
{
closed = 1;
nodes = (
"5 0 LINE",
"280 0 LINE",
"280 60 LINE",
"186 79 LINE",
"225 190 LINE",
"485 190 LINE",
"523 79 LINE",
"430 60 LINE",
"430 0 LINE",
"720 0 LINE",
"720 60 LINE",
"637 79 LINE",
"415 700 LINE",
"315 695 LINE",
"87 79 LINE",
"5 60 LINE"
);
},
{
closed = 1;
nodes = (
"252 270 LINE",
"357 571 LINE",
"458 270 LINE"
);
}
);
width = 725;
},
{
layerId = "708C77EA-8E11-4C15-94D7-0069457547BC";
paths = (
{
closed = 1;
nodes = (
"228 777 LINE",
"228 777 OFFCURVE",
"258 815 OFFCURVE",
"300 815 CURVE SMOOTH",
"360 815 OFFCURVE",
"398 776 OFFCURVE",
"468 776 CURVE SMOOTH",
"551 776 OFFCURVE",
"603 880 OFFCURVE",
"603 880 CURVE",
"548 922 LINE",
"548 922 OFFCURVE",
"518 880 OFFCURVE",
"479 880 CURVE SMOOTH",
"419 880 OFFCURVE",
"375 926 OFFCURVE",
"305 926 CURVE SMOOTH",
"222 926 OFFCURVE",
"180 816 OFFCURVE",
"180 816 CURVE"
);
},
{
closed = 1;
nodes = (
"5 0 LINE",
"307 0 LINE",
"307 85 LINE",
"229 113 LINE",
"254 185 LINE",
"476 185 LINE",
"500 112 LINE",
"425 85 LINE",
"425 0 LINE",
"743 0 LINE",
"743 85 LINE",
"673 113 LINE",
"458 705 LINE",
"298 702 LINE",
"78 113 LINE",
"5 85 LINE"
);
},
{
closed = 1;
nodes = (
"289 292 LINE",
"368 529 LINE",
"443 292 LINE"
);
}
);
width = 758;
}
);
leftKerningGroup = A;
rightKerningGroup = A;
unicode = 00C3;
},
{
glyphname = AE;
lastChange = "2016-08-22 17:50:02 +0000";
layers = (
{
layerId = UUID0;
paths = (
{
closed = 1;
nodes = (
"5 0 LINE",
"275 0 LINE",
"275 60 LINE",
"197 77 LINE",
"260 205 LINE",
"480 205 LINE",
"480 80 LINE",
"390 60 LINE",
"390 0 LINE",
"899 0 LINE",
"899 180 LINE",
"834 180 LINE",
"814 80 LINE",
"585 80 LINE",
"585 325 LINE",
"814 325 LINE",
"814 405 LINE",
"585 405 LINE",
"585 620 LINE",
"799 620 LINE",
"824 530 LINE",
"889 530 LINE",
"889 700 LINE",
"412 700 LINE",
"286 695 LINE",
"286 640 LINE",
"371 620 LINE",
"94 80 LINE",
"5 60 LINE"
);
},
{
closed = 1;
nodes = (
"300 285 LINE",
"465 620 LINE",
"480 620 LINE",
"480 285 LINE"
);
}
);
width = 959;
},
{
layerId = "708C77EA-8E11-4C15-94D7-0069457547BC";
paths = (
{
closed = 1;
nodes = (
"5 0 LINE",
"303 0 LINE",
"303 85 LINE",
"242 111 LINE",
"281 192 LINE",
"474 192 LINE",
"474 115 LINE",
"400 85 LINE",
"400 0 LINE",
"921 0 LINE",
"921 202 LINE",
"829 202 LINE",
"806 120 LINE",
"629 120 LINE",
"629 310 LINE",
"831 310 LINE",
"831 420 LINE",
"629 420 LINE",
"629 585 LINE",
"791 585 LINE",
"816 510 LINE",
"909 510 LINE",
"909 705 LINE",
"424 705 LINE",
"233 700 LINE",
"233 615 LINE",
"318 585 LINE",
"89 115 LINE",
"5 85 LINE"
);
},
{
closed = 1;
nodes = (
"328 300 LINE",
"460 585 LINE",
"474 585 LINE",
"474 300 LINE"
);
}
);
width = 971;
}
);
leftKerningGroup = A;
rightKerningGroup = AE;
unicode = 00C6;
},
{
glyphname = AEacute;
lastChange = "2016-08-22 17:50:02 +0000";
layers = (
{
layerId = UUID0;
paths = (
{
closed = 1;
nodes = (
"717 860 LINE",
"666 933 LINE",
"484 788 LINE",
"522 735 LINE"
);
},
{
closed = 1;
nodes = (
"5 0 LINE",
"275 0 LINE",
"275 60 LINE",
"197 77 LINE",
"260 205 LINE",
"480 205 LINE",
"480 80 LINE",
"390 60 LINE",
"390 0 LINE",
"899 0 LINE",
"899 180 LINE",
"834 180 LINE",
"814 80 LINE",
"585 80 LINE",
"585 325 LINE",
"814 325 LINE",
"814 405 LINE",
"585 405 LINE",
"585 620 LINE",
"799 620 LINE",
"824 530 LINE",
"889 530 LINE",
"889 700 LINE",
"412 700 LINE",
"286 695 LINE",
"286 640 LINE",
"371 620 LINE",
"94 80 LINE",
"5 60 LINE"
);
},
{
closed = 1;
nodes = (
"300 285 LINE",
"465 620 LINE",
"480 620 LINE",
"480 285 LINE"
);
}
);
width = 959;
},
{
layerId = "708C77EA-8E11-4C15-94D7-0069457547BC";
paths = (
{
closed = 1;
nodes = (
"5 0 LINE",
"303 0 LINE",
"303 85 LINE",
"242 111 LINE",
"281 192 LINE",
"474 192 LINE",
"474 115 LINE",
"400 85 LINE",
"400 0 LINE",
"921 0 LINE",
"921 202 LINE",
"829 202 LINE",
"806 120 LINE",
"629 120 LINE",
"629 310 LINE",
"831 310 LINE",
"831 420 LINE",
"629 420 LINE",
"629 585 LINE",
"791 585 LINE",
"816 510 LINE",
"909 510 LINE",
"909 705 LINE",
"424 705 LINE",
"233 700 LINE",
"233 615 LINE",
"318 585 LINE",
"89 115 LINE",
"5 85 LINE"
);
},
{
closed = 1;
nodes = (
"328 300 LINE",
"460 585 LINE",
"474 585 LINE",
"474 300 LINE"
);
},
{
closed = 1;
nodes = (
"773 847 LINE",
"715 956 LINE",
"500 815 LINE",
"546 735 LINE"
);
}
);
width = 971;
}
);
leftKerningGroup = A;
rightKerningGroup = A;
unicode = 01FC;
},
{
glyphname = B;
lastChange = "2016-08-22 17:50:02 +0000";
layers = (
{
layerId = UUID0;
paths = (
{
closed = 1;
nodes = (
"37 0 LINE",
"325 0 LINE SMOOTH",
"490 0 OFFCURVE",
"580 60 OFFCURVE",
"580 200 CURVE SMOOTH",
"580 280 OFFCURVE",
"530 339 OFFCURVE",
"425 363 CURVE",
"509 384 OFFCURVE",
"555 435 OFFCURVE",
"555 525 CURVE SMOOTH",
"555 645 OFFCURVE",
"465 700 OFFCURVE",
"340 700 CURVE SMOOTH",
"225 700 LINE",
"37 695 LINE",
"37 640 LINE",
"122 620 LINE",
"122 80 LINE",
"37 60 LINE"
);
},
{
closed = 1;
nodes = (
"225 400 LINE",
"225 620 LINE",
"335 620 LINE SMOOTH",
"400 620 OFFCURVE",
"450 585 OFFCURVE",
"450 515 CURVE SMOOTH",
"450 435 OFFCURVE",
"390 400 OFFCURVE",
"300 400 CURVE SMOOTH"
);
},
{
closed = 1;
nodes = (
"225 80 LINE",
"225 325 LINE",
"300 325 LINE SMOOTH",
"410 325 OFFCURVE",
"475 295 OFFCURVE",
"475 195 CURVE SMOOTH",
"475 120 OFFCURVE",
"425 80 OFFCURVE",
"330 80 CURVE SMOOTH"
);
}
);
width = 630;
},
{
layerId = "708C77EA-8E11-4C15-94D7-0069457547BC";
paths = (
{
closed = 1;
nodes = (
"35 0 LINE",
"353 0 LINE SMOOTH",
"515 0 OFFCURVE",
"613 60 OFFCURVE",
"613 207 CURVE SMOOTH",
"613 284 OFFCURVE",
"564 340 OFFCURVE",
"470 367 CURVE",
"549 392 OFFCURVE",
"590 445 OFFCURVE",
"590 532 CURVE SMOOTH",
"590 650 OFFCURVE",
"500 705 OFFCURVE",
"370 705 CURVE SMOOTH",
"265 705 LINE",
"35 700 LINE",
"35 615 LINE",
"110 585 LINE",
"110 115 LINE",
"35 85 LINE"
);
},
{
closed = 1;
nodes = (
"265 120 LINE",
"265 312 LINE",
"323 312 LINE SMOOTH",
"413 312 OFFCURVE",
"455 280 OFFCURVE",
"455 207 CURVE SMOOTH",
"455 152 OFFCURVE",
"418 120 OFFCURVE",
"348 120 CURVE SMOOTH"
);
},
{
closed = 1;
nodes = (
"265 417 LINE",
"265 585 LINE",
"350 585 LINE SMOOTH",
"398 585 OFFCURVE",
"435 562 OFFCURVE",
"435 510 CURVE SMOOTH",
"435 448 OFFCURVE",
"396 417 OFFCURVE",
"323 417 CURVE SMOOTH"
);
}
);
width = 658;
}
);
unicode = 0042;
},
{
glyphname = C;
lastChange = "2016-08-22 17:50:02 +0000";
layers = (
{
layerId = UUID0;
paths = (
{
closed = 1;
nodes = (
"540 490 LINE",
"615 490 LINE",
"620 660 LINE",
"620 660 OFFCURVE",
"505 710 OFFCURVE",
"395 710 CURVE SMOOTH",
"190 710 OFFCURVE",
"60 565 OFFCURVE",
"60 335 CURVE SMOOTH",
"60 110 OFFCURVE",
"180 -10 OFFCURVE",
"380 -10 CURVE SMOOTH",
"530 -10 OFFCURVE",
"630 95 OFFCURVE",
"630 95 CURVE",
"590 160 LINE",
"590 160 OFFCURVE",
"495 80 OFFCURVE",
"390 80 CURVE SMOOTH",
"265 80 OFFCURVE",
"175 160 OFFCURVE",
"175 340 CURVE SMOOTH",
"175 525 OFFCURVE",
"250 625 OFFCURVE",
"385 625 CURVE SMOOTH",
"460 625 OFFCURVE",
"513 605 OFFCURVE",
"513 605 CURVE"
);
}
);
width = 665;
},
{
layerId = "708C77EA-8E11-4C15-94D7-0069457547BC";
paths = (
{
closed = 1;
nodes = (
"522 480 LINE",
"620 480 LINE",
"625 670 LINE",
"625 670 OFFCURVE",
"513 717 OFFCURVE",
"392 717 CURVE SMOOTH",
"187 717 OFFCURVE",
"55 577 OFFCURVE",
"55 342 CURVE SMOOTH",
"55 110 OFFCURVE",
"172 -12 OFFCURVE",
"375 -12 CURVE SMOOTH",
"532 -12 OFFCURVE",
"637 97 OFFCURVE",
"637 97 CURVE",
"582 187 LINE",
"582 187 OFFCURVE",
"492 117 OFFCURVE",
"392 117 CURVE SMOOTH",
"287 117 OFFCURVE",
"222 185 OFFCURVE",
"222 347 CURVE SMOOTH",
"222 514 OFFCURVE",
"282 592 OFFCURVE",
"387 592 CURVE SMOOTH",
"452 592 OFFCURVE",
"499 576 OFFCURVE",
"499 576 CURVE"
);
}
);
width = 667;
}
);
leftKerningGroup = C;
unicode = 0043;
},
{
glyphname = Cacute;
lastChange = "2016-08-22 17:50:02 +0000";
layers = (
{
layerId = UUID0;
paths = (
{
closed = 1;
nodes = (
"505 860 LINE",
"454 933 LINE",
"272 788 LINE",
"310 735 LINE"
);
},
{
closed = 1;
nodes = (
"540 490 LINE",
"615 490 LINE",
"620 660 LINE",
"620 660 OFFCURVE",
"505 710 OFFCURVE",
"395 710 CURVE SMOOTH",
"190 710 OFFCURVE",
"60 565 OFFCURVE",
"60 335 CURVE SMOOTH",
"60 110 OFFCURVE",
"180 -10 OFFCURVE",
"380 -10 CURVE SMOOTH",
"530 -10 OFFCURVE",
"630 95 OFFCURVE",
"630 95 CURVE",
"590 160 LINE",
"590 160 OFFCURVE",
"495 80 OFFCURVE",
"390 80 CURVE SMOOTH",
"265 80 OFFCURVE",
"175 160 OFFCURVE",
"175 340 CURVE SMOOTH",
"175 525 OFFCURVE",
"250 625 OFFCURVE",
"385 625 CURVE SMOOTH",
"460 625 OFFCURVE",
"513 605 OFFCURVE",
"513 605 CURVE"
);
}
);
width = 665;
},
{
layerId = "708C77EA-8E11-4C15-94D7-0069457547BC";
paths = (
{
closed = 1;
nodes = (
"522 480 LINE",
"620 480 LINE",
"625 670 LINE",
"625 670 OFFCURVE",
"513 717 OFFCURVE",
"392 717 CURVE SMOOTH",
"187 717 OFFCURVE",
"55 577 OFFCURVE",
"55 342 CURVE SMOOTH",
"55 110 OFFCURVE",
"172 -12 OFFCURVE",
"375 -12 CURVE SMOOTH",
"532 -12 OFFCURVE",
"637 97 OFFCURVE",
"637 97 CURVE",
"582 187 LINE",
"582 187 OFFCURVE",
"492 117 OFFCURVE",
"392 117 CURVE SMOOTH",
"287 117 OFFCURVE",
"222 185 OFFCURVE",
"222 347 CURVE SMOOTH",
"222 514 OFFCURVE",
"282 592 OFFCURVE",
"387 592 CURVE SMOOTH",
"452 592 OFFCURVE",
"499 576 OFFCURVE",
"499 576 CURVE"
);
},
{
closed = 1;
nodes = (
"534 847 LINE",
"476 956 LINE",
"261 815 LINE",
"307 735 LINE"
);
}
);
width = 667;
}
);
leftKerningGroup = C;
unicode = 0106;
},
{
glyphname = Ccaron;
lastChange = "2016-08-22 17:50:02 +0000";
layers = (
{
layerId = UUID0;
paths = (
{
closed = 1;
nodes = (
"334 750 LINE",
"394 755 LINE",
"539 875 LINE",
"499 920 LINE",
"362 827 LINE",
"229 920 LINE",
"189 875 LINE"
);
},
{
closed = 1;
nodes = (
"540 490 LINE",
"615 490 LINE",
"620 660 LINE",
"620 660 OFFCURVE",
"505 710 OFFCURVE",
"395 710 CURVE SMOOTH",
"190 710 OFFCURVE",
"60 565 OFFCURVE",
"60 335 CURVE SMOOTH",
"60 110 OFFCURVE",
"180 -10 OFFCURVE",
"380 -10 CURVE SMOOTH",
"530 -10 OFFCURVE",
"630 95 OFFCURVE",
"630 95 CURVE",
"590 160 LINE",
"590 160 OFFCURVE",
"495 80 OFFCURVE",
"390 80 CURVE SMOOTH",
"265 80 OFFCURVE",
"175 160 OFFCURVE",
"175 340 CURVE SMOOTH",
"175 525 OFFCURVE",
"250 625 OFFCURVE",
"385 625 CURVE SMOOTH",
"460 625 OFFCURVE",
"513 605 OFFCURVE",
"513 605 CURVE"
);
}
);
width = 665;
},
{
layerId = "708C77EA-8E11-4C15-94D7-0069457547BC";
paths = (
{
closed = 1;
nodes = (
"522 480 LINE",
"620 480 LINE",
"625 670 LINE",
"625 670 OFFCURVE",
"513 717 OFFCURVE",
"392 717 CURVE SMOOTH",
"187 717 OFFCURVE",
"55 577 OFFCURVE",
"55 342 CURVE SMOOTH",
"55 110 OFFCURVE",
"172 -12 OFFCURVE",
"375 -12 CURVE SMOOTH",
"532 -12 OFFCURVE",
"637 97 OFFCURVE",
"637 97 CURVE",
"582 187 LINE",
"582 187 OFFCURVE",
"492 117 OFFCURVE",
"392 117 CURVE SMOOTH",
"287 117 OFFCURVE",
"222 185 OFFCURVE",
"222 347 CURVE SMOOTH",
"222 514 OFFCURVE",
"282 592 OFFCURVE",
"387 592 CURVE SMOOTH",
"452 592 OFFCURVE",
"499 576 OFFCURVE",
"499 576 CURVE"
);
},
{
closed = 1;
nodes = (
"328 750 LINE",
"417 757 LINE",
"560 897 LINE",
"510 957 LINE",
"371 851 LINE",
"230 957 LINE",
"175 897 LINE"
);
}
);
width = 667;
}
);
leftKerningGroup = C;
unicode = 010C;
},
{
glyphname = Ccedilla;
lastChange = "2016-08-22 17:50:02 +0000";
layers = (
{
layerId = UUID0;
paths = (
{
closed = 1;
nodes = (
"460 -220 OFFCURVE",
"510 -185 OFFCURVE",
"510 -133 CURVE SMOOTH",
"510 -82 OFFCURVE",
"476 -53 OFFCURVE",
"425 -44 CURVE",
"425 -7 LINE",
"549 11 OFFCURVE",
"630 95 OFFCURVE",
"630 95 CURVE",
"590 160 LINE",
"590 160 OFFCURVE",
"495 80 OFFCURVE",
"390 80 CURVE SMOOTH",
"265 80 OFFCURVE",
"175 160 OFFCURVE",
"175 340 CURVE SMOOTH",
"175 525 OFFCURVE",
"250 625 OFFCURVE",
"385 625 CURVE SMOOTH",
"460 625 OFFCURVE",
"513 605 OFFCURVE",
"513 605 CURVE",
"540 491 LINE",
"615 491 LINE",
"620 660 LINE",
"620 660 OFFCURVE",
"505 710 OFFCURVE",
"395 710 CURVE SMOOTH",
"190 710 OFFCURVE",
"60 565 OFFCURVE",
"60 335 CURVE SMOOTH",
"60 117 OFFCURVE",
"172 -1 OFFCURVE",
"360 -9 CURVE",
"360 -80 LINE",
"410 -80 OFFCURVE",
"440 -100 OFFCURVE",
"440 -130 CURVE SMOOTH",
"440 -155 OFFCURVE",
"420 -170 OFFCURVE",
"395 -170 CURVE SMOOTH",
"355 -170 OFFCURVE",
"309 -147 OFFCURVE",
"309 -147 CURVE",
"283 -189 LINE",
"283 -189 OFFCURVE",
"335 -220 OFFCURVE",
"400 -220 CURVE SMOOTH"
);
}
);
width = 665;
},
{
layerId = "708C77EA-8E11-4C15-94D7-0069457547BC";
paths = (
{
closed = 1;
nodes = (
"459 -234 OFFCURVE",
"513 -193 OFFCURVE",
"513 -134 CURVE SMOOTH",
"513 -84 OFFCURVE",
"479 -54 OFFCURVE",
"428 -44 CURVE",
"428 -8 LINE",
"555 12 OFFCURVE",
"637 97 OFFCURVE",
"637 97 CURVE",
"582 187 LINE",
"582 187 OFFCURVE",
"492 117 OFFCURVE",
"392 117 CURVE SMOOTH",
"287 117 OFFCURVE",
"222 185 OFFCURVE",
"222 347 CURVE SMOOTH",
"222 514 OFFCURVE",
"282 592 OFFCURVE",
"387 592 CURVE SMOOTH",
"452 592 OFFCURVE",
"499 576 OFFCURVE",
"499 576 CURVE",
"522 480 LINE",
"620 480 LINE",
"625 670 LINE",
"625 670 OFFCURVE",
"513 717 OFFCURVE",
"392 717 CURVE SMOOTH",
"187 717 OFFCURVE",
"55 577 OFFCURVE",
"55 342 CURVE SMOOTH",
"55 123 OFFCURVE",
"159 2 OFFCURVE",
"340 -10 CURVE",
"340 -87 LINE",
"389 -87 OFFCURVE",
"422 -101 OFFCURVE",
"422 -130 CURVE SMOOTH",
"422 -152 OFFCURVE",
"404 -167 OFFCURVE",
"376 -167 CURVE SMOOTH",
"336 -167 OFFCURVE",
"294 -144 OFFCURVE",
"294 -144 CURVE",
"262 -200 LINE",
"262 -200 OFFCURVE",
"319 -234 OFFCURVE",
"387 -234 CURVE SMOOTH"
);
}
);
width = 667;
}
);
leftKerningGroup = C;
unicode = 00C7;
},
{
glyphname = Ccircumflex;
lastChange = "2016-08-22 17:50:02 +0000";
layers = (
{
layerId = UUID0;
paths = (
{
closed = 1;
nodes = (
"245 750 LINE",
"382 843 LINE",
"515 750 LINE",
"555 795 LINE",
"410 920 LINE",
"350 915 LINE",
"205 795 LINE"
);
},
{
closed = 1;
nodes = (
"540 490 LINE",
"615 490 LINE",
"620 660 LINE",
"620 660 OFFCURVE",
"505 710 OFFCURVE",
"395 710 CURVE SMOOTH",
"190 710 OFFCURVE",
"60 565 OFFCURVE",
"60 335 CURVE SMOOTH",
"60 110 OFFCURVE",
"180 -10 OFFCURVE",
"380 -10 CURVE SMOOTH",
"530 -10 OFFCURVE",
"630 95 OFFCURVE",
"630 95 CURVE",
"590 160 LINE",
"590 160 OFFCURVE",
"495 80 OFFCURVE",
"390 80 CURVE SMOOTH",
"265 80 OFFCURVE",
"175 160 OFFCURVE",
"175 340 CURVE SMOOTH",
"175 525 OFFCURVE",
"250 625 OFFCURVE",
"385 625 CURVE SMOOTH",
"460 625 OFFCURVE",
"513 605 OFFCURVE",
"513 605 CURVE"
);
}
);
width = 665;
},
{
layerId = "708C77EA-8E11-4C15-94D7-0069457547BC";
paths = (
{
closed = 1;
nodes = (
"522 480 LINE",
"620 480 LINE",
"625 670 LINE",
"625 670 OFFCURVE",
"513 717 OFFCURVE",
"392 717 CURVE SMOOTH",
"187 717 OFFCURVE",
"55 577 OFFCURVE",
"55 342 CURVE SMOOTH",
"55 110 OFFCURVE",
"172 -12 OFFCURVE",
"375 -12 CURVE SMOOTH",
"532 -12 OFFCURVE",
"637 97 OFFCURVE",
"637 97 CURVE",
"582 187 LINE",
"582 187 OFFCURVE",
"492 117 OFFCURVE",
"392 117 CURVE SMOOTH",
"287 117 OFFCURVE",
"222 185 OFFCURVE",
"222 347 CURVE SMOOTH",
"222 514 OFFCURVE",
"282 592 OFFCURVE",
"387 592 CURVE SMOOTH",
"452 592 OFFCURVE",
"499 576 OFFCURVE",
"499 576 CURVE"
);
},
{
closed = 1;
nodes = (
"213 742 LINE",
"370 840 LINE",
"521 742 LINE",
"569 808 LINE",
"407 947 LINE",
"318 939 LINE",
"165 808 LINE"
);
}
);
width = 667;
}
);
leftKerningGroup = C;
unicode = 0108;
},
{
glyphname = Cdotaccent;
lastChange = "2016-08-22 17:50:02 +0000";
layers = (
{
layerId = UUID0;
paths = (
{
closed = 1;
nodes = (
"333 787 OFFCURVE",
"354 765 OFFCURVE",
"388 765 CURVE SMOOTH",
"418 765 OFFCURVE",
"443 787 OFFCURVE",
"443 825 CURVE SMOOTH",
"443 863 OFFCURVE",
"422 885 OFFCURVE",
"388 885 CURVE SMOOTH",
"358 885 OFFCURVE",
"333 863 OFFCURVE",
"333 825 CURVE SMOOTH"
);
},
{
closed = 1;
nodes = (
"540 490 LINE",
"615 490 LINE",
"620 660 LINE",
"620 660 OFFCURVE",
"505 710 OFFCURVE",
"395 710 CURVE SMOOTH",
"190 710 OFFCURVE",
"60 565 OFFCURVE",
"60 335 CURVE SMOOTH",
"60 110 OFFCURVE",
"180 -10 OFFCURVE",
"380 -10 CURVE SMOOTH",
"530 -10 OFFCURVE",
"630 95 OFFCURVE",
"630 95 CURVE",
"590 160 LINE",
"590 160 OFFCURVE",
"495 80 OFFCURVE",
"390 80 CURVE SMOOTH",
"265 80 OFFCURVE",
"175 160 OFFCURVE",
"175 340 CURVE SMOOTH",
"175 525 OFFCURVE",
"250 625 OFFCURVE",
"385 625 CURVE SMOOTH",
"460 625 OFFCURVE",
"513 605 OFFCURVE",
"513 605 CURVE"
);
}
);
width = 665;
},
{
layerId = "708C77EA-8E11-4C15-94D7-0069457547BC";
paths = (
{
closed = 1;
nodes = (
"522 480 LINE",
"620 480 LINE",
"625 670 LINE",
"625 670 OFFCURVE",
"513 717 OFFCURVE",
"392 717 CURVE SMOOTH",
"187 717 OFFCURVE",
"55 577 OFFCURVE",
"55 342 CURVE SMOOTH",
"55 110 OFFCURVE",
"172 -12 OFFCURVE",
"375 -12 CURVE SMOOTH",
"532 -12 OFFCURVE",
"637 97 OFFCURVE",
"637 97 CURVE",
"582 187 LINE",
"582 187 OFFCURVE",
"492 117 OFFCURVE",
"392 117 CURVE SMOOTH",
"287 117 OFFCURVE",
"222 185 OFFCURVE",
"222 347 CURVE SMOOTH",
"222 514 OFFCURVE",
"282 592 OFFCURVE",
"387 592 CURVE SMOOTH",
"452 592 OFFCURVE",
"499 576 OFFCURVE",
"499 576 CURVE"
);
},
{
closed = 1;
nodes = (
"307 797 OFFCURVE",
"332 769 OFFCURVE",
"379 769 CURVE SMOOTH",
"418 769 OFFCURVE",
"453 797 OFFCURVE",
"453 847 CURVE SMOOTH",
"453 896 OFFCURVE",
"429 925 OFFCURVE",
"381 925 CURVE SMOOTH",
"343 925 OFFCURVE",
"307 896 OFFCURVE",
"307 847 CURVE SMOOTH"
);
}
);
width = 667;
}
);
leftKerningGroup = C;
unicode = 010A;
},
{
glyphname = D;
lastChange = "2016-08-22 17:50:02 +0000";
layers = (
{
layerId = UUID0;
paths = (
{
closed = 1;
nodes = (
"45 0 LINE",
"345 0 LINE SMOOTH",
"545 0 OFFCURVE",
"675 140 OFFCURVE",
"675 360 CURVE SMOOTH",
"675 580 OFFCURVE",
"555 700 OFFCURVE",
"360 700 CURVE SMOOTH",
"235 700 LINE",
"45 695 LINE",
"45 640 LINE",
"130 620 LINE",
"130 80 LINE",
"45 60 LINE"
);
},
{
closed = 1;
nodes = (
"235 80 LINE",
"235 620 LINE",
"355 620 LINE SMOOTH",
"480 620 OFFCURVE",
"560 540 OFFCURVE",
"560 355 CURVE SMOOTH",
"560 165 OFFCURVE",
"475 80 OFFCURVE",
"350 80 CURVE SMOOTH"
);
}
);
width = 730;
},
{
layerId = "708C77EA-8E11-4C15-94D7-0069457547BC";
paths = (
{
closed = 1;
nodes = (
"40 0 LINE",
"350 0 LINE SMOOTH",
"553 0 OFFCURVE",
"683 137 OFFCURVE",
"683 362 CURVE SMOOTH",
"683 587 OFFCURVE",
"565 705 OFFCURVE",
"365 705 CURVE SMOOTH",
"270 705 LINE",
"40 700 LINE",
"40 615 LINE",
"115 585 LINE",
"115 115 LINE",
"40 85 LINE"
);
},
{
closed = 1;
nodes = (
"270 120 LINE",
"270 585 LINE",
"360 585 LINE SMOOTH",
"458 585 OFFCURVE",
"515 525 OFFCURVE",
"515 357 CURVE SMOOTH",
"515 177 OFFCURVE",
"450 120 OFFCURVE",
"353 120 CURVE SMOOTH"
);
}
);
width = 733;
}
);
leftKerningGroup = D;
rightKerningGroup = D;
unicode = 0044;
},
{
glyphname = Eth;
lastChange = "2016-08-22 17:50:02 +0000";
layers = (
{
layerId = UUID0;
paths = (
{
closed = 1;
nodes = (
"45 0 LINE",
"348 0 LINE SMOOTH",
"548 0 OFFCURVE",
"678 140 OFFCURVE",
"678 360 CURVE SMOOTH",
"678 580 OFFCURVE",
"558 700 OFFCURVE",
"363 700 CURVE SMOOTH",
"235 700 LINE",
"45 695 LINE",
"45 640 LINE",
"130 620 LINE",
"130 409 LINE",
"45 409 LINE",
"45 330 LINE",
"130 330 LINE",
"130 80 LINE",
"45 60 LINE"
);
},
{
closed = 1;
nodes = (
"234 80 LINE",
"234 330 LINE",
"390 330 LINE",
"390 409 LINE",
"234 409 LINE",
"234 620 LINE",
"358 620 LINE SMOOTH",
"483 620 OFFCURVE",
"563 540 OFFCURVE",
"563 355 CURVE SMOOTH",
"563 165 OFFCURVE",
"478 80 OFFCURVE",
"353 80 CURVE SMOOTH"
);
}
);
width = 738;
},
{
layerId = "708C77EA-8E11-4C15-94D7-0069457547BC";
paths = (
{
closed = 1;
nodes = (
"40 0 LINE",
"354 0 LINE SMOOTH",
"556 0 OFFCURVE",
"686 137 OFFCURVE",
"686 362 CURVE SMOOTH",
"686 587 OFFCURVE",
"569 705 OFFCURVE",
"369 705 CURVE SMOOTH",
"270 705 LINE",
"40 700 LINE",
"40 615 LINE",
"115 585 LINE",
"115 422 LINE",
"47 422 LINE",
"47 312 LINE",
"115 312 LINE",
"115 115 LINE",
"40 85 LINE"
);
},
{
closed = 1;
nodes = (
"269 120 LINE",
"269 312 LINE",
"390 312 LINE",
"390 422 LINE",
"269 422 LINE",
"269 585 LINE",
"364 585 LINE SMOOTH",
"461 585 OFFCURVE",
"519 525 OFFCURVE",
"519 357 CURVE SMOOTH",
"519 177 OFFCURVE",
"454 120 OFFCURVE",
"356 120 CURVE SMOOTH"
);
}
);
width = 741;
}
);
leftKerningGroup = D;
rightKerningGroup = D;
unicode = 00D0;
},
{
glyphname = Dcaron;
lastChange = "2016-08-22 17:50:02 +0000";
layers = (
{
layerId = UUID0;
paths = (
{
closed = 1;
nodes = (
"338 750 LINE",
"398 755 LINE",
"543 875 LINE",
"503 920 LINE",
"366 827 LINE",
"233 920 LINE",
"193 875 LINE"
);
},
{
closed = 1;
nodes = (
"45 0 LINE",
"345 0 LINE SMOOTH",
"545 0 OFFCURVE",
"675 140 OFFCURVE",
"675 360 CURVE SMOOTH",
"675 580 OFFCURVE",
"555 700 OFFCURVE",
"360 700 CURVE SMOOTH",
"235 700 LINE",
"45 695 LINE",
"45 640 LINE",
"130 620 LINE",
"130 80 LINE",
"45 60 LINE"
);
},
{
closed = 1;
nodes = (
"235 80 LINE",
"235 620 LINE",
"355 620 LINE SMOOTH",
"480 620 OFFCURVE",
"560 540 OFFCURVE",
"560 355 CURVE SMOOTH",
"560 165 OFFCURVE",
"475 80 OFFCURVE",
"350 80 CURVE SMOOTH"
);
}
);
width = 730;
},
{
layerId = "708C77EA-8E11-4C15-94D7-0069457547BC";
paths = (
{
closed = 1;
nodes = (
"40 0 LINE",
"350 0 LINE SMOOTH",
"553 0 OFFCURVE",
"683 137 OFFCURVE",
"683 362 CURVE SMOOTH",
"683 587 OFFCURVE",
"565 705 OFFCURVE",
"365 705 CURVE SMOOTH",
"270 705 LINE",
"40 700 LINE",
"40 615 LINE",
"115 585 LINE",
"115 115 LINE",
"40 85 LINE"
);
},
{
closed = 1;
nodes = (
"270 120 LINE",
"270 585 LINE",
"360 585 LINE SMOOTH",
"458 585 OFFCURVE",
"515 525 OFFCURVE",
"515 357 CURVE SMOOTH",
"515 177 OFFCURVE",
"450 120 OFFCURVE",
"353 120 CURVE SMOOTH"
);
},
{
closed = 1;
nodes = (
"317 750 LINE",
"406 757 LINE",
"549 897 LINE",
"499 957 LINE",
"360 851 LINE",
"219 957 LINE",
"164 897 LINE"
);
}
);
width = 733;
}
);
leftKerningGroup = D;
rightKerningGroup = D;
unicode = 010E;
},
{
glyphname = Dcroat;
lastChange = "2016-08-22 17:50:02 +0000";
layers = (
{
layerId = UUID0;
paths = (
{
closed = 1;
nodes = (
"45 0 LINE",
"348 0 LINE SMOOTH",
"548 0 OFFCURVE",
"678 140 OFFCURVE",
"678 360 CURVE SMOOTH",
"678 580 OFFCURVE",
"558 700 OFFCURVE",
"363 700 CURVE SMOOTH",
"235 700 LINE",
"45 695 LINE",
"45 640 LINE",
"130 620 LINE",
"130 409 LINE",
"45 409 LINE",
"45 330 LINE",
"130 330 LINE",
"130 80 LINE",
"45 60 LINE"
);
},
{
closed = 1;
nodes = (
"234 80 LINE",
"234 330 LINE",
"390 330 LINE",
"390 409 LINE",
"234 409 LINE",
"234 620 LINE",
"358 620 LINE SMOOTH",
"483 620 OFFCURVE",
"563 540 OFFCURVE",
"563 355 CURVE SMOOTH",
"563 165 OFFCURVE",
"478 80 OFFCURVE",
"353 80 CURVE SMOOTH"
);
}
);
width = 738;
},
{
layerId = "708C77EA-8E11-4C15-94D7-0069457547BC";
paths = (
{
closed = 1;
nodes = (
"40 0 LINE",
"354 0 LINE SMOOTH",
"556 0 OFFCURVE",
"686 137 OFFCURVE",
"686 362 CURVE SMOOTH",
"686 587 OFFCURVE",
"569 705 OFFCURVE",
"369 705 CURVE SMOOTH",
"270 705 LINE",
"40 700 LINE",
"40 615 LINE",
"115 585 LINE",
"115 422 LINE",
"47 422 LINE",
"47 312 LINE",
"115 312 LINE",
"115 115 LINE",
"40 85 LINE"
);
},
{
closed = 1;
nodes = (
"269 120 LINE",
"269 312 LINE",
"390 312 LINE",
"390 422 LINE",
"269 422 LINE",
"269 585 LINE",
"364 585 LINE SMOOTH",
"461 585 OFFCURVE",
"519 525 OFFCURVE",
"519 357 CURVE SMOOTH",
"519 177 OFFCURVE",
"454 120 OFFCURVE",
"356 120 CURVE SMOOTH"
);
}
);
width = 741;
}
);
leftKerningGroup = D;
rightKerningGroup = D;
unicode = 0110;
},
{
glyphname = E;
lastChange = "2016-09-12 12:03:45 +0000";
layers = (
{
anchors = (
{
name = bottom;
position = "{308, 0}";
},
{
name = ogonek;
position = "{553, 10}";
},
{
name = top;
position = "{308, 700}";
},
{
name = topleft;
position = "{20, 700}";
}
);
layerId = UUID0;
paths = (
{
closed = 1;
nodes = (
"50 0 LINE",
"555 0 LINE",
"555 180 LINE",
"490 180 LINE",
"470 80 LINE",
"240 80 LINE",
"240 325 LINE",
"470 325 LINE",
"470 405 LINE",
"240 405 LINE",
"240 620 LINE",
"455 620 LINE",
"480 530 LINE",
"545 530 LINE",
"545 700 LINE",
"240 700 LINE",
"50 695 LINE",
"50 640 LINE",
"135 620 LINE",
"135 80 LINE",
"50 60 LINE"
);
}
);
width = 615;
},
{
anchors = (
{
name = bottom;
position = "{311, 0}";
},
{
name = ogonek;
position = "{560, 10}";
},
{
name = top;
position = "{311, 705}";
},
{
name = topleft;
position = "{20, 705}";
}
);
layerId = "708C77EA-8E11-4C15-94D7-0069457547BC";
paths = (
{
closed = 1;
nodes = (
"45 0 LINE",
"567 0 LINE",
"567 202 LINE",
"477 202 LINE",
"454 120 LINE",
"275 120 LINE",
"275 310 LINE",
"477 310 LINE",
"477 420 LINE",
"275 420 LINE",
"275 585 LINE",
"440 585 LINE",
"465 512 LINE",
"555 512 LINE",
"555 705 LINE",
"275 705 LINE",
"45 700 LINE",
"45 615 LINE",
"120 585 LINE",
"120 115 LINE",
"45 85 LINE"
);
}
);
width = 622;
}
);
leftKerningGroup = E;
rightKerningGroup = AE;
unicode = 0045;
},
{
glyphname = Eacute;
lastChange = "2016-08-22 17:50:02 +0000";
layers = (
{
layerId = UUID0;
paths = (
{
closed = 1;
nodes = (
"475 860 LINE",
"424 933 LINE",
"242 788 LINE",
"280 735 LINE"
);
},
{
closed = 1;
nodes = (
"50 0 LINE",
"555 0 LINE",
"555 180 LINE",
"490 180 LINE",
"470 80 LINE",
"240 80 LINE",
"240 325 LINE",
"470 325 LINE",
"470 405 LINE",
"240 405 LINE",
"240 620 LINE",
"455 620 LINE",
"480 530 LINE",
"545 530 LINE",
"545 700 LINE",
"240 700 LINE",
"50 695 LINE",
"50 640 LINE",
"135 620 LINE",
"135 80 LINE",
"50 60 LINE"
);
}
);
width = 615;
},
{
layerId = "708C77EA-8E11-4C15-94D7-0069457547BC";
paths = (
{
closed = 1;
nodes = (
"45 0 LINE",
"567 0 LINE",
"567 202 LINE",
"477 202 LINE",
"454 120 LINE",
"275 120 LINE",
"275 310 LINE",
"477 310 LINE",
"477 420 LINE",
"275 420 LINE",
"275 585 LINE",
"440 585 LINE",
"465 512 LINE",
"555 512 LINE",
"555 705 LINE",
"275 705 LINE",
"45 700 LINE",
"45 615 LINE",
"120 585 LINE",
"120 115 LINE",
"45 85 LINE"
);
},
{
closed = 1;
nodes = (
"493 847 LINE",
"435 956 LINE",
"220 815 LINE",
"266 735 LINE"
);
}
);
width = 622;
}
);
leftKerningGroup = E;
rightKerningGroup = AE;
unicode = 00C9;
},
{
glyphname = Ebreve;
lastChange = "2016-08-22 17:50:02 +0000";
layers = (
{
layerId = UUID0;
paths = (
{
closed = 1;
nodes = (
"399 760 OFFCURVE",
"468 810 OFFCURVE",
"470 910 CURVE",
"410 905 LINE",
"405 862 OFFCURVE",
"370 834 OFFCURVE",
"331 834 CURVE SMOOTH",
"296 834 OFFCURVE",
"261 856 OFFCURVE",
"250 910 CURVE",
"190 905 LINE",
"192 809 OFFCURVE",
"261 760 OFFCURVE",
"329 760 CURVE SMOOTH"
);
},
{
closed = 1;
nodes = (
"50 0 LINE",
"555 0 LINE",
"555 180 LINE",
"490 180 LINE",
"470 80 LINE",
"240 80 LINE",
"240 325 LINE",
"470 325 LINE",
"470 405 LINE",
"240 405 LINE",
"240 620 LINE",
"455 620 LINE",
"480 530 LINE",
"545 530 LINE",
"545 700 LINE",
"240 700 LINE",
"50 695 LINE",
"50 640 LINE",
"135 620 LINE",
"135 80 LINE",
"50 60 LINE"
);
}
);
width = 615;
},
{
layerId = "708C77EA-8E11-4C15-94D7-0069457547BC";
paths = (
{
closed = 1;
nodes = (
"45 0 LINE",
"567 0 LINE",
"567 202 LINE",
"477 202 LINE",
"454 120 LINE",
"275 120 LINE",
"275 310 LINE",
"477 310 LINE",
"477 420 LINE",
"275 420 LINE",
"275 585 LINE",
"440 585 LINE",
"465 512 LINE",
"555 512 LINE",
"555 705 LINE",
"275 705 LINE",
"45 700 LINE",
"45 615 LINE",
"120 585 LINE",
"120 115 LINE",
"45 85 LINE"
);
},
{
closed = 1;
nodes = (
"403 763 OFFCURVE",
"486 823 OFFCURVE",
"488 939 CURVE",
"401 932 LINE",
"395 888 OFFCURVE",
"361 867 OFFCURVE",
"326 867 CURVE SMOOTH",
"293 867 OFFCURVE",
"259 889 OFFCURVE",
"248 941 CURVE",
"161 932 LINE",
"161 818 OFFCURVE",
"239 763 OFFCURVE",
"319 763 CURVE SMOOTH"
);
}
);
width = 622;
}
);
leftKerningGroup = E;
rightKerningGroup = AE;
unicode = 0114;
},
{
glyphname = Ecaron;
lastChange = "2016-08-22 17:50:02 +0000";
layers = (
{
layerId = UUID0;
paths = (
{
closed = 1;
nodes = (
"303 750 LINE",
"363 755 LINE",
"508 875 LINE",
"468 920 LINE",
"331 827 LINE",
"198 920 LINE",
"158 875 LINE"
);
},
{
closed = 1;
nodes = (
"50 0 LINE",
"555 0 LINE",
"555 180 LINE",
"490 180 LINE",
"470 80 LINE",
"240 80 LINE",
"240 325 LINE",
"470 325 LINE",
"470 405 LINE",
"240 405 LINE",
"240 620 LINE",
"455 620 LINE",
"480 530 LINE",
"545 530 LINE",
"545 700 LINE",
"240 700 LINE",
"50 695 LINE",
"50 640 LINE",
"135 620 LINE",
"135 80 LINE",
"50 60 LINE"
);
}
);
width = 615;
},
{
layerId = "708C77EA-8E11-4C15-94D7-0069457547BC";
paths = (
{
closed = 1;
nodes = (
"45 0 LINE",
"567 0 LINE",
"567 202 LINE",
"477 202 LINE",
"454 120 LINE",
"275 120 LINE",
"275 310 LINE",
"477 310 LINE",
"477 420 LINE",
"275 420 LINE",
"275 585 LINE",
"440 585 LINE",
"465 512 LINE",
"555 512 LINE",
"555 705 LINE",
"275 705 LINE",
"45 700 LINE",
"45 615 LINE",
"120 585 LINE",
"120 115 LINE",
"45 85 LINE"
);
},
{
closed = 1;
nodes = (
"286 750 LINE",
"375 757 LINE",
"518 897 LINE",
"468 957 LINE",
"329 851 LINE",
"188 957 LINE",
"133 897 LINE"
);
}
);
width = 622;
}
);
leftKerningGroup = E;
rightKerningGroup = AE;
unicode = 011A;
},
{
glyphname = Ecircumflex;
lastChange = "2016-08-22 17:50:02 +0000";
layers = (
{
layerId = UUID0;
paths = (
{
closed = 1;
nodes = (
"175 750 LINE",
"312 843 LINE",
"445 750 LINE",
"485 795 LINE",
"340 920 LINE",
"280 915 LINE",
"135 795 LINE"
);
},
{
closed = 1;
nodes = (
"50 0 LINE",
"555 0 LINE",
"555 180 LINE",
"490 180 LINE",
"470 80 LINE",
"240 80 LINE",
"240 325 LINE",
"470 325 LINE",
"470 405 LINE",
"240 405 LINE",
"240 620 LINE",
"455 620 LINE",
"480 530 LINE",
"545 530 LINE",
"545 700 LINE",
"240 700 LINE",
"50 695 LINE",
"50 640 LINE",
"135 620 LINE",
"135 80 LINE",
"50 60 LINE"
);
}
);
width = 615;
},
{
layerId = "708C77EA-8E11-4C15-94D7-0069457547BC";
paths = (
{
closed = 1;
nodes = (
"45 0 LINE",
"567 0 LINE",
"567 202 LINE",
"477 202 LINE",
"454 120 LINE",
"275 120 LINE",
"275 310 LINE",
"477 310 LINE",
"477 420 LINE",
"275 420 LINE",
"275 585 LINE",
"440 585 LINE",
"465 512 LINE",
"555 512 LINE",
"555 705 LINE",
"275 705 LINE",
"45 700 LINE",
"45 615 LINE",
"120 585 LINE",
"120 115 LINE",
"45 85 LINE"
);
},
{
closed = 1;
nodes = (
"175 742 LINE",
"332 840 LINE",
"483 742 LINE",
"531 808 LINE",
"369 947 LINE",
"280 939 LINE",
"127 808 LINE"
);
}
);
width = 622;
}
);
leftKerningGroup = E;
rightKerningGroup = AE;
unicode = 00CA;
},
{
glyphname = Edieresis;
lastChange = "2016-08-22 17:50:02 +0000";
layers = (
{
layerId = UUID0;
paths = (
{
closed = 1;
nodes = (
"160 787 OFFCURVE",
"181 765 OFFCURVE",
"215 765 CURVE SMOOTH",
"245 765 OFFCURVE",
"270 787 OFFCURVE",
"270 825 CURVE SMOOTH",
"270 863 OFFCURVE",
"249 885 OFFCURVE",
"215 885 CURVE SMOOTH",
"185 885 OFFCURVE",
"160 863 OFFCURVE",
"160 825 CURVE SMOOTH"
);
},
{
closed = 1;
nodes = (
"365 787 OFFCURVE",
"386 765 OFFCURVE",
"420 765 CURVE SMOOTH",
"450 765 OFFCURVE",
"475 787 OFFCURVE",
"475 825 CURVE SMOOTH",
"475 863 OFFCURVE",
"454 885 OFFCURVE",
"420 885 CURVE SMOOTH",
"390 885 OFFCURVE",
"365 863 OFFCURVE",
"365 825 CURVE SMOOTH"
);
},
{
closed = 1;
nodes = (
"50 0 LINE",
"555 0 LINE",
"555 180 LINE",
"490 180 LINE",
"470 80 LINE",
"240 80 LINE",
"240 325 LINE",
"470 325 LINE",
"470 405 LINE",
"240 405 LINE",
"240 620 LINE",
"455 620 LINE",
"480 530 LINE",
"545 530 LINE",
"545 700 LINE",
"240 700 LINE",
"50 695 LINE",
"50 640 LINE",
"135 620 LINE",
"135 80 LINE",
"50 60 LINE"
);
}
);
width = 615;
},
{
layerId = "708C77EA-8E11-4C15-94D7-0069457547BC";
paths = (
{
closed = 1;
nodes = (
"45 0 LINE",
"567 0 LINE",
"567 202 LINE",
"477 202 LINE",
"454 120 LINE",
"275 120 LINE",
"275 310 LINE",
"477 310 LINE",
"477 420 LINE",
"275 420 LINE",
"275 585 LINE",
"440 585 LINE",
"465 512 LINE",
"555 512 LINE",
"555 705 LINE",
"275 705 LINE",
"45 700 LINE",
"45 615 LINE",
"120 585 LINE",
"120 115 LINE",
"45 85 LINE"
);
},
{
closed = 1;
nodes = (
"140 798 OFFCURVE",
"165 770 OFFCURVE",
"212 770 CURVE SMOOTH",
"251 770 OFFCURVE",
"286 798 OFFCURVE",
"286 848 CURVE SMOOTH",
"286 897 OFFCURVE",
"261 926 OFFCURVE",
"214 926 CURVE SMOOTH",
"175 926 OFFCURVE",
"140 897 OFFCURVE",
"140 848 CURVE SMOOTH"
);
},
{
closed = 1;
nodes = (
"358 798 OFFCURVE",
"383 770 OFFCURVE",
"430 770 CURVE SMOOTH",
"469 770 OFFCURVE",
"504 798 OFFCURVE",
"504 848 CURVE SMOOTH",
"504 897 OFFCURVE",
"480 926 OFFCURVE",
"432 926 CURVE SMOOTH",
"394 926 OFFCURVE",
"358 897 OFFCURVE",
"358 848 CURVE SMOOTH"
);
}
);
width = 622;
}
);
leftKerningGroup = E;
rightKerningGroup = AE;
unicode = 00CB;
},
{
glyphname = Edotaccent;
lastChange = "2016-08-22 17:50:02 +0000";
layers = (
{
layerId = UUID0;
paths = (
{
closed = 1;
nodes = (
"260 787 OFFCURVE",
"281 765 OFFCURVE",
"315 765 CURVE SMOOTH",
"345 765 OFFCURVE",
"370 787 OFFCURVE",
"370 825 CURVE SMOOTH",
"370 863 OFFCURVE",
"349 885 OFFCURVE",
"315 885 CURVE SMOOTH",
"285 885 OFFCURVE",
"260 863 OFFCURVE",
"260 825 CURVE SMOOTH"
);
},
{
closed = 1;
nodes = (
"50 0 LINE",
"555 0 LINE",
"555 180 LINE",
"490 180 LINE",
"470 80 LINE",
"240 80 LINE",
"240 325 LINE",
"470 325 LINE",
"470 405 LINE",
"240 405 LINE",
"240 620 LINE",
"455 620 LINE",
"480 530 LINE",
"545 530 LINE",
"545 700 LINE",
"240 700 LINE",
"50 695 LINE",
"50 640 LINE",
"135 620 LINE",
"135 80 LINE",
"50 60 LINE"
);
}
);
width = 615;
},
{
layerId = "708C77EA-8E11-4C15-94D7-0069457547BC";
paths = (
{
closed = 1;
nodes = (
"45 0 LINE",
"567 0 LINE",
"567 202 LINE",
"477 202 LINE",
"454 120 LINE",
"275 120 LINE",
"275 310 LINE",
"477 310 LINE",
"477 420 LINE",
"275 420 LINE",
"275 585 LINE",
"440 585 LINE",
"465 512 LINE",
"555 512 LINE",
"555 705 LINE",
"275 705 LINE",
"45 700 LINE",
"45 615 LINE",
"120 585 LINE",
"120 115 LINE",
"45 85 LINE"
);
},
{
closed = 1;
nodes = (
"239 797 OFFCURVE",
"264 769 OFFCURVE",
"311 769 CURVE SMOOTH",
"350 769 OFFCURVE",
"385 797 OFFCURVE",
"385 847 CURVE SMOOTH",
"385 896 OFFCURVE",
"361 925 OFFCURVE",
"313 925 CURVE SMOOTH",
"275 925 OFFCURVE",
"239 896 OFFCURVE",
"239 847 CURVE SMOOTH"
);
}
);
width = 622;
}
);
leftKerningGroup = E;
rightKerningGroup = AE;
unicode = 0116;
},
{
glyphname = Egrave;
lastChange = "2016-09-12 12:30:24 +0000";
layers = (
{
layerId = UUID0;
paths = (
{
closed = 1;
nodes = (
"175 860 LINE",
"370 735 LINE",
"410 790 LINE",
"225 935 LINE"
);
},
{
closed = 1;
nodes = (
"50 0 LINE",
"555 0 LINE",
"555 180 LINE",
"490 180 LINE",
"470 80 LINE",
"240 80 LINE",
"240 325 LINE",
"470 325 LINE",
"470 405 LINE",
"240 405 LINE",
"240 620 LINE",
"455 620 LINE",
"480 530 LINE",
"545 530 LINE",
"545 700 LINE",
"240 700 LINE",
"50 695 LINE",
"50 640 LINE",
"135 620 LINE",
"135 80 LINE",
"50 60 LINE"
);
}
);
width = 615;
},
{
layerId = "708C77EA-8E11-4C15-94D7-0069457547BC";
paths = (
{
closed = 1;
nodes = (
"45 0 LINE",
"567 0 LINE",
"567 202 LINE",
"477 202 LINE",
"454 120 LINE",
"275 120 LINE",
"275 310 LINE",
"477 310 LINE",
"477 420 LINE",
"275 420 LINE",
"275 585 LINE",
"440 585 LINE",
"465 512 LINE",
"555 512 LINE",
"555 705 LINE",
"275 705 LINE",
"45 700 LINE",
"45 615 LINE",
"120 585 LINE",
"120 115 LINE",
"45 85 LINE"
);
},
{
closed = 1;
nodes = (
"159 847 LINE",
"386 735 LINE",
"432 815 LINE",
"217 956 LINE"
);
}
);
width = 622;
}
);
leftKerningGroup = E;
rightKerningGroup = AE;
unicode = 00C8;
},
{
glyphname = Emacron;
lastChange = "2016-08-22 17:50:02 +0000";
layers = (
{
layerId = UUID0;
paths = (
{
closed = 1;
nodes = (
"200 865 LINE",
"200 790 LINE",
"470 790 LINE",
"470 865 LINE"
);
},
{
closed = 1;
nodes = (
"50 0 LINE",
"555 0 LINE",
"555 180 LINE",
"490 180 LINE",
"470 80 LINE",
"240 80 LINE",
"240 325 LINE",
"470 325 LINE",
"470 405 LINE",
"240 405 LINE",
"240 620 LINE",
"455 620 LINE",
"480 530 LINE",
"545 530 LINE",
"545 700 LINE",
"240 700 LINE",
"50 695 LINE",
"50 640 LINE",
"135 620 LINE",
"135 80 LINE",
"50 60 LINE"
);
}
);
width = 615;
},
{
layerId = "708C77EA-8E11-4C15-94D7-0069457547BC";
paths = (
{
closed = 1;
nodes = (
"45 0 LINE",
"567 0 LINE",
"567 202 LINE",
"477 202 LINE",
"454 120 LINE",
"275 120 LINE",
"275 310 LINE",
"477 310 LINE",
"477 420 LINE",
"275 420 LINE",
"275 585 LINE",
"440 585 LINE",
"465 512 LINE",
"555 512 LINE",
"555 705 LINE",
"275 705 LINE",
"45 700 LINE",
"45 615 LINE",
"120 585 LINE",
"120 115 LINE",
"45 85 LINE"
);
},
{
closed = 1;
nodes = (
"178 907 LINE",
"178 802 LINE",
"478 802 LINE",
"478 907 LINE"
);
}
);
width = 622;
}
);
leftKerningGroup = E;
rightKerningGroup = AE;
unicode = 0112;
},
{
glyphname = Eogonek;
lastChange = "2016-08-22 17:50:02 +0000";
layers = (
{
layerId = UUID0;
paths = (
{
closed = 1;
nodes = (
"510 -220 OFFCURVE",
"550 -200 OFFCURVE",
"550 -200 CURVE",
"540 -153 LINE",
"540 -153 OFFCURVE",
"515 -160 OFFCURVE",
"495 -160 CURVE SMOOTH",
"470 -160 OFFCURVE",
"450 -145 OFFCURVE",
"450 -115 CURVE SMOOTH",
"450 -55 OFFCURVE",
"555 0 OFFCURVE",
"555 0 CURVE",
"555 180 LINE",
"490 180 LINE",
"470 80 LINE",
"240 80 LINE",
"240 325 LINE",
"470 325 LINE",
"470 405 LINE",
"240 405 LINE",
"240 620 LINE",
"455 620 LINE",
"480 530 LINE",
"545 530 LINE",
"545 700 LINE",
"240 700 LINE",
"50 695 LINE",
"50 640 LINE",
"135 620 LINE",
"135 80 LINE",
"50 60 LINE",
"50 0 LINE",
"465 0 LINE",
"465 0 OFFCURVE",
"370 -45 OFFCURVE",
"370 -125 CURVE SMOOTH",
"370 -185 OFFCURVE",
"415 -220 OFFCURVE",
"470 -220 CURVE SMOOTH"
);
}
);
width = 615;
},
{
layerId = "708C77EA-8E11-4C15-94D7-0069457547BC";
paths = (
{
closed = 1;
nodes = (
"511 -235 OFFCURVE",
"558 -210 OFFCURVE",
"558 -210 CURVE",
"541 -140 LINE",
"541 -140 OFFCURVE",
"514 -146 OFFCURVE",
"498 -146 CURVE SMOOTH",
"477 -146 OFFCURVE",
"461 -134 OFFCURVE",
"461 -110 CURVE SMOOTH",
"461 -61 OFFCURVE",
"567 0 OFFCURVE",
"567 0 CURVE",
"567 202 LINE",
"477 202 LINE",
"454 120 LINE",
"275 120 LINE",
"275 310 LINE",
"477 310 LINE",
"477 420 LINE",
"275 420 LINE",
"275 585 LINE",
"440 585 LINE",
"465 512 LINE",
"555 512 LINE",
"555 705 LINE",
"275 705 LINE",
"45 700 LINE",
"45 615 LINE",
"120 585 LINE",
"120 115 LINE",
"45 85 LINE",
"45 0 LINE",
"447 0 LINE",
"447 0 OFFCURVE",
"346 -49 OFFCURVE",
"346 -135 CURVE SMOOTH",
"346 -203 OFFCURVE",
"396 -235 OFFCURVE",
"456 -235 CURVE SMOOTH"
);
}
);
width = 622;
}
);
leftKerningGroup = E;
rightKerningGroup = AE;
unicode = 0118;
},
{
glyphname = F;
lastChange = "2016-08-22 17:50:02 +0000";
layers = (
{
layerId = UUID0;
paths = (
{
closed = 1;
nodes = (
"40 0 LINE",
"330 0 LINE",
"330 60 LINE",
"230 80 LINE",
"230 315 LINE",
"460 315 LINE",
"460 395 LINE",
"230 395 LINE",
"230 620 LINE",
"445 620 LINE",
"470 535 LINE",
"535 535 LINE",
"535 700 LINE",
"230 700 LINE",
"40 695 LINE",
"40 640 LINE",
"125 620 LINE",
"125 80 LINE",
"40 60 LINE"
);
}
);
width = 570;
},
{
layerId = "708C77EA-8E11-4C15-94D7-0069457547BC";
paths = (
{
closed = 1;
nodes = (
"45 0 LINE",
"367 0 LINE",
"367 85 LINE",
"275 115 LINE",
"275 300 LINE",
"482 300 LINE",
"482 410 LINE",
"275 410 LINE",
"275 585 LINE",
"437 585 LINE",
"462 515 LINE",
"555 515 LINE",
"555 705 LINE",
"275 705 LINE",
"45 700 LINE",
"45 615 LINE",
"120 585 LINE",
"120 115 LINE",
"45 85 LINE"
);
}
);
width = 580;
}
);
leftKerningGroup = D;
unicode = 0046;
},
{
glyphname = G;
lastChange = "2016-08-22 17:50:02 +0000";
layers = (
{
layerId = UUID0;
paths = (
{
closed = 1;
nodes = (
"529 -10 OFFCURVE",
"635 50 OFFCURVE",
"635 50 CURVE",
"635 264 LINE",
"710 284 LINE",
"710 344 LINE",
"450 339 LINE",
"450 284 LINE",
"535 264 LINE",
"535 100 LINE",
"535 100 OFFCURVE",
"465 75 OFFCURVE",
"395 75 CURVE SMOOTH",
"265 75 OFFCURVE",
"175 160 OFFCURVE",
"175 340 CURVE SMOOTH",
"175 525 OFFCURVE",
"250 625 OFFCURVE",
"385 625 CURVE SMOOTH",
"460 625 OFFCURVE",
"520 605 OFFCURVE",
"520 605 CURVE",
"550 495 LINE",
"615 495 LINE",
"620 660 LINE",
"620 660 OFFCURVE",
"505 710 OFFCURVE",
"395 710 CURVE SMOOTH",
"190 710 OFFCURVE",
"60 565 OFFCURVE",
"60 335 CURVE SMOOTH",
"60 110 OFFCURVE",
"180 -10 OFFCURVE",
"380 -10 CURVE SMOOTH"
);
}
);
width = 750;
},
{
layerId = "708C77EA-8E11-4C15-94D7-0069457547BC";
paths = (
{
closed = 1;
nodes = (
"544 -12 OFFCURVE",
"647 55 OFFCURVE",
"647 55 CURVE",
"647 259 LINE",
"715 282 LINE",
"715 369 LINE",
"427 364 LINE",
"427 282 LINE",
"502 259 LINE",
"502 133 LINE",
"502 133 OFFCURVE",
"444 115 OFFCURVE",
"392 115 CURVE SMOOTH",
"285 115 OFFCURVE",
"222 185 OFFCURVE",
"222 347 CURVE SMOOTH",
"222 514 OFFCURVE",
"282 592 OFFCURVE",
"389 592 CURVE SMOOTH",
"455 592 OFFCURVE",
"502 576 OFFCURVE",
"502 576 CURVE",
"527 490 LINE",
"620 490 LINE",
"625 670 LINE",
"625 670 OFFCURVE",
"513 717 OFFCURVE",
"392 717 CURVE SMOOTH",
"187 717 OFFCURVE",
"55 577 OFFCURVE",
"55 342 CURVE SMOOTH",
"55 110 OFFCURVE",
"172 -12 OFFCURVE",
"375 -12 CURVE SMOOTH"
);
}
);
width = 750;
}
);
leftKerningGroup = C;
unicode = 0047;
},
{
glyphname = Gbreve;
lastChange = "2016-08-22 17:50:02 +0000";
layers = (
{
layerId = UUID0;
paths = (
{
closed = 1;
nodes = (
"449 760 OFFCURVE",
"518 810 OFFCURVE",
"520 910 CURVE",
"460 905 LINE",
"455 862 OFFCURVE",
"420 834 OFFCURVE",
"381 834 CURVE SMOOTH",
"346 834 OFFCURVE",
"311 856 OFFCURVE",
"300 910 CURVE",
"240 905 LINE",
"242 809 OFFCURVE",
"311 760 OFFCURVE",
"379 760 CURVE SMOOTH"
);
},
{
closed = 1;
nodes = (
"529 -10 OFFCURVE",
"635 50 OFFCURVE",
"635 50 CURVE",
"635 264 LINE",
"710 284 LINE",
"710 344 LINE",
"450 339 LINE",
"450 284 LINE",
"535 264 LINE",
"535 100 LINE",
"535 100 OFFCURVE",
"465 75 OFFCURVE",
"395 75 CURVE SMOOTH",
"265 75 OFFCURVE",
"175 160 OFFCURVE",
"175 340 CURVE SMOOTH",
"175 525 OFFCURVE",
"250 625 OFFCURVE",
"385 625 CURVE SMOOTH",
"460 625 OFFCURVE",
"520 605 OFFCURVE",
"520 605 CURVE",
"550 495 LINE",
"615 495 LINE",
"620 660 LINE",
"620 660 OFFCURVE",
"505 710 OFFCURVE",
"395 710 CURVE SMOOTH",
"190 710 OFFCURVE",
"60 565 OFFCURVE",
"60 335 CURVE SMOOTH",
"60 110 OFFCURVE",
"180 -10 OFFCURVE",
"380 -10 CURVE SMOOTH"
);
}
);
width = 750;
},
{
layerId = "708C77EA-8E11-4C15-94D7-0069457547BC";
paths = (
{
closed = 1;
nodes = (
"544 -12 OFFCURVE",
"647 55 OFFCURVE",
"647 55 CURVE",
"647 259 LINE",
"715 282 LINE",
"715 369 LINE",
"427 364 LINE",
"427 282 LINE",
"502 259 LINE",
"502 133 LINE",
"502 133 OFFCURVE",
"444 115 OFFCURVE",
"392 115 CURVE SMOOTH",
"285 115 OFFCURVE",
"222 185 OFFCURVE",
"222 347 CURVE SMOOTH",
"222 514 OFFCURVE",
"282 592 OFFCURVE",
"389 592 CURVE SMOOTH",
"455 592 OFFCURVE",
"502 576 OFFCURVE",
"502 576 CURVE",
"527 490 LINE",
"620 490 LINE",
"625 670 LINE",
"625 670 OFFCURVE",
"513 717 OFFCURVE",
"392 717 CURVE SMOOTH",
"187 717 OFFCURVE",
"55 577 OFFCURVE",
"55 342 CURVE SMOOTH",
"55 110 OFFCURVE",
"172 -12 OFFCURVE",
"375 -12 CURVE SMOOTH"
);
},
{
closed = 1;
nodes = (
"466 763 OFFCURVE",
"549 823 OFFCURVE",
"551 939 CURVE",
"464 932 LINE",
"458 888 OFFCURVE",
"424 867 OFFCURVE",
"389 867 CURVE SMOOTH",
"356 867 OFFCURVE",
"322 889 OFFCURVE",
"311 941 CURVE",
"224 932 LINE",
"224 818 OFFCURVE",
"302 763 OFFCURVE",
"382 763 CURVE SMOOTH"
);
}
);
width = 750;
}
);
leftKerningGroup = C;
unicode = 011E;
},
{
glyphname = Gcircumflex;
lastChange = "2016-08-22 17:50:02 +0000";
layers = (
{
layerId = UUID0;
paths = (
{
closed = 1;
nodes = (
"240 750 LINE",
"377 843 LINE",
"510 750 LINE",
"550 795 LINE",
"405 920 LINE",
"345 915 LINE",
"200 795 LINE"
);
},
{
closed = 1;
nodes = (
"529 -10 OFFCURVE",
"635 50 OFFCURVE",
"635 50 CURVE",
"635 264 LINE",
"710 284 LINE",
"710 344 LINE",
"450 339 LINE",
"450 284 LINE",
"535 264 LINE",
"535 100 LINE",
"535 100 OFFCURVE",
"465 75 OFFCURVE",
"395 75 CURVE SMOOTH",
"265 75 OFFCURVE",
"175 160 OFFCURVE",
"175 340 CURVE SMOOTH",
"175 525 OFFCURVE",
"250 625 OFFCURVE",
"385 625 CURVE SMOOTH",
"460 625 OFFCURVE",
"520 605 OFFCURVE",
"520 605 CURVE",
"550 495 LINE",
"615 495 LINE",
"620 660 LINE",
"620 660 OFFCURVE",
"505 710 OFFCURVE",
"395 710 CURVE SMOOTH",
"190 710 OFFCURVE",
"60 565 OFFCURVE",
"60 335 CURVE SMOOTH",
"60 110 OFFCURVE",
"180 -10 OFFCURVE",
"380 -10 CURVE SMOOTH"
);
}
);
width = 750;
},
{
layerId = "708C77EA-8E11-4C15-94D7-0069457547BC";
paths = (
{
closed = 1;
nodes = (
"544 -12 OFFCURVE",
"647 55 OFFCURVE",
"647 55 CURVE",
"647 259 LINE",
"715 282 LINE",
"715 369 LINE",
"427 364 LINE",
"427 282 LINE",
"502 259 LINE",
"502 133 LINE",
"502 133 OFFCURVE",
"444 115 OFFCURVE",
"392 115 CURVE SMOOTH",
"285 115 OFFCURVE",
"222 185 OFFCURVE",
"222 347 CURVE SMOOTH",
"222 514 OFFCURVE",
"282 592 OFFCURVE",
"389 592 CURVE SMOOTH",
"455 592 OFFCURVE",
"502 576 OFFCURVE",
"502 576 CURVE",
"527 490 LINE",
"620 490 LINE",
"625 670 LINE",
"625 670 OFFCURVE",
"513 717 OFFCURVE",
"392 717 CURVE SMOOTH",
"187 717 OFFCURVE",
"55 577 OFFCURVE",
"55 342 CURVE SMOOTH",
"55 110 OFFCURVE",
"172 -12 OFFCURVE",
"375 -12 CURVE SMOOTH"
);
},
{
closed = 1;
nodes = (
"221 742 LINE",
"378 840 LINE",
"529 742 LINE",
"577 808 LINE",
"415 947 LINE",
"326 939 LINE",
"173 808 LINE"
);
}
);
width = 750;
}
);
leftKerningGroup = C;
unicode = 011C;
},
{
glyphname = Gcommaaccent;
lastChange = "2016-08-22 17:50:02 +0000";
layers = (
{
layerId = UUID0;
paths = (
{
closed = 1;
nodes = (
"529 -10 OFFCURVE",
"635 50 OFFCURVE",
"635 50 CURVE",
"635 264 LINE",
"710 284 LINE",
"710 344 LINE",
"450 339 LINE",
"450 284 LINE",
"535 264 LINE",
"535 100 LINE",
"535 100 OFFCURVE",
"465 75 OFFCURVE",
"395 75 CURVE SMOOTH",
"265 75 OFFCURVE",
"175 160 OFFCURVE",
"175 340 CURVE SMOOTH",
"175 525 OFFCURVE",
"250 625 OFFCURVE",
"385 625 CURVE SMOOTH",
"460 625 OFFCURVE",
"520 605 OFFCURVE",
"520 605 CURVE",
"550 495 LINE",
"615 495 LINE",
"620 660 LINE",
"620 660 OFFCURVE",
"505 710 OFFCURVE",
"395 710 CURVE SMOOTH",
"190 710 OFFCURVE",
"60 565 OFFCURVE",
"60 335 CURVE SMOOTH",
"60 110 OFFCURVE",
"180 -10 OFFCURVE",
"380 -10 CURVE SMOOTH"
);
},
{
closed = 1;
nodes = (
"300 -140 OFFCURVE",
"320 -160 OFFCURVE",
"320 -175 CURVE SMOOTH",
"320 -195 OFFCURVE",
"270 -245 OFFCURVE",
"270 -245 CURVE",
"310 -285 LINE",
"377 -231 OFFCURVE",
"420 -168 OFFCURVE",
"420 -115 CURVE SMOOTH",
"420 -75 OFFCURVE",
"395 -50 OFFCURVE",
"360 -50 CURVE SMOOTH",
"325 -50 OFFCURVE",
"300 -75 OFFCURVE",
"300 -112 CURVE SMOOTH"
);
}
);
width = 750;
},
{
layerId = "708C77EA-8E11-4C15-94D7-0069457547BC";
paths = (
{
closed = 1;
nodes = (
"544 -12 OFFCURVE",
"647 55 OFFCURVE",
"647 55 CURVE",
"647 259 LINE",
"715 282 LINE",
"715 369 LINE",
"427 364 LINE",
"427 282 LINE",
"502 259 LINE",
"502 133 LINE",
"502 133 OFFCURVE",
"444 115 OFFCURVE",
"392 115 CURVE SMOOTH",
"285 115 OFFCURVE",
"222 185 OFFCURVE",
"222 347 CURVE SMOOTH",
"222 514 OFFCURVE",
"282 592 OFFCURVE",
"389 592 CURVE SMOOTH",
"455 592 OFFCURVE",
"502 576 OFFCURVE",
"502 576 CURVE",
"527 490 LINE",
"620 490 LINE",
"625 670 LINE",
"625 670 OFFCURVE",
"513 717 OFFCURVE",
"392 717 CURVE SMOOTH",
"187 717 OFFCURVE",
"55 577 OFFCURVE",
"55 342 CURVE SMOOTH",
"55 110 OFFCURVE",
"172 -12 OFFCURVE",
"375 -12 CURVE SMOOTH"
);
},
{
closed = 1;
nodes = (
"285 -157 OFFCURVE",
"310 -173 OFFCURVE",
"310 -198 CURVE SMOOTH",
"310 -221 OFFCURVE",
"252 -284 OFFCURVE",
"252 -284 CURVE",
"305 -332 LINE",
"382 -264 OFFCURVE",
"430 -189 OFFCURVE",
"430 -128 CURVE SMOOTH",
"430 -78 OFFCURVE",
"398 -50 OFFCURVE",
"358 -50 CURVE SMOOTH",
"318 -50 OFFCURVE",
"285 -78 OFFCURVE",
"285 -123 CURVE SMOOTH"
);
}
);
width = 750;
}
);
leftKerningGroup = C;
unicode = 0122;
},
{
glyphname = Gdotaccent;
lastChange = "2016-08-22 17:50:02 +0000";
layers = (
{
layerId = UUID0;
paths = (
{
closed = 1;
nodes = (
"326 787 OFFCURVE",
"347 765 OFFCURVE",
"381 765 CURVE SMOOTH",
"411 765 OFFCURVE",
"436 787 OFFCURVE",
"436 825 CURVE SMOOTH",
"436 863 OFFCURVE",
"415 885 OFFCURVE",
"381 885 CURVE SMOOTH",
"351 885 OFFCURVE",
"326 863 OFFCURVE",
"326 825 CURVE SMOOTH"
);
},
{
closed = 1;
nodes = (
"529 -10 OFFCURVE",
"635 50 OFFCURVE",
"635 50 CURVE",
"635 264 LINE",
"710 284 LINE",
"710 344 LINE",
"450 339 LINE",
"450 284 LINE",
"535 264 LINE",
"535 100 LINE",
"535 100 OFFCURVE",
"465 75 OFFCURVE",
"395 75 CURVE SMOOTH",
"265 75 OFFCURVE",
"175 160 OFFCURVE",
"175 340 CURVE SMOOTH",
"175 525 OFFCURVE",
"250 625 OFFCURVE",
"385 625 CURVE SMOOTH",
"460 625 OFFCURVE",
"520 605 OFFCURVE",
"520 605 CURVE",
"550 495 LINE",
"615 495 LINE",
"620 660 LINE",
"620 660 OFFCURVE",
"505 710 OFFCURVE",
"395 710 CURVE SMOOTH",
"190 710 OFFCURVE",
"60 565 OFFCURVE",
"60 335 CURVE SMOOTH",
"60 110 OFFCURVE",
"180 -10 OFFCURVE",
"380 -10 CURVE SMOOTH"
);
}
);
width = 750;
},
{
layerId = "708C77EA-8E11-4C15-94D7-0069457547BC";
paths = (
{
closed = 1;
nodes = (
"544 -12 OFFCURVE",
"647 55 OFFCURVE",
"647 55 CURVE",
"647 259 LINE",
"715 282 LINE",
"715 369 LINE",
"427 364 LINE",
"427 282 LINE",
"502 259 LINE",
"502 133 LINE",
"502 133 OFFCURVE",
"444 115 OFFCURVE",
"392 115 CURVE SMOOTH",
"285 115 OFFCURVE",
"222 185 OFFCURVE",
"222 347 CURVE SMOOTH",
"222 514 OFFCURVE",
"282 592 OFFCURVE",
"389 592 CURVE SMOOTH",
"455 592 OFFCURVE",
"502 576 OFFCURVE",
"502 576 CURVE",
"527 490 LINE",
"620 490 LINE",
"625 670 LINE",
"625 670 OFFCURVE",
"513 717 OFFCURVE",
"392 717 CURVE SMOOTH",
"187 717 OFFCURVE",
"55 577 OFFCURVE",
"55 342 CURVE SMOOTH",
"55 110 OFFCURVE",
"172 -12 OFFCURVE",
"375 -12 CURVE SMOOTH"
);
},
{
closed = 1;
nodes = (
"309 797 OFFCURVE",
"334 769 OFFCURVE",
"381 769 CURVE SMOOTH",
"420 769 OFFCURVE",
"455 797 OFFCURVE",
"455 847 CURVE SMOOTH",
"455 896 OFFCURVE",
"431 925 OFFCURVE",
"383 925 CURVE SMOOTH",
"345 925 OFFCURVE",
"309 896 OFFCURVE",
"309 847 CURVE SMOOTH"
);
}
);
width = 750;
}
);
leftKerningGroup = C;
unicode = 0120;
},
{
glyphname = H;
lastChange = "2016-08-25 08:00:26 +0000";
layers = (
{
layerId = UUID0;
paths = (
{
closed = 1;
nodes = (
"325 0 LINE",
"325 60 LINE",
"230 80 LINE",
"230 320 LINE",
"565 320 LINE",
"565 80 LINE",
"470 60 LINE",
"470 0 LINE",
"755 0 LINE",
"755 60 LINE",
"670 80 LINE",
"670 620 LINE",
"755 640 LINE",
"755 700 LINE",
"470 695 LINE",
"470 640 LINE",
"565 620 LINE",
"565 400 LINE",
"230 400 LINE",
"230 620 LINE",
"325 640 LINE",
"325 700 LINE",
"40 695 LINE",
"40 640 LINE",
"125 620 LINE",
"125 80 LINE",
"40 60 LINE",
"40 0 LINE"
);
}
);
width = 795;
},
{
anchors = (
{
name = bottom;
position = "{399, 0}";
},
{
name = center;
position = "{399, 353}";
},
{
name = top;
position = "{399, 705}";
},
{
name = topleft;
position = "{20, 705}";
}
);
layerId = "708C77EA-8E11-4C15-94D7-0069457547BC";
paths = (
{
closed = 1;
nodes = (
"345 0 LINE",
"345 85 LINE",
"265 115 LINE",
"265 305 LINE",
"533 305 LINE",
"533 115 LINE",
"453 85 LINE",
"453 0 LINE",
"763 0 LINE",
"763 85 LINE",
"688 115 LINE",
"688 585 LINE",
"763 615 LINE",
"763 705 LINE",
"453 700 LINE",
"453 615 LINE",
"533 585 LINE",
"533 425 LINE",
"265 425 LINE",
"265 585 LINE",
"345 615 LINE",
"345 705 LINE",
"35 700 LINE",
"35 615 LINE",
"110 585 LINE",
"110 115 LINE",
"35 85 LINE",
"35 0 LINE"
);
}
);
width = 798;
}
);
unicode = 0048;
},
{
glyphname = Hbar;
lastChange = "2016-08-22 17:50:02 +0000";
layers = (
{
layerId = UUID0;
paths = (
{
closed = 1;
nodes = (
"45 0 LINE",
"330 0 LINE",
"330 60 LINE",
"235 80 LINE",
"235 320 LINE",
"570 320 LINE",
"570 80 LINE",
"475 60 LINE",
"475 0 LINE",
"760 0 LINE",
"760 60 LINE",
"675 80 LINE",
"675 485 LINE",
"760 485 LINE",
"760 560 LINE",
"675 560 LINE",
"675 620 LINE",
"760 640 LINE",
"760 700 LINE",
"475 695 LINE",
"475 640 LINE",
"570 620 LINE",
"570 560 LINE",
"235 560 LINE",
"235 620 LINE",
"330 640 LINE",
"330 700 LINE",
"45 695 LINE",
"45 640 LINE",
"130 620 LINE",
"130 560 LINE",
"45 560 LINE",
"45 485 LINE",
"130 485 LINE",
"130 80 LINE",
"45 60 LINE"
);
},
{
closed = 1;
nodes = (
"235 400 LINE",
"235 485 LINE",
"570 485 LINE",
"570 400 LINE"
);
}
);
width = 805;
},
{
layerId = "708C77EA-8E11-4C15-94D7-0069457547BC";
paths = (
{
closed = 1;
nodes = (
"35 0 LINE",
"342 0 LINE",
"342 85 LINE",
"265 115 LINE",
"265 295 LINE",
"527 295 LINE",
"527 115 LINE",
"450 85 LINE",
"450 0 LINE",
"757 0 LINE",
"757 85 LINE",
"682 115 LINE",
"682 465 LINE",
"757 465 LINE",
"757 555 LINE",
"682 555 LINE",
"682 585 LINE",
"757 615 LINE",
"757 705 LINE",
"450 700 LINE",
"450 617 LINE",
"527 587 LINE",
"527 555 LINE",
"265 555 LINE",
"265 587 LINE",
"342 617 LINE",
"342 705 LINE",
"35 700 LINE",
"35 615 LINE",
"110 585 LINE",
"110 555 LINE",
"35 555 LINE",
"35 465 LINE",
"110 465 LINE",
"110 115 LINE",
"35 85 LINE"
);
},
{
closed = 1;
nodes = (
"265 412 LINE",
"265 465 LINE",
"527 465 LINE",
"527 412 LINE"
);
}
);
width = 792;
}
);
leftKerningGroup = D;
rightKerningGroup = Hbar;
unicode = 0126;
},
{
glyphname = Hcircumflex;
lastChange = "2016-08-22 17:50:02 +0000";
layers = (
{
layerId = UUID0;
paths = (
{
closed = 1;
nodes = (
"262 750 LINE",
"399 843 LINE",
"532 750 LINE",
"572 795 LINE",
"427 920 LINE",
"367 915 LINE",
"222 795 LINE"
);
},
{
closed = 1;
nodes = (
"325 0 LINE",
"325 60 LINE",
"230 80 LINE",
"230 320 LINE",
"565 320 LINE",
"565 80 LINE",
"470 60 LINE",
"470 0 LINE",
"755 0 LINE",
"755 60 LINE",
"670 80 LINE",
"670 620 LINE",
"755 640 LINE",
"755 700 LINE",
"470 695 LINE",
"470 640 LINE",
"565 620 LINE",
"565 400 LINE",
"230 400 LINE",
"230 620 LINE",
"325 640 LINE",
"325 700 LINE",
"40 695 LINE",
"40 640 LINE",
"125 620 LINE",
"125 80 LINE",
"40 60 LINE",
"40 0 LINE"
);
}
);
width = 795;
},
{
layerId = "708C77EA-8E11-4C15-94D7-0069457547BC";
paths = (
{
closed = 1;
nodes = (
"345 0 LINE",
"345 85 LINE",
"265 115 LINE",
"265 305 LINE",
"533 305 LINE",
"533 115 LINE",
"453 85 LINE",
"453 0 LINE",
"763 0 LINE",
"763 85 LINE",
"688 115 LINE",
"688 585 LINE",
"763 615 LINE",
"763 705 LINE",
"453 700 LINE",
"453 615 LINE",
"533 585 LINE",
"533 425 LINE",
"265 425 LINE",
"265 585 LINE",
"345 615 LINE",
"345 705 LINE",
"35 700 LINE",
"35 615 LINE",
"110 585 LINE",
"110 115 LINE",
"35 85 LINE",
"35 0 LINE"
);
},
{
closed = 1;
nodes = (
"249 742 LINE",
"406 840 LINE",
"557 742 LINE",
"605 808 LINE",
"443 947 LINE",
"354 939 LINE",
"201 808 LINE"
);
}
);
width = 798;
}
);
leftKerningGroup = D;
rightKerningGroup = Hbar;
unicode = 0124;
},
{
glyphname = I;
lastChange = "2016-09-12 12:03:45 +0000";
layers = (
{
anchors = (
{
name = bottom;
position = "{183, 0}";
},
{
name = ogonek;
position = "{328, 10}";
},
{
name = top;
position = "{183, 700}";
},
{
name = topleft;
position = "{20, 700}";
}
);
layerId = UUID0;
paths = (
{
closed = 1;
nodes = (
"320 0 LINE",
"320 60 LINE",
"235 80 LINE",
"235 620 LINE",
"320 640 LINE",
"320 700 LINE",
"45 695 LINE",
"45 640 LINE",
"130 620 LINE",
"130 80 LINE",
"45 60 LINE",
"45 0 LINE"
);
}
);
width = 365;
},
{
anchors = (
{
name = bottom;
position = "{193, 0}";
},
{
name = ogonek;
position = "{346, 10}";
},
{
name = top;
position = "{193, 705}";
},
{
name = topleft;
position = "{20, 705}";
}
);
layerId = "708C77EA-8E11-4C15-94D7-0069457547BC";
paths = (
{
closed = 1;
nodes = (
"345 0 LINE",
"345 85 LINE",
"270 115 LINE",
"270 585 LINE",
"345 615 LINE",
"345 705 LINE",
"40 700 LINE",
"40 615 LINE",
"115 585 LINE",
"115 115 LINE",
"40 85 LINE",
"40 0 LINE"
);
}
);
width = 385;
}
);
leftKerningGroup = I;
rightKerningGroup = I;
unicode = 0049;
},
{
glyphname = IJ;
lastChange = "2016-08-22 17:50:02 +0000";
layers = (
{
layerId = UUID0;
paths = (
{
closed = 1;
nodes = (
"320 0 LINE",
"320 60 LINE",
"235 80 LINE",
"235 620 LINE",
"320 640 LINE",
"320 700 LINE",
"45 695 LINE",
"45 640 LINE",
"130 620 LINE",
"130 80 LINE",
"45 60 LINE",
"45 0 LINE"
);
},
{
closed = 1;
nodes = (
"509 -150 OFFCURVE",
"579 -75 OFFCURVE",
"579 45 CURVE SMOOTH",
"579 620 LINE",
"664 640 LINE",
"664 700 LINE",
"384 695 LINE",
"384 640 LINE",
"474 620 LINE",
"474 25 LINE SMOOTH",
"474 -35 OFFCURVE",
"449 -70 OFFCURVE",
"384 -70 CURVE SMOOTH",
"334 -70 LINE",
"325 -145 LINE",
"325 -145 OFFCURVE",
"364 -150 OFFCURVE",
"389 -150 CURVE SMOOTH"
);
}
);
width = 704;
},
{
layerId = "708C77EA-8E11-4C15-94D7-0069457547BC";
paths = (
{
closed = 1;
nodes = (
"345 0 LINE",
"345 85 LINE",
"270 115 LINE",
"270 585 LINE",
"345 615 LINE",
"345 705 LINE",
"40 700 LINE",
"40 615 LINE",
"115 585 LINE",
"115 115 LINE",
"40 85 LINE",
"40 0 LINE"
);
},
{
closed = 1;
nodes = (
"607 -160 OFFCURVE",
"659 -68 OFFCURVE",
"659 106 CURVE SMOOTH",
"659 585 LINE",
"734 615 LINE",
"734 705 LINE",
"424 700 LINE",
"424 615 LINE",
"504 585 LINE",
"504 46 LINE SMOOTH",
"504 -17 OFFCURVE",
"476 -50 OFFCURVE",
"416 -50 CURVE SMOOTH",
"368 -50 LINE",
"355 -153 LINE",
"355 -153 OFFCURVE",
"399 -160 OFFCURVE",
"431 -160 CURVE SMOOTH"
);
}
);
width = 769;
}
);
rightKerningGroup = IJ;
unicode = 0132;
},
{
glyphname = Iacute;
lastChange = "2016-08-22 17:50:02 +0000";
layers = (
{
layerId = UUID0;
paths = (
{
closed = 1;
nodes = (
"330 860 LINE",
"279 933 LINE",
"97 788 LINE",
"135 735 LINE"
);
},
{
closed = 1;
nodes = (
"320 0 LINE",
"320 60 LINE",
"235 80 LINE",
"235 620 LINE",
"320 640 LINE",
"320 700 LINE",
"45 695 LINE",
"45 640 LINE",
"130 620 LINE",
"130 80 LINE",
"45 60 LINE",
"45 0 LINE"
);
}
);
width = 365;
},
{
layerId = "708C77EA-8E11-4C15-94D7-0069457547BC";
paths = (
{
closed = 1;
nodes = (
"345 0 LINE",
"345 85 LINE",
"270 115 LINE",
"270 585 LINE",
"345 615 LINE",
"345 705 LINE",
"40 700 LINE",
"40 615 LINE",
"115 585 LINE",
"115 115 LINE",
"40 85 LINE",
"40 0 LINE"
);
},
{
closed = 1;
nodes = (
"360 847 LINE",
"302 956 LINE",
"87 815 LINE",
"133 735 LINE"
);
}
);
width = 385;
}
);
leftKerningGroup = I;
rightKerningGroup = I;
unicode = 00CD;
},
{
glyphname = Ibreve;
lastChange = "2016-08-22 17:50:02 +0000";
layers = (
{
layerId = UUID0;
paths = (
{
closed = 1;
nodes = (
"249 760 OFFCURVE",
"318 810 OFFCURVE",
"320 910 CURVE",
"260 905 LINE",
"255 862 OFFCURVE",
"220 834 OFFCURVE",
"181 834 CURVE SMOOTH",
"146 834 OFFCURVE",
"111 856 OFFCURVE",
"100 910 CURVE",
"40 905 LINE",
"42 809 OFFCURVE",
"111 760 OFFCURVE",
"179 760 CURVE SMOOTH"
);
},
{
closed = 1;
nodes = (
"315 0 LINE",
"315 60 LINE",
"230 80 LINE",
"230 620 LINE",
"315 640 LINE",
"315 700 LINE",
"40 695 LINE",
"40 640 LINE",
"125 620 LINE",
"125 80 LINE",
"40 60 LINE",
"40 0 LINE"
);
}
);
width = 355;
},
{
layerId = "708C77EA-8E11-4C15-94D7-0069457547BC";
paths = (
{
closed = 1;
nodes = (
"345 0 LINE",
"345 85 LINE",
"270 115 LINE",
"270 585 LINE",
"345 615 LINE",
"345 705 LINE",
"40 700 LINE",
"40 615 LINE",
"115 585 LINE",
"115 115 LINE",
"40 85 LINE",
"40 0 LINE"
);
},
{
closed = 1;
nodes = (
"271 763 OFFCURVE",
"354 823 OFFCURVE",
"356 939 CURVE",
"269 932 LINE",
"263 888 OFFCURVE",
"229 867 OFFCURVE",
"194 867 CURVE SMOOTH",
"161 867 OFFCURVE",
"127 889 OFFCURVE",
"116 941 CURVE",
"29 932 LINE",
"29 818 OFFCURVE",
"107 763 OFFCURVE",
"187 763 CURVE SMOOTH"
);
}
);
width = 385;
}
);
leftKerningGroup = I;
rightKerningGroup = I;
unicode = 012C;
},
{
glyphname = Icircumflex;
lastChange = "2016-08-22 17:50:02 +0000";
layers = (
{
layerId = UUID0;
paths = (
{
closed = 1;
nodes = (
"53 750 LINE",
"190 843 LINE",
"323 750 LINE",
"363 795 LINE",
"218 920 LINE",
"158 915 LINE",
"13 795 LINE"
);
},
{
closed = 1;
nodes = (
"320 0 LINE",
"320 60 LINE",
"235 80 LINE",
"235 620 LINE",
"320 640 LINE",
"320 700 LINE",
"45 695 LINE",
"45 640 LINE",
"130 620 LINE",
"130 80 LINE",
"45 60 LINE",
"45 0 LINE"
);
}
);
width = 365;
},
{
layerId = "708C77EA-8E11-4C15-94D7-0069457547BC";
paths = (
{
closed = 1;
nodes = (
"345 0 LINE",
"345 85 LINE",
"270 115 LINE",
"270 585 LINE",
"345 615 LINE",
"345 705 LINE",
"40 700 LINE",
"40 615 LINE",
"115 585 LINE",
"115 115 LINE",
"40 85 LINE",
"40 0 LINE"
);
},
{
closed = 1;
nodes = (
"33 742 LINE",
"190 840 LINE",
"341 742 LINE",
"389 808 LINE",
"227 947 LINE",
"138 939 LINE",
"-15 808 LINE"
);
}
);
width = 385;
}
);
leftKerningGroup = I;
rightKerningGroup = I;
unicode = 00CE;
},
{
glyphname = Idieresis;
lastChange = "2016-08-22 17:50:02 +0000";
layers = (
{
layerId = UUID0;
paths = (
{
closed = 1;
nodes = (
"20 787 OFFCURVE",
"41 765 OFFCURVE",
"75 765 CURVE SMOOTH",
"105 765 OFFCURVE",
"130 787 OFFCURVE",
"130 825 CURVE SMOOTH",
"130 863 OFFCURVE",
"109 885 OFFCURVE",
"75 885 CURVE SMOOTH",
"45 885 OFFCURVE",
"20 863 OFFCURVE",
"20 825 CURVE SMOOTH"
);
},
{
closed = 1;
nodes = (
"225 787 OFFCURVE",
"246 765 OFFCURVE",
"280 765 CURVE SMOOTH",
"310 765 OFFCURVE",
"335 787 OFFCURVE",
"335 825 CURVE SMOOTH",
"335 863 OFFCURVE",
"314 885 OFFCURVE",
"280 885 CURVE SMOOTH",
"250 885 OFFCURVE",
"225 863 OFFCURVE",
"225 825 CURVE SMOOTH"
);
},
{
closed = 1;
nodes = (
"320 0 LINE",
"320 60 LINE",
"235 80 LINE",
"235 620 LINE",
"320 640 LINE",
"320 700 LINE",
"45 695 LINE",
"45 640 LINE",
"130 620 LINE",
"130 80 LINE",
"45 60 LINE",
"45 0 LINE"
);
}
);
width = 355;
},
{
layerId = "708C77EA-8E11-4C15-94D7-0069457547BC";
paths = (
{
closed = 1;
nodes = (
"26 797 OFFCURVE",
"51 769 OFFCURVE",
"98 769 CURVE SMOOTH",
"137 769 OFFCURVE",
"172 797 OFFCURVE",
"172 847 CURVE SMOOTH",
"172 896 OFFCURVE",
"147 925 OFFCURVE",
"100 925 CURVE SMOOTH",
"61 925 OFFCURVE",
"26 896 OFFCURVE",
"26 847 CURVE SMOOTH"
);
},
{
closed = 1;
nodes = (
"234 797 OFFCURVE",
"259 769 OFFCURVE",
"306 769 CURVE SMOOTH",
"345 769 OFFCURVE",
"380 797 OFFCURVE",
"380 847 CURVE SMOOTH",
"380 896 OFFCURVE",
"356 925 OFFCURVE",
"308 925 CURVE SMOOTH",
"270 925 OFFCURVE",
"234 896 OFFCURVE",
"234 847 CURVE SMOOTH"
);
},
{
closed = 1;
nodes = (
"359 0 LINE",
"359 85 LINE",
"284 115 LINE",
"284 585 LINE",
"359 615 LINE",
"359 705 LINE",
"54 700 LINE",
"54 615 LINE",
"129 585 LINE",
"129 115 LINE",
"54 85 LINE",
"54 0 LINE"
);
}
);
width = 404;
}
);
leftKerningGroup = I;
rightKerningGroup = I;
unicode = 00CF;
},
{
glyphname = Idotaccent;
lastChange = "2016-08-22 17:50:02 +0000";
layers = (
{
layerId = UUID0;
paths = (
{
closed = 1;
nodes = (
"123 787 OFFCURVE",
"144 765 OFFCURVE",
"178 765 CURVE SMOOTH",
"208 765 OFFCURVE",
"233 787 OFFCURVE",
"233 825 CURVE SMOOTH",
"233 863 OFFCURVE",
"212 885 OFFCURVE",
"178 885 CURVE SMOOTH",
"148 885 OFFCURVE",
"123 863 OFFCURVE",
"123 825 CURVE SMOOTH"
);
},
{
closed = 1;
nodes = (
"320 0 LINE",
"320 60 LINE",
"235 80 LINE",
"235 620 LINE",
"320 640 LINE",
"320 700 LINE",
"45 695 LINE",
"45 640 LINE",
"130 620 LINE",
"130 80 LINE",
"45 60 LINE",
"45 0 LINE"
);
}
);
width = 365;
},
{
layerId = "708C77EA-8E11-4C15-94D7-0069457547BC";
paths = (
{
closed = 1;
nodes = (
"345 0 LINE",
"345 85 LINE",
"270 115 LINE",
"270 585 LINE",
"345 615 LINE",
"345 705 LINE",
"40 700 LINE",
"40 615 LINE",
"115 585 LINE",
"115 115 LINE",
"40 85 LINE",
"40 0 LINE"
);
},
{
closed = 1;
nodes = (
"115 797 OFFCURVE",
"140 769 OFFCURVE",
"187 769 CURVE SMOOTH",
"226 769 OFFCURVE",
"261 797 OFFCURVE",
"261 847 CURVE SMOOTH",
"261 896 OFFCURVE",
"237 925 OFFCURVE",
"189 925 CURVE SMOOTH",
"151 925 OFFCURVE",
"115 896 OFFCURVE",
"115 847 CURVE SMOOTH"
);
}
);
width = 385;
}
);
leftKerningGroup = I;
rightKerningGroup = I;
unicode = 0130;
},
{
glyphname = Igrave;
lastChange = "2016-09-12 12:30:33 +0000";
layers = (
{
layerId = UUID0;
paths = (
{
closed = 1;
nodes = (
"25 860 LINE",
"220 735 LINE",
"260 790 LINE",
"75 935 LINE"
);
},
{
closed = 1;
nodes = (
"325 0 LINE",
"325 60 LINE",
"240 80 LINE",
"240 620 LINE",
"325 640 LINE",
"325 700 LINE",
"50 695 LINE",
"50 640 LINE",
"135 620 LINE",
"135 80 LINE",
"50 60 LINE",
"50 0 LINE"
);
}
);
width = 360;
},
{
layerId = "708C77EA-8E11-4C15-94D7-0069457547BC";
paths = (
{
closed = 1;
nodes = (
"345 0 LINE",
"345 85 LINE",
"270 115 LINE",
"270 585 LINE",
"345 615 LINE",
"345 705 LINE",
"40 700 LINE",
"40 615 LINE",
"115 585 LINE",
"115 115 LINE",
"40 85 LINE",
"40 0 LINE"
);
},
{
closed = 1;
nodes = (
"19 847 LINE",
"246 735 LINE",
"292 815 LINE",
"77 956 LINE"
);
}
);
width = 385;
}
);
leftKerningGroup = I;
rightKerningGroup = I;
unicode = 00CC;
},
{
glyphname = Imacron;
lastChange = "2016-08-22 17:50:02 +0000";
layers = (
{
layerId = UUID0;
paths = (
{
closed = 1;
nodes = (
"46 865 LINE",
"46 790 LINE",
"316 790 LINE",
"316 865 LINE"
);
},
{
closed = 1;
nodes = (
"320 0 LINE",
"320 60 LINE",
"235 80 LINE",
"235 620 LINE",
"320 640 LINE",
"320 700 LINE",
"45 695 LINE",
"45 640 LINE",
"130 620 LINE",
"130 80 LINE",
"45 60 LINE",
"45 0 LINE"
);
}
);
width = 365;
},
{
layerId = "708C77EA-8E11-4C15-94D7-0069457547BC";
paths = (
{
closed = 1;
nodes = (
"345 0 LINE",
"345 85 LINE",
"270 115 LINE",
"270 585 LINE",
"345 615 LINE",
"345 705 LINE",
"40 700 LINE",
"40 615 LINE",
"115 585 LINE",
"115 115 LINE",
"40 85 LINE",
"40 0 LINE"
);
},
{
closed = 1;
nodes = (
"43 907 LINE",
"43 802 LINE",
"343 802 LINE",
"343 907 LINE"
);
}
);
width = 385;
}
);
leftKerningGroup = I;
rightKerningGroup = I;
unicode = 012A;
},
{
glyphname = Iogonek;
lastChange = "2016-08-22 17:50:02 +0000";
layers = (
{
layerId = UUID0;
paths = (
{
closed = 1;
nodes = (
"220 -220 OFFCURVE",
"260 -200 OFFCURVE",
"260 -200 CURVE",
"250 -153 LINE",
"250 -153 OFFCURVE",
"225 -160 OFFCURVE",
"205 -160 CURVE SMOOTH",
"180 -160 OFFCURVE",
"160 -145 OFFCURVE",
"160 -115 CURVE SMOOTH",
"160 -62 OFFCURVE",
"250 -20 OFFCURVE",
"315 0 CURVE",
"315 60 LINE",
"230 80 LINE",
"230 620 LINE",
"315 640 LINE",
"315 700 LINE",
"40 695 LINE",
"40 640 LINE",
"125 620 LINE",
"125 80 LINE",
"40 60 LINE",
"40 0 LINE",
"192 0 LINE",
"162 -13 OFFCURVE",
"80 -55 OFFCURVE",
"80 -125 CURVE SMOOTH",
"80 -185 OFFCURVE",
"125 -220 OFFCURVE",
"180 -220 CURVE SMOOTH"
);
}
);
width = 355;
},
{
layerId = "708C77EA-8E11-4C15-94D7-0069457547BC";
paths = (
{
closed = 1;
nodes = (
"249 -235 OFFCURVE",
"296 -210 OFFCURVE",
"296 -210 CURVE",
"279 -140 LINE",
"279 -140 OFFCURVE",
"253 -146 OFFCURVE",
"236 -146 CURVE SMOOTH",
"215 -146 OFFCURVE",
"199 -134 OFFCURVE",
"199 -110 CURVE SMOOTH",
"199 -66 OFFCURVE",
"292 -23 OFFCURVE",
"345 0 CURVE",
"345 85 LINE",
"270 115 LINE",
"270 585 LINE",
"345 615 LINE",
"345 705 LINE",
"40 700 LINE",
"40 615 LINE",
"115 585 LINE",
"115 115 LINE",
"40 85 LINE",
"40 0 LINE",
"200 0 LINE",
"174 -12 OFFCURVE",
"84 -59 OFFCURVE",
"84 -135 CURVE SMOOTH",
"84 -203 OFFCURVE",
"134 -235 OFFCURVE",
"194 -235 CURVE SMOOTH"
);
}
);
width = 375;
}
);
leftKerningGroup = I;
rightKerningGroup = I;
unicode = 012E;
},
{
glyphname = Itilde;
lastChange = "2016-08-22 17:50:02 +0000";
layers = (
{
layerId = UUID0;
paths = (
{
closed = 1;
nodes = (
"29 766 LINE",
"29 766 OFFCURVE",
"60 810 OFFCURVE",
"98 810 CURVE SMOOTH",
"151 810 OFFCURVE",
"190 766 OFFCURVE",
"255 766 CURVE SMOOTH",
"323 766 OFFCURVE",
"360 856 OFFCURVE",
"360 856 CURVE",
"326 886 LINE",
"326 886 OFFCURVE",
"298 844 OFFCURVE",
"262 844 CURVE SMOOTH",
"209 844 OFFCURVE",
"170 890 OFFCURVE",
"105 890 CURVE SMOOTH",
"37 890 OFFCURVE",
"-5 796 OFFCURVE",
"-5 796 CURVE"
);
},
{
closed = 1;
nodes = (
"320 0 LINE",
"320 60 LINE",
"235 80 LINE",
"235 620 LINE",
"320 640 LINE",
"320 700 LINE",
"45 695 LINE",
"45 640 LINE",
"130 620 LINE",
"130 80 LINE",
"45 60 LINE",
"45 0 LINE"
);
}
);
width = 365;
},
{
layerId = "708C77EA-8E11-4C15-94D7-0069457547BC";
paths = (
{
closed = 1;
nodes = (
"25 777 LINE",
"25 777 OFFCURVE",
"55 815 OFFCURVE",
"97 815 CURVE SMOOTH",
"157 815 OFFCURVE",
"195 776 OFFCURVE",
"265 776 CURVE SMOOTH",
"348 776 OFFCURVE",
"400 880 OFFCURVE",
"400 880 CURVE",
"345 922 LINE",
"345 922 OFFCURVE",
"315 880 OFFCURVE",
"276 880 CURVE SMOOTH",
"216 880 OFFCURVE",
"172 926 OFFCURVE",
"102 926 CURVE SMOOTH",
"19 926 OFFCURVE",
"-23 816 OFFCURVE",
"-23 816 CURVE"
);
},
{
closed = 1;
nodes = (
"345 0 LINE",
"345 85 LINE",
"270 115 LINE",
"270 585 LINE",
"345 615 LINE",
"345 705 LINE",
"40 700 LINE",
"40 615 LINE",
"115 585 LINE",
"115 115 LINE",
"40 85 LINE",
"40 0 LINE"
);
}
);
width = 375;
}
);
leftKerningGroup = I;
rightKerningGroup = I;
unicode = 0128;
},
{
glyphname = J;
lastChange = "2016-08-22 17:50:02 +0000";
layers = (
{
layerId = UUID0;
paths = (
{
closed = 1;
nodes = (
"164 -150 OFFCURVE",
"234 -75 OFFCURVE",
"234 45 CURVE SMOOTH",
"234 620 LINE",
"319 640 LINE",
"319 700 LINE",
"39 695 LINE",
"39 640 LINE",
"129 620 LINE",
"129 25 LINE SMOOTH",
"129 -35 OFFCURVE",
"104 -70 OFFCURVE",
"39 -70 CURVE SMOOTH",
"-11 -70 LINE",
"-20 -145 LINE",
"-20 -145 OFFCURVE",
"19 -150 OFFCURVE",
"44 -150 CURVE SMOOTH"
);
}
);
width = 359;
},
{
layerId = "708C77EA-8E11-4C15-94D7-0069457547BC";
paths = (
{
closed = 1;
nodes = (
"222 -160 OFFCURVE",
"274 -68 OFFCURVE",
"274 106 CURVE SMOOTH",
"274 585 LINE",
"349 615 LINE",
"349 705 LINE",
"39 700 LINE",
"39 615 LINE",
"119 585 LINE",
"119 46 LINE SMOOTH",
"119 -17 OFFCURVE",
"91 -50 OFFCURVE",
"31 -50 CURVE SMOOTH",
"-17 -50 LINE",
"-30 -153 LINE",
"-30 -153 OFFCURVE",
"14 -160 OFFCURVE",
"46 -160 CURVE SMOOTH"
);
}
);
width = 384;
}
);
leftKerningGroup = J;
rightKerningGroup = IJ;
unicode = 004A;
},
{
glyphname = Jcircumflex;
lastChange = "2016-08-22 17:50:02 +0000";
layers = (
{
layerId = UUID0;
paths = (
{
closed = 1;
nodes = (
"52 750 LINE",
"182 843 LINE",
"308 750 LINE",
"348 795 LINE",
"210 920 LINE",
"150 915 LINE",
"12 795 LINE"
);
},
{
closed = 1;
nodes = (
"164 -150 OFFCURVE",
"234 -75 OFFCURVE",
"234 45 CURVE SMOOTH",
"234 620 LINE",
"319 640 LINE",
"319 700 LINE",
"39 695 LINE",
"39 640 LINE",
"129 620 LINE",
"129 25 LINE SMOOTH",
"129 -35 OFFCURVE",
"104 -70 OFFCURVE",
"39 -70 CURVE SMOOTH",
"-11 -70 LINE",
"-20 -145 LINE",
"-20 -145 OFFCURVE",
"19 -150 OFFCURVE",
"44 -150 CURVE SMOOTH"
);
}
);
width = 359;
},
{
layerId = "708C77EA-8E11-4C15-94D7-0069457547BC";
paths = (
{
closed = 1;
nodes = (
"48 742 LINE",
"195 840 LINE",
"336 742 LINE",
"384 808 LINE",
"232 947 LINE",
"143 939 LINE",
"0 808 LINE"
);
},
{
closed = 1;
nodes = (
"222 -160 OFFCURVE",
"274 -68 OFFCURVE",
"274 106 CURVE SMOOTH",
"274 585 LINE",
"349 615 LINE",
"349 705 LINE",
"39 700 LINE",
"39 615 LINE",
"119 585 LINE",
"119 46 LINE SMOOTH",
"119 -17 OFFCURVE",
"91 -50 OFFCURVE",
"31 -50 CURVE SMOOTH",
"-17 -50 LINE",
"-30 -153 LINE",
"-30 -153 OFFCURVE",
"14 -160 OFFCURVE",
"46 -160 CURVE SMOOTH"
);
}
);
width = 384;
}
);
leftKerningGroup = J;
rightKerningGroup = IJ;
unicode = 0134;
},
{
glyphname = K;
lastChange = "2016-08-22 17:50:02 +0000";
layers = (
{
layerId = UUID0;
paths = (
{
closed = 1;
nodes = (
"620 80 LINE",
"415 369 LINE",
"574 620 LINE",
"665 640 LINE",
"665 700 LINE",
"393 695 LINE",
"393 640 LINE",
"468 622 LINE",
"327 400 LINE",
"235 400 LINE",
"235 620 LINE",
"320 640 LINE",
"320 700 LINE",
"45 695 LINE",
"45 640 LINE",
"130 620 LINE",
"130 80 LINE",
"45 60 LINE",
"45 0 LINE",
"320 0 LINE",
"320 60 LINE",
"235 80 LINE",
"235 320 LINE",
"336 320 LINE",
"505 80 LINE",
"420 60 LINE",
"420 0 LINE",
"705 0 LINE",
"705 60 LINE"
);
}
);
width = 695;
},
{
layerId = "708C77EA-8E11-4C15-94D7-0069457547BC";
paths = (
{
closed = 1;
nodes = (
"465 595 LINE",
"354 415 LINE",
"265 415 LINE",
"265 587 LINE",
"325 617 LINE",
"325 705 LINE",
"35 700 LINE",
"35 617 LINE",
"110 587 LINE",
"110 115 LINE",
"35 85 LINE",
"35 0 LINE",
"325 0 LINE",
"325 85 LINE",
"265 115 LINE",
"265 305 LINE",
"344 305 LINE",
"474 115 LINE",
"414 85 LINE",
"414 0 LINE",
"729 0 LINE",
"729 85 LINE",
"644 115 LINE",
"455 381 LINE",
"456 357 LINE",
"611 589 LINE",
"701 617 LINE",
"701 705 LINE",
"410 700 LINE",
"410 617 LINE"
);
}
);
width = 719;
}
);
rightKerningGroup = K;
unicode = 004B;
},
{
glyphname = Kcommaaccent;
lastChange = "2016-08-22 17:50:02 +0000";
layers = (
{
layerId = UUID0;
paths = (
{
closed = 1;
nodes = (
"620 80 LINE",
"415 369 LINE",
"574 620 LINE",
"665 640 LINE",
"665 700 LINE",
"393 695 LINE",
"393 640 LINE",
"468 622 LINE",
"327 400 LINE",
"235 400 LINE",
"235 620 LINE",
"320 640 LINE",
"320 700 LINE",
"45 695 LINE",
"45 640 LINE",
"130 620 LINE",
"130 80 LINE",
"45 60 LINE",
"45 0 LINE",
"320 0 LINE",
"320 60 LINE",
"235 80 LINE",
"235 320 LINE",
"336 320 LINE",
"505 80 LINE",
"420 60 LINE",
"420 0 LINE",
"705 0 LINE",
"705 60 LINE"
);
},
{
closed = 1;
nodes = (
"325 -50 OFFCURVE",
"300 -75 OFFCURVE",
"300 -112 CURVE SMOOTH",
"300 -140 OFFCURVE",
"320 -160 OFFCURVE",
"320 -175 CURVE SMOOTH",
"320 -195 OFFCURVE",
"270 -245 OFFCURVE",
"270 -245 CURVE",
"310 -285 LINE",
"377 -231 OFFCURVE",
"420 -168 OFFCURVE",
"420 -115 CURVE SMOOTH",
"420 -75 OFFCURVE",
"395 -50 OFFCURVE",
"360 -50 CURVE SMOOTH"
);
}
);
width = 695;
},
{
layerId = "708C77EA-8E11-4C15-94D7-0069457547BC";
paths = (
{
closed = 1;
nodes = (
"465 595 LINE",
"354 415 LINE",
"265 415 LINE",
"265 587 LINE",
"325 617 LINE",
"325 705 LINE",
"35 700 LINE",
"35 617 LINE",
"110 587 LINE",
"110 115 LINE",
"35 85 LINE",
"35 0 LINE",
"325 0 LINE",
"325 85 LINE",
"265 115 LINE",
"265 305 LINE",
"344 305 LINE",
"474 115 LINE",
"414 85 LINE",
"414 0 LINE",
"729 0 LINE",
"729 85 LINE",
"644 115 LINE",
"455 381 LINE",
"456 357 LINE",
"611 589 LINE",
"701 617 LINE",
"701 705 LINE",
"410 700 LINE",
"410 617 LINE"
);
},
{
closed = 1;
nodes = (
"290 -157 OFFCURVE",
"315 -173 OFFCURVE",
"315 -198 CURVE SMOOTH",
"315 -221 OFFCURVE",
"257 -284 OFFCURVE",
"257 -284 CURVE",
"310 -332 LINE",
"387 -264 OFFCURVE",
"435 -189 OFFCURVE",
"435 -128 CURVE SMOOTH",
"435 -78 OFFCURVE",
"403 -50 OFFCURVE",
"363 -50 CURVE SMOOTH",
"323 -50 OFFCURVE",
"290 -78 OFFCURVE",
"290 -123 CURVE SMOOTH"
);
}
);
width = 719;
}
);
rightKerningGroup = K;
unicode = 0136;
},
{
glyphname = L;
lastChange = "2016-08-22 17:50:02 +0000";
layers = (
{
layerId = UUID0;
paths = (
{
closed = 1;
nodes = (
"225 80 LINE",
"225 620 LINE",
"310 640 LINE",
"310 700 LINE",
"35 695 LINE",
"35 640 LINE",
"120 620 LINE",
"120 80 LINE",
"35 60 LINE",
"35 0 LINE",
"520 0 LINE",
"520 195 LINE",
"450 195 LINE",
"430 80 LINE"
);
}
);
width = 530;
},
{
layerId = "708C77EA-8E11-4C15-94D7-0069457547BC";
paths = (
{
closed = 1;
nodes = (
"260 120 LINE",
"260 585 LINE",
"335 615 LINE",
"335 705 LINE",
"30 700 LINE",
"30 615 LINE",
"105 585 LINE",
"105 115 LINE",
"30 85 LINE",
"30 0 LINE",
"530 0 LINE",
"530 230 LINE",
"435 230 LINE",
"413 120 LINE"
);
}
);
width = 540;
}
);
leftKerningGroup = D;
rightKerningGroup = L;
unicode = 004C;
},
{
glyphname = Lacute;
lastChange = "2016-08-22 17:50:02 +0000";
layers = (
{
layerId = UUID0;
paths = (
{
closed = 1;
nodes = (
"330 860 LINE",
"279 933 LINE",
"97 788 LINE",
"135 735 LINE"
);
},
{
closed = 1;
nodes = (
"225 80 LINE",
"225 620 LINE",
"310 640 LINE",
"310 700 LINE",
"35 695 LINE",
"35 640 LINE",
"120 620 LINE",
"120 80 LINE",
"35 60 LINE",
"35 0 LINE",
"520 0 LINE",
"520 195 LINE",
"450 195 LINE",
"430 80 LINE"
);
}
);
width = 530;
},
{
layerId = "708C77EA-8E11-4C15-94D7-0069457547BC";
paths = (
{
closed = 1;
nodes = (
"260 120 LINE",
"260 585 LINE",
"335 615 LINE",
"335 705 LINE",
"30 700 LINE",
"30 615 LINE",
"105 585 LINE",
"105 115 LINE",
"30 85 LINE",
"30 0 LINE",
"530 0 LINE",
"530 230 LINE",
"435 230 LINE",
"413 120 LINE"
);
},
{
closed = 1;
nodes = (
"368 847 LINE",
"310 956 LINE",
"95 815 LINE",
"141 735 LINE"
);
}
);
width = 540;
}
);
leftKerningGroup = D;
rightKerningGroup = L;
unicode = 0139;
},
{
glyphname = Lcaron;
lastChange = "2016-08-22 17:50:02 +0000";
layers = (
{
layerId = UUID0;
paths = (
{
closed = 1;
nodes = (
"225 80 LINE",
"225 620 LINE",
"310 640 LINE",
"310 700 LINE",
"35 695 LINE",
"35 640 LINE",
"120 620 LINE",
"120 80 LINE",
"35 60 LINE",
"35 0 LINE",
"520 0 LINE",
"520 195 LINE",
"450 195 LINE",
"430 80 LINE"
);
},
{
closed = 1;
nodes = (
"425 465 LINE",
"472 561 OFFCURVE",
"505 640 OFFCURVE",
"505 700 CURVE",
"407 695 LINE",
"410 635 OFFCURVE",
"396 574 OFFCURVE",
"365 485 CURVE"
);
}
);
width = 530;
},
{
layerId = "708C77EA-8E11-4C15-94D7-0069457547BC";
paths = (
{
closed = 1;
nodes = (
"451 420 LINE",
"503 524 OFFCURVE",
"534 630 OFFCURVE",
"535 705 CURVE",
"404 700 LINE",
"407 626 OFFCURVE",
"399 546 OFFCURVE",
"371 448 CURVE"
);
},
{
closed = 1;
nodes = (
"260 120 LINE",
"260 585 LINE",
"335 615 LINE",
"335 705 LINE",
"30 700 LINE",
"30 615 LINE",
"105 585 LINE",
"105 115 LINE",
"30 85 LINE",
"30 0 LINE",
"530 0 LINE",
"530 230 LINE",
"435 230 LINE",
"413 120 LINE"
);
}
);
width = 545;
}
);
leftKerningGroup = D;
unicode = 013D;
},
{
glyphname = Lcommaaccent;
lastChange = "2016-08-22 17:50:02 +0000";
layers = (
{
layerId = UUID0;
paths = (
{
closed = 1;
nodes = (
"225 80 LINE",
"225 620 LINE",
"310 640 LINE",
"310 700 LINE",
"35 695 LINE",
"35 640 LINE",
"120 620 LINE",
"120 80 LINE",
"35 60 LINE",
"35 0 LINE",
"520 0 LINE",
"520 195 LINE",
"450 195 LINE",
"430 80 LINE"
);
},
{
closed = 1;
nodes = (
"225 -140 OFFCURVE",
"245 -160 OFFCURVE",
"245 -175 CURVE SMOOTH",
"245 -195 OFFCURVE",
"195 -245 OFFCURVE",
"195 -245 CURVE",
"235 -285 LINE",
"302 -231 OFFCURVE",
"345 -168 OFFCURVE",
"345 -115 CURVE SMOOTH",
"345 -75 OFFCURVE",
"320 -50 OFFCURVE",
"285 -50 CURVE SMOOTH",
"250 -50 OFFCURVE",
"225 -75 OFFCURVE",
"225 -112 CURVE SMOOTH"
);
}
);
width = 530;
},
{
layerId = "708C77EA-8E11-4C15-94D7-0069457547BC";
paths = (
{
closed = 1;
nodes = (
"260 120 LINE",
"260 585 LINE",
"335 615 LINE",
"335 705 LINE",
"30 700 LINE",
"30 615 LINE",
"105 585 LINE",
"105 115 LINE",
"30 85 LINE",
"30 0 LINE",
"530 0 LINE",
"530 230 LINE",
"435 230 LINE",
"413 120 LINE"
);
},
{
closed = 1;
nodes = (
"215 -157 OFFCURVE",
"240 -173 OFFCURVE",
"240 -198 CURVE SMOOTH",
"240 -221 OFFCURVE",
"182 -284 OFFCURVE",
"182 -284 CURVE",
"235 -332 LINE",
"312 -264 OFFCURVE",
"360 -189 OFFCURVE",
"360 -128 CURVE SMOOTH",
"360 -78 OFFCURVE",
"328 -50 OFFCURVE",
"288 -50 CURVE SMOOTH",
"248 -50 OFFCURVE",
"215 -78 OFFCURVE",
"215 -123 CURVE SMOOTH"
);
}
);
width = 540;
}
);
leftKerningGroup = D;
rightKerningGroup = L;
unicode = 013B;
},
{
glyphname = Ldot;
lastChange = "2016-08-22 17:50:02 +0000";
layers = (
{
layerId = UUID0;
paths = (
{
closed = 1;
nodes = (
"225 80 LINE",
"225 620 LINE",
"310 640 LINE",
"310 700 LINE",
"35 695 LINE",
"35 640 LINE",
"120 620 LINE",
"120 80 LINE",
"35 60 LINE",
"35 0 LINE",
"520 0 LINE",
"520 195 LINE",
"450 195 LINE",
"430 80 LINE"
);
},
{
closed = 1;
nodes = (
"305 313 OFFCURVE",
"330 288 OFFCURVE",
"372 288 CURVE SMOOTH",
"409 288 OFFCURVE",
"439 313 OFFCURVE",
"439 360 CURVE SMOOTH",
"439 407 OFFCURVE",
"414 432 OFFCURVE",
"372 432 CURVE SMOOTH",
"335 432 OFFCURVE",
"305 407 OFFCURVE",
"305 360 CURVE SMOOTH"
);
}
);
width = 530;
},
{
layerId = "708C77EA-8E11-4C15-94D7-0069457547BC";
paths = (
{
closed = 1;
nodes = (
"260 120 LINE",
"260 585 LINE",
"335 615 LINE",
"335 705 LINE",
"30 700 LINE",
"30 615 LINE",
"105 585 LINE",
"105 115 LINE",
"30 85 LINE",
"30 0 LINE",
"530 0 LINE",
"530 230 LINE",
"435 230 LINE",
"413 120 LINE"
);
},
{
closed = 1;
nodes = (
"323 315 OFFCURVE",
"352 283 OFFCURVE",
"410 283 CURVE SMOOTH",
"461 283 OFFCURVE",
"499 315 OFFCURVE",
"499 376 CURVE SMOOTH",
"499 437 OFFCURVE",
"471 470 OFFCURVE",
"413 470 CURVE SMOOTH",
"362 470 OFFCURVE",
"323 437 OFFCURVE",
"323 376 CURVE SMOOTH"
);
}
);
width = 540;
}
);
leftKerningGroup = D;
rightKerningGroup = L;
unicode = 013F;
},
{
glyphname = Lslash;
lastChange = "2016-08-22 17:50:02 +0000";
layers = (
{
layerId = UUID0;
paths = (
{
closed = 1;
nodes = (
"240 402 LINE",
"240 620 LINE",
"325 640 LINE",
"325 700 LINE",
"50 695 LINE",
"50 640 LINE",
"135 620 LINE",
"135 358 LINE",
"30 308 LINE",
"51 233 LINE",
"135 273 LINE",
"135 80 LINE",
"50 60 LINE",
"50 0 LINE",
"535 0 LINE",
"535 195 LINE",
"465 195 LINE",
"445 80 LINE",
"240 80 LINE",
"240 317 LINE",
"406 397 LINE",
"385 472 LINE"
);
}
);
width = 546;
},
{
layerId = "708C77EA-8E11-4C15-94D7-0069457547BC";
paths = (
{
closed = 1;
nodes = (
"284 438 LINE",
"284 585 LINE",
"359 615 LINE",
"359 705 LINE",
"54 700 LINE",
"54 615 LINE",
"129 585 LINE",
"129 375 LINE",
"20 327 LINE",
"52 220 LINE",
"129 254 LINE",
"129 115 LINE",
"54 85 LINE",
"54 0 LINE",
"554 0 LINE",
"554 230 LINE",
"459 230 LINE",
"437 120 LINE",
"284 120 LINE",
"284 317 LINE",
"453 392 LINE",
"421 499 LINE"
);
}
);
width = 564;
}
);
leftKerningGroup = D;
rightKerningGroup = L;
unicode = 0141;
},
{
glyphname = M;
lastChange = "2016-08-22 17:50:02 +0000";
layers = (
{
layerId = UUID0;
paths = (
{
closed = 1;
nodes = (
"40 0 LINE",
"310 0 LINE",
"310 60 LINE",
"215 80 LINE",
"215 580 LINE",
"240 510 LINE",
"395 185 LINE",
"475 190 LINE",
"630 505 LINE",
"660 580 LINE",
"660 80 LINE",
"565 60 LINE",
"565 0 LINE",
"845 0 LINE",
"845 60 LINE",
"760 80 LINE",
"760 620 LINE",
"845 640 LINE",
"845 700 LINE",
"635 695 LINE",
"446 300 LINE",
"265 700 LINE",
"40 695 LINE",
"40 640 LINE",
"125 620 LINE",
"125 80 LINE",
"40 60 LINE"
);
}
);
width = 885;
},
{
layerId = "708C77EA-8E11-4C15-94D7-0069457547BC";
paths = (
{
closed = 1;
nodes = (
"35 0 LINE",
"320 0 LINE",
"320 85 LINE",
"243 115 LINE",
"243 474 LINE",
"260 422 LINE",
"375 185 LINE",
"483 190 LINE",
"596 425 LINE",
"623 491 LINE",
"623 115 LINE",
"545 85 LINE",
"545 0 LINE",
"843 0 LINE",
"843 85 LINE",
"768 115 LINE",
"768 585 LINE",
"840 615 LINE",
"840 705 LINE",
"600 700 LINE",
"443 372 LINE",
"293 705 LINE",
"35 700 LINE",
"35 615 LINE",
"110 585 LINE",
"110 115 LINE",
"35 85 LINE"
);
}
);
width = 878;
}
);
leftKerningGroup = D;
rightKerningGroup = Hbar;
unicode = 004D;
},
{
glyphname = N;
lastChange = "2016-08-22 17:50:02 +0000";
layers = (
{
layerId = UUID0;
paths = (
{
closed = 1;
nodes = (
"40 0 LINE",
"310 0 LINE",
"310 60 LINE",
"215 80 LINE",
"215 551 LINE",
"545 0 LINE",
"670 0 LINE",
"670 620 LINE",
"755 640 LINE",
"755 700 LINE",
"495 695 LINE",
"495 640 LINE",
"580 620 LINE",
"580 141 LINE",
"250 700 LINE",
"40 695 LINE",
"40 640 LINE",
"125 620 LINE",
"125 80 LINE",
"40 60 LINE"
);
}
);
width = 790;
},
{
layerId = "708C77EA-8E11-4C15-94D7-0069457547BC";
paths = (
{
closed = 1;
nodes = (
"35 0 LINE",
"325 0 LINE",
"325 85 LINE",
"247 115 LINE",
"247 453 LINE",
"515 0 LINE",
"682 0 LINE",
"682 585 LINE",
"757 615 LINE",
"757 705 LINE",
"472 700 LINE",
"472 615 LINE",
"545 585 LINE",
"545 243 LINE",
"275 705 LINE",
"35 700 LINE",
"35 615 LINE",
"110 585 LINE",
"110 115 LINE",
"35 85 LINE"
);
}
);
width = 787;
}
);
leftKerningGroup = D;
rightKerningGroup = Hbar;
unicode = 004E;
},
{
glyphname = Nacute;
lastChange = "2016-08-22 17:50:02 +0000";
layers = (
{
layerId = UUID0;
paths = (
{
closed = 1;
nodes = (
"540 860 LINE",
"489 933 LINE",
"307 788 LINE",
"345 735 LINE"
);
},
{
closed = 1;
nodes = (
"40 0 LINE",
"310 0 LINE",
"310 60 LINE",
"215 80 LINE",
"215 551 LINE",
"545 0 LINE",
"670 0 LINE",
"670 620 LINE",
"755 640 LINE",
"755 700 LINE",
"495 695 LINE",
"495 640 LINE",
"580 620 LINE",
"580 141 LINE",
"250 700 LINE",
"40 695 LINE",
"40 640 LINE",
"125 620 LINE",
"125 80 LINE",
"40 60 LINE"
);
}
);
width = 790;
},
{
layerId = "708C77EA-8E11-4C15-94D7-0069457547BC";
paths = (
{
closed = 1;
nodes = (
"35 0 LINE",
"325 0 LINE",
"325 85 LINE",
"247 115 LINE",
"247 453 LINE",
"515 0 LINE",
"682 0 LINE",
"682 585 LINE",
"757 615 LINE",
"757 705 LINE",
"472 700 LINE",
"472 615 LINE",
"545 585 LINE",
"545 243 LINE",
"275 705 LINE",
"35 700 LINE",
"35 615 LINE",
"110 585 LINE",
"110 115 LINE",
"35 85 LINE"
);
},
{
closed = 1;
nodes = (
"578 847 LINE",
"520 956 LINE",
"305 815 LINE",
"351 735 LINE"
);
}
);
width = 787;
}
);
leftKerningGroup = D;
rightKerningGroup = Hbar;
unicode = 0143;
},
{
glyphname = Ncaron;
lastChange = "2016-08-22 17:50:02 +0000";
layers = (
{
layerId = UUID0;
paths = (
{
closed = 1;
nodes = (
"370 750 LINE",
"430 755 LINE",
"575 875 LINE",
"535 920 LINE",
"398 827 LINE",
"265 920 LINE",
"225 875 LINE"
);
},
{
closed = 1;
nodes = (
"40 0 LINE",
"310 0 LINE",
"310 60 LINE",
"215 80 LINE",
"215 551 LINE",
"545 0 LINE",
"670 0 LINE",
"670 620 LINE",
"755 640 LINE",
"755 700 LINE",
"495 695 LINE",
"495 640 LINE",
"580 620 LINE",
"580 141 LINE",
"250 700 LINE",
"40 695 LINE",
"40 640 LINE",
"125 620 LINE",
"125 80 LINE",
"40 60 LINE"
);
}
);
width = 790;
},
{
layerId = "708C77EA-8E11-4C15-94D7-0069457547BC";
paths = (
{
closed = 1;
nodes = (
"35 0 LINE",
"325 0 LINE",
"325 85 LINE",
"247 115 LINE",
"247 453 LINE",
"515 0 LINE",
"682 0 LINE",
"682 585 LINE",
"757 615 LINE",
"757 705 LINE",
"472 700 LINE",
"472 615 LINE",
"545 585 LINE",
"545 243 LINE",
"275 705 LINE",
"35 700 LINE",
"35 615 LINE",
"110 585 LINE",
"110 115 LINE",
"35 85 LINE"
);
},
{
closed = 1;
nodes = (
"355 750 LINE",
"444 757 LINE",
"587 897 LINE",
"537 957 LINE",
"398 851 LINE",
"257 957 LINE",
"202 897 LINE"
);
}
);
width = 787;
}
);
leftKerningGroup = D;
rightKerningGroup = Hbar;
unicode = 0147;
},
{
glyphname = Ncommaaccent;
lastChange = "2016-08-22 17:50:02 +0000";
layers = (
{
layerId = UUID0;
paths = (
{
closed = 1;
nodes = (
"40 0 LINE",
"310 0 LINE",
"310 60 LINE",
"215 80 LINE",
"215 551 LINE",
"545 0 LINE",
"670 0 LINE",
"670 620 LINE",
"755 640 LINE",
"755 700 LINE",
"495 695 LINE",
"495 640 LINE",
"580 620 LINE",
"580 141 LINE",
"250 700 LINE",
"40 695 LINE",
"40 640 LINE",
"125 620 LINE",
"125 80 LINE",
"40 60 LINE"
);
},
{
closed = 1;
nodes = (
"335 -140 OFFCURVE",
"355 -160 OFFCURVE",
"355 -175 CURVE SMOOTH",
"355 -195 OFFCURVE",
"305 -245 OFFCURVE",
"305 -245 CURVE",
"345 -285 LINE",
"412 -231 OFFCURVE",
"455 -168 OFFCURVE",
"455 -115 CURVE SMOOTH",
"455 -75 OFFCURVE",
"430 -50 OFFCURVE",
"395 -50 CURVE SMOOTH",
"360 -50 OFFCURVE",
"335 -75 OFFCURVE",
"335 -112 CURVE SMOOTH"
);
}
);
width = 790;
},
{
layerId = "708C77EA-8E11-4C15-94D7-0069457547BC";
paths = (
{
closed = 1;
nodes = (
"35 0 LINE",
"325 0 LINE",
"325 85 LINE",
"247 115 LINE",
"247 453 LINE",
"515 0 LINE",
"682 0 LINE",
"682 585 LINE",
"757 615 LINE",
"757 705 LINE",
"472 700 LINE",
"472 615 LINE",
"545 585 LINE",
"545 243 LINE",
"275 705 LINE",
"35 700 LINE",
"35 615 LINE",
"110 585 LINE",
"110 115 LINE",
"35 85 LINE"
);
},
{
closed = 1;
nodes = (
"320 -157 OFFCURVE",
"345 -173 OFFCURVE",
"345 -198 CURVE SMOOTH",
"345 -221 OFFCURVE",
"287 -284 OFFCURVE",
"287 -284 CURVE",
"340 -332 LINE",
"417 -264 OFFCURVE",
"465 -189 OFFCURVE",
"465 -128 CURVE SMOOTH",
"465 -78 OFFCURVE",
"433 -50 OFFCURVE",
"393 -50 CURVE SMOOTH",
"353 -50 OFFCURVE",
"320 -78 OFFCURVE",
"320 -123 CURVE SMOOTH"
);
}
);
width = 787;
}
);
leftKerningGroup = D;
rightKerningGroup = Hbar;
unicode = 0145;
},
{
glyphname = Eng;
lastChange = "2016-08-22 17:50:02 +0000";
layers = (
{
layerId = UUID0;
paths = (
{
closed = 1;
nodes = (
"599 -150 OFFCURVE",
"670 -75 OFFCURVE",
"670 34 CURVE SMOOTH",
"670 620 LINE",
"755 640 LINE",
"755 700 LINE",
"495 695 LINE",
"495 640 LINE",
"580 620 LINE",
"580 141 LINE",
"250 700 LINE",
"40 695 LINE",
"40 640 LINE",
"125 620 LINE",
"125 80 LINE",
"40 60 LINE",
"40 0 LINE",
"310 0 LINE",
"310 60 LINE",
"215 80 LINE",
"215 551 LINE",
"561 -10 LINE",
"553 -50 OFFCURVE",
"527 -70 OFFCURVE",
"474 -70 CURVE SMOOTH",
"424 -70 LINE",
"415 -145 LINE",
"415 -145 OFFCURVE",
"454 -150 OFFCURVE",
"479 -150 CURVE SMOOTH"
);
}
);
width = 795;
},
{
layerId = "708C77EA-8E11-4C15-94D7-0069457547BC";
paths = (
{
closed = 1;
nodes = (
"630 -157 OFFCURVE",
"682 -68 OFFCURVE",
"682 106 CURVE SMOOTH",
"682 585 LINE",
"757 615 LINE",
"757 705 LINE",
"472 700 LINE",
"472 615 LINE",
"545 585 LINE",
"545 236 LINE",
"275 705 LINE",
"35 700 LINE",
"35 615 LINE",
"110 585 LINE",
"110 115 LINE",
"35 85 LINE",
"35 0 LINE",
"325 0 LINE",
"325 85 LINE",
"247 115 LINE",
"247 453 LINE",
"534 -13 LINE",
"520 -38 OFFCURVE",
"493 -50 OFFCURVE",
"446 -50 CURVE SMOOTH",
"391 -50 LINE",
"378 -150 LINE",
"378 -150 OFFCURVE",
"422 -157 OFFCURVE",
"454 -157 CURVE SMOOTH"
);
}
);
width = 792;
}
);
leftKerningGroup = D;
rightKerningGroup = IJ;
unicode = 014A;
},
{
glyphname = Ntilde;
lastChange = "2016-08-22 17:50:02 +0000";
layers = (
{
layerId = UUID0;
paths = (
{
closed = 1;
nodes = (
"230 766 LINE",
"230 766 OFFCURVE",
"260 810 OFFCURVE",
"300 810 CURVE SMOOTH",
"360 810 OFFCURVE",
"405 766 OFFCURVE",
"475 766 CURVE SMOOTH",
"545 766 OFFCURVE",
"580 856 OFFCURVE",
"580 856 CURVE",
"545 886 LINE",
"545 886 OFFCURVE",
"520 844 OFFCURVE",
"480 844 CURVE SMOOTH",
"420 844 OFFCURVE",
"375 890 OFFCURVE",
"305 890 CURVE SMOOTH",
"235 890 OFFCURVE",
"195 796 OFFCURVE",
"195 796 CURVE"
);
},
{
closed = 1;
nodes = (
"40 0 LINE",
"310 0 LINE",
"310 60 LINE",
"215 80 LINE",
"215 551 LINE",
"545 0 LINE",
"670 0 LINE",
"670 620 LINE",
"755 640 LINE",
"755 700 LINE",
"495 695 LINE",
"495 640 LINE",
"580 620 LINE",
"580 141 LINE",
"250 700 LINE",
"40 695 LINE",
"40 640 LINE",
"125 620 LINE",
"125 80 LINE",
"40 60 LINE"
);
}
);
width = 790;
},
{
layerId = "708C77EA-8E11-4C15-94D7-0069457547BC";
paths = (
{
closed = 1;
nodes = (
"230 777 LINE",
"230 777 OFFCURVE",
"260 815 OFFCURVE",
"302 815 CURVE SMOOTH",
"362 815 OFFCURVE",
"400 776 OFFCURVE",
"470 776 CURVE SMOOTH",
"553 776 OFFCURVE",
"605 880 OFFCURVE",
"605 880 CURVE",
"550 922 LINE",
"550 922 OFFCURVE",
"520 880 OFFCURVE",
"481 880 CURVE SMOOTH",
"421 880 OFFCURVE",
"377 926 OFFCURVE",
"307 926 CURVE SMOOTH",
"224 926 OFFCURVE",
"182 816 OFFCURVE",
"182 816 CURVE"
);
},
{
closed = 1;
nodes = (
"35 0 LINE",
"325 0 LINE",
"325 85 LINE",
"247 115 LINE",
"247 453 LINE",
"515 0 LINE",
"682 0 LINE",
"682 585 LINE",
"757 615 LINE",
"757 705 LINE",
"472 700 LINE",
"472 615 LINE",
"545 585 LINE",
"545 243 LINE",
"275 705 LINE",
"35 700 LINE",
"35 615 LINE",
"110 585 LINE",
"110 115 LINE",
"35 85 LINE"
);
}
);
width = 785;
}
);
unicode = 00D1;
},
{
glyphname = O;
lastChange = "2016-09-12 12:23:29 +0000";
layers = (
{
anchors = (
{
name = bottom;
position = "{378, 0}";
},
{
name = center;
position = "{378, 350}";
},
{
name = ogonek;
position = "{679, 10}";
},
{
name = top;
position = "{378, 700}";
},
{
name = topleft;
position = "{20, 700}";
},
{
name = topright;
position = "{546, 700}";
}
);
layerId = UUID0;
paths = (
{
closed = 1;
nodes = (
"185 710 OFFCURVE",
"60 565 OFFCURVE",
"60 345 CURVE SMOOTH",
"60 115 OFFCURVE",
"170 -10 OFFCURVE",
"365 -10 CURVE SMOOTH",
"560 -10 OFFCURVE",
"695 140 OFFCURVE",
"695 360 CURVE SMOOTH",
"695 575 OFFCURVE",
"580 710 OFFCURVE",
"385 710 CURVE SMOOTH"
);
},
{
closed = 1;
nodes = (
"510 625 OFFCURVE",
"580 535 OFFCURVE",
"580 355 CURVE SMOOTH",
"580 165 OFFCURVE",
"500 75 OFFCURVE",
"370 75 CURVE SMOOTH",
"240 75 OFFCURVE",
"175 170 OFFCURVE",
"175 350 CURVE SMOOTH",
"175 540 OFFCURVE",
"250 625 OFFCURVE",
"380 625 CURVE SMOOTH"
);
}
);
width = 755;
},
{
anchors = (
{
name = bottom;
position = "{378, 0}";
},
{
name = center;
position = "{378, 353}";
},
{
name = ogonek;
position = "{679, 10}";
},
{
name = top;
position = "{378, 705}";
},
{
name = topleft;
position = "{20, 705}";
},
{
name = topright;
position = "{566, 705}";
}
);
layerId = "708C77EA-8E11-4C15-94D7-0069457547BC";
paths = (
{
closed = 1;
nodes = (
"182 717 OFFCURVE",
"55 577 OFFCURVE",
"55 347 CURVE SMOOTH",
"55 112 OFFCURVE",
"165 -13 OFFCURVE",
"365 -13 CURVE SMOOTH",
"565 -13 OFFCURVE",
"700 137 OFFCURVE",
"700 362 CURVE SMOOTH",
"700 585 OFFCURVE",
"585 717 OFFCURVE",
"385 717 CURVE SMOOTH"
);
},
{
closed = 1;
nodes = (
"480 592 OFFCURVE",
"530 522 OFFCURVE",
"530 357 CURVE SMOOTH",
"530 177 OFFCURVE",
"470 112 OFFCURVE",
"370 112 CURVE SMOOTH",
"270 112 OFFCURVE",
"225 187 OFFCURVE",
"225 352 CURVE SMOOTH",
"225 530 OFFCURVE",
"280 592 OFFCURVE",
"380 592 CURVE SMOOTH"
);
}
);
width = 755;
}
);
leftKerningGroup = C;
rightKerningGroup = D;
unicode = 004F;
},
{
glyphname = Oacute;
lastChange = "2016-08-22 17:50:02 +0000";
layers = (
{
layerId = UUID0;
paths = (
{
closed = 1;
nodes = (
"510 860 LINE",
"459 933 LINE",
"277 788 LINE",
"315 735 LINE"
);
},
{
closed = 1;
nodes = (
"185 710 OFFCURVE",
"60 565 OFFCURVE",
"60 345 CURVE SMOOTH",
"60 115 OFFCURVE",
"170 -10 OFFCURVE",
"365 -10 CURVE SMOOTH",
"560 -10 OFFCURVE",
"695 140 OFFCURVE",
"695 360 CURVE SMOOTH",
"695 575 OFFCURVE",
"580 710 OFFCURVE",
"385 710 CURVE SMOOTH"
);
},
{
closed = 1;
nodes = (
"510 625 OFFCURVE",
"580 535 OFFCURVE",
"580 355 CURVE SMOOTH",
"580 165 OFFCURVE",
"500 75 OFFCURVE",
"370 75 CURVE SMOOTH",
"240 75 OFFCURVE",
"175 170 OFFCURVE",
"175 350 CURVE SMOOTH",
"175 540 OFFCURVE",
"250 625 OFFCURVE",
"380 625 CURVE SMOOTH"
);
}
);
width = 755;
},
{
layerId = "708C77EA-8E11-4C15-94D7-0069457547BC";
paths = (
{
closed = 1;
nodes = (
"182 717 OFFCURVE",
"55 577 OFFCURVE",
"55 347 CURVE SMOOTH",
"55 112 OFFCURVE",
"165 -13 OFFCURVE",
"365 -13 CURVE SMOOTH",
"565 -13 OFFCURVE",
"700 137 OFFCURVE",
"700 362 CURVE SMOOTH",
"700 585 OFFCURVE",
"585 717 OFFCURVE",
"385 717 CURVE SMOOTH"
);
},
{
closed = 1;
nodes = (
"480 592 OFFCURVE",
"530 522 OFFCURVE",
"530 357 CURVE SMOOTH",
"530 177 OFFCURVE",
"470 112 OFFCURVE",
"370 112 CURVE SMOOTH",
"270 112 OFFCURVE",
"225 187 OFFCURVE",
"225 352 CURVE SMOOTH",
"225 530 OFFCURVE",
"280 592 OFFCURVE",
"380 592 CURVE SMOOTH"
);
},
{
closed = 1;
nodes = (
"538 847 LINE",
"480 956 LINE",
"265 815 LINE",
"311 735 LINE"
);
}
);
width = 755;
}
);
leftKerningGroup = C;
rightKerningGroup = D;
unicode = 00D3;
},
{
glyphname = Obreve;
lastChange = "2016-08-22 17:50:02 +0000";
layers = (
{
layerId = UUID0;
paths = (
{
closed = 1;
nodes = (
"448 760 OFFCURVE",
"517 810 OFFCURVE",
"519 910 CURVE",
"459 905 LINE",
"454 862 OFFCURVE",
"419 834 OFFCURVE",
"380 834 CURVE SMOOTH",
"345 834 OFFCURVE",
"310 856 OFFCURVE",
"299 910 CURVE",
"239 905 LINE",
"241 809 OFFCURVE",
"310 760 OFFCURVE",
"378 760 CURVE SMOOTH"
);
},
{
closed = 1;
nodes = (
"185 710 OFFCURVE",
"60 565 OFFCURVE",
"60 345 CURVE SMOOTH",
"60 115 OFFCURVE",
"170 -10 OFFCURVE",
"365 -10 CURVE SMOOTH",
"560 -10 OFFCURVE",
"695 140 OFFCURVE",
"695 360 CURVE SMOOTH",
"695 575 OFFCURVE",
"580 710 OFFCURVE",
"385 710 CURVE SMOOTH"
);
},
{
closed = 1;
nodes = (
"510 625 OFFCURVE",
"580 535 OFFCURVE",
"580 355 CURVE SMOOTH",
"580 165 OFFCURVE",
"500 75 OFFCURVE",
"370 75 CURVE SMOOTH",
"240 75 OFFCURVE",
"175 170 OFFCURVE",
"175 350 CURVE SMOOTH",
"175 540 OFFCURVE",
"250 625 OFFCURVE",
"380 625 CURVE SMOOTH"
);
}
);
width = 755;
},
{
layerId = "708C77EA-8E11-4C15-94D7-0069457547BC";
paths = (
{
closed = 1;
nodes = (
"182 717 OFFCURVE",
"55 577 OFFCURVE",
"55 347 CURVE SMOOTH",
"55 112 OFFCURVE",
"165 -13 OFFCURVE",
"365 -13 CURVE SMOOTH",
"565 -13 OFFCURVE",
"700 137 OFFCURVE",
"700 362 CURVE SMOOTH",
"700 585 OFFCURVE",
"585 717 OFFCURVE",
"385 717 CURVE SMOOTH"
);
},
{
closed = 1;
nodes = (
"480 592 OFFCURVE",
"530 522 OFFCURVE",
"530 357 CURVE SMOOTH",
"530 177 OFFCURVE",
"470 112 OFFCURVE",
"370 112 CURVE SMOOTH",
"270 112 OFFCURVE",
"225 187 OFFCURVE",
"225 352 CURVE SMOOTH",
"225 530 OFFCURVE",
"280 592 OFFCURVE",
"380 592 CURVE SMOOTH"
);
},
{
closed = 1;
nodes = (
"456 763 OFFCURVE",
"539 823 OFFCURVE",
"541 939 CURVE",
"454 932 LINE",
"448 888 OFFCURVE",
"414 867 OFFCURVE",
"379 867 CURVE SMOOTH",
"346 867 OFFCURVE",
"312 889 OFFCURVE",
"301 941 CURVE",
"214 932 LINE",
"214 818 OFFCURVE",
"292 763 OFFCURVE",
"372 763 CURVE SMOOTH"
);
}
);
width = 755;
}
);
leftKerningGroup = C;
rightKerningGroup = D;
unicode = 014E;
},
{
glyphname = Ocircumflex;
lastChange = "2016-08-22 17:50:02 +0000";
layers = (
{
layerId = UUID0;
paths = (
{
closed = 1;
nodes = (
"239 750 LINE",
"376 843 LINE",
"509 750 LINE",
"549 795 LINE",
"404 920 LINE",
"344 915 LINE",
"199 795 LINE"
);
},
{
closed = 1;
nodes = (
"185 710 OFFCURVE",
"60 565 OFFCURVE",
"60 345 CURVE SMOOTH",
"60 115 OFFCURVE",
"170 -10 OFFCURVE",
"365 -10 CURVE SMOOTH",
"560 -10 OFFCURVE",
"695 140 OFFCURVE",
"695 360 CURVE SMOOTH",
"695 575 OFFCURVE",
"580 710 OFFCURVE",
"385 710 CURVE SMOOTH"
);
},
{
closed = 1;
nodes = (
"510 625 OFFCURVE",
"580 535 OFFCURVE",
"580 355 CURVE SMOOTH",
"580 165 OFFCURVE",
"500 75 OFFCURVE",
"370 75 CURVE SMOOTH",
"240 75 OFFCURVE",
"175 170 OFFCURVE",
"175 350 CURVE SMOOTH",
"175 540 OFFCURVE",
"250 625 OFFCURVE",
"380 625 CURVE SMOOTH"
);
}
);
width = 755;
},
{
layerId = "708C77EA-8E11-4C15-94D7-0069457547BC";
paths = (
{
closed = 1;
nodes = (
"182 717 OFFCURVE",
"55 577 OFFCURVE",
"55 347 CURVE SMOOTH",
"55 112 OFFCURVE",
"165 -13 OFFCURVE",
"365 -13 CURVE SMOOTH",
"565 -13 OFFCURVE",
"700 137 OFFCURVE",
"700 362 CURVE SMOOTH",
"700 585 OFFCURVE",
"585 717 OFFCURVE",
"385 717 CURVE SMOOTH"
);
},
{
closed = 1;
nodes = (
"480 592 OFFCURVE",
"530 522 OFFCURVE",
"530 357 CURVE SMOOTH",
"530 177 OFFCURVE",
"470 112 OFFCURVE",
"370 112 CURVE SMOOTH",
"270 112 OFFCURVE",
"225 187 OFFCURVE",
"225 352 CURVE SMOOTH",
"225 530 OFFCURVE",
"280 592 OFFCURVE",
"380 592 CURVE SMOOTH"
);
},
{
closed = 1;
nodes = (
"227 742 LINE",
"384 840 LINE",
"535 742 LINE",
"583 808 LINE",
"421 947 LINE",
"332 939 LINE",
"179 808 LINE"
);
}
);
width = 755;
}
);
leftKerningGroup = C;
rightKerningGroup = D;
unicode = 00D4;
},
{
glyphname = Odieresis;
lastChange = "2016-08-22 17:50:02 +0000";
layers = (
{
layerId = UUID0;
paths = (
{
closed = 1;
nodes = (
"220 787 OFFCURVE",
"241 765 OFFCURVE",
"275 765 CURVE SMOOTH",
"305 765 OFFCURVE",
"330 787 OFFCURVE",
"330 825 CURVE SMOOTH",
"330 863 OFFCURVE",
"309 885 OFFCURVE",
"275 885 CURVE SMOOTH",
"245 885 OFFCURVE",
"220 863 OFFCURVE",
"220 825 CURVE SMOOTH"
);
},
{
closed = 1;
nodes = (
"425 787 OFFCURVE",
"446 765 OFFCURVE",
"480 765 CURVE SMOOTH",
"510 765 OFFCURVE",
"535 787 OFFCURVE",
"535 825 CURVE SMOOTH",
"535 863 OFFCURVE",
"514 885 OFFCURVE",
"480 885 CURVE SMOOTH",
"450 885 OFFCURVE",
"425 863 OFFCURVE",
"425 825 CURVE SMOOTH"
);
},
{
closed = 1;
nodes = (
"185 710 OFFCURVE",
"60 565 OFFCURVE",
"60 345 CURVE SMOOTH",
"60 115 OFFCURVE",
"170 -10 OFFCURVE",
"365 -10 CURVE SMOOTH",
"560 -10 OFFCURVE",
"695 140 OFFCURVE",
"695 360 CURVE SMOOTH",
"695 575 OFFCURVE",
"580 710 OFFCURVE",
"385 710 CURVE SMOOTH"
);
},
{
closed = 1;
nodes = (
"510 625 OFFCURVE",
"580 535 OFFCURVE",
"580 355 CURVE SMOOTH",
"580 165 OFFCURVE",
"500 75 OFFCURVE",
"370 75 CURVE SMOOTH",
"240 75 OFFCURVE",
"175 170 OFFCURVE",
"175 350 CURVE SMOOTH",
"175 540 OFFCURVE",
"250 625 OFFCURVE",
"380 625 CURVE SMOOTH"
);
}
);
width = 755;
},
{
layerId = "708C77EA-8E11-4C15-94D7-0069457547BC";
paths = (
{
closed = 1;
nodes = (
"182 717 OFFCURVE",
"55 577 OFFCURVE",
"55 347 CURVE SMOOTH",
"55 112 OFFCURVE",
"165 -13 OFFCURVE",
"365 -13 CURVE SMOOTH",
"565 -13 OFFCURVE",
"700 137 OFFCURVE",
"700 362 CURVE SMOOTH",
"700 585 OFFCURVE",
"585 717 OFFCURVE",
"385 717 CURVE SMOOTH"
);
},
{
closed = 1;
nodes = (
"480 592 OFFCURVE",
"530 522 OFFCURVE",
"530 357 CURVE SMOOTH",
"530 177 OFFCURVE",
"470 112 OFFCURVE",
"370 112 CURVE SMOOTH",
"270 112 OFFCURVE",
"225 187 OFFCURVE",
"225 352 CURVE SMOOTH",
"225 530 OFFCURVE",
"280 592 OFFCURVE",
"380 592 CURVE SMOOTH"
);
},
{
closed = 1;
nodes = (
"194 797 OFFCURVE",
"219 769 OFFCURVE",
"266 769 CURVE SMOOTH",
"305 769 OFFCURVE",
"340 797 OFFCURVE",
"340 847 CURVE SMOOTH",
"340 896 OFFCURVE",
"315 925 OFFCURVE",
"268 925 CURVE SMOOTH",
"229 925 OFFCURVE",
"194 896 OFFCURVE",
"194 847 CURVE SMOOTH"
);
},
{
closed = 1;
nodes = (
"412 797 OFFCURVE",
"437 769 OFFCURVE",
"484 769 CURVE SMOOTH",
"523 769 OFFCURVE",
"558 797 OFFCURVE",
"558 847 CURVE SMOOTH",
"558 896 OFFCURVE",
"534 925 OFFCURVE",
"486 925 CURVE SMOOTH",
"448 925 OFFCURVE",
"412 896 OFFCURVE",
"412 847 CURVE SMOOTH"
);
}
);
width = 755;
}
);
leftKerningGroup = C;
rightKerningGroup = D;
unicode = 00D6;
},
{
glyphname = Ograve;
lastChange = "2016-09-12 12:30:43 +0000";
layers = (
{
layerId = UUID0;
paths = (
{
closed = 1;
nodes = (
"235 860 LINE",
"430 735 LINE",
"470 790 LINE",
"285 935 LINE"
);
},
{
closed = 1;
nodes = (
"185 710 OFFCURVE",
"60 565 OFFCURVE",
"60 345 CURVE SMOOTH",
"60 115 OFFCURVE",
"170 -10 OFFCURVE",
"365 -10 CURVE SMOOTH",
"560 -10 OFFCURVE",
"695 140 OFFCURVE",
"695 360 CURVE SMOOTH",
"695 575 OFFCURVE",
"580 710 OFFCURVE",
"385 710 CURVE SMOOTH"
);
},
{
closed = 1;
nodes = (
"510 625 OFFCURVE",
"580 535 OFFCURVE",
"580 355 CURVE SMOOTH",
"580 165 OFFCURVE",
"500 75 OFFCURVE",
"370 75 CURVE SMOOTH",
"240 75 OFFCURVE",
"175 170 OFFCURVE",
"175 350 CURVE SMOOTH",
"175 540 OFFCURVE",
"250 625 OFFCURVE",
"380 625 CURVE SMOOTH"
);
}
);
width = 755;
},
{
layerId = "708C77EA-8E11-4C15-94D7-0069457547BC";
paths = (
{
closed = 1;
nodes = (
"182 717 OFFCURVE",
"55 577 OFFCURVE",
"55 347 CURVE SMOOTH",
"55 112 OFFCURVE",
"165 -13 OFFCURVE",
"365 -13 CURVE SMOOTH",
"565 -13 OFFCURVE",
"700 137 OFFCURVE",
"700 362 CURVE SMOOTH",
"700 585 OFFCURVE",
"585 717 OFFCURVE",
"385 717 CURVE SMOOTH"
);
},
{
closed = 1;
nodes = (
"480 592 OFFCURVE",
"530 522 OFFCURVE",
"530 357 CURVE SMOOTH",
"530 177 OFFCURVE",
"470 112 OFFCURVE",
"370 112 CURVE SMOOTH",
"270 112 OFFCURVE",
"225 187 OFFCURVE",
"225 352 CURVE SMOOTH",
"225 530 OFFCURVE",
"280 592 OFFCURVE",
"380 592 CURVE SMOOTH"
);
},
{
closed = 1;
nodes = (
"209 847 LINE",
"436 735 LINE",
"482 815 LINE",
"267 956 LINE"
);
}
);
width = 755;
}
);
leftKerningGroup = C;
rightKerningGroup = D;
unicode = 00D2;
},
{
glyphname = Ohungarumlaut;
lastChange = "2016-08-22 17:50:02 +0000";
layers = (
{
layerId = UUID0;
paths = (
{
closed = 1;
nodes = (
"265 733 LINE",
"407 883 LINE",
"341 941 LINE",
"211 775 LINE"
);
},
{
closed = 1;
nodes = (
"460 733 LINE",
"602 883 LINE",
"536 941 LINE",
"406 775 LINE"
);
},
{
closed = 1;
nodes = (
"185 710 OFFCURVE",
"60 565 OFFCURVE",
"60 345 CURVE SMOOTH",
"60 115 OFFCURVE",
"170 -10 OFFCURVE",
"365 -10 CURVE SMOOTH",
"560 -10 OFFCURVE",
"695 140 OFFCURVE",
"695 360 CURVE SMOOTH",
"695 575 OFFCURVE",
"580 710 OFFCURVE",
"385 710 CURVE SMOOTH"
);
},
{
closed = 1;
nodes = (
"510 625 OFFCURVE",
"580 535 OFFCURVE",
"580 355 CURVE SMOOTH",
"580 165 OFFCURVE",
"500 75 OFFCURVE",
"370 75 CURVE SMOOTH",
"240 75 OFFCURVE",
"175 170 OFFCURVE",
"175 350 CURVE SMOOTH",
"175 540 OFFCURVE",
"250 625 OFFCURVE",
"380 625 CURVE SMOOTH"
);
}
);
width = 755;
},
{
layerId = "708C77EA-8E11-4C15-94D7-0069457547BC";
paths = (
{
closed = 1;
nodes = (
"241 735 LINE",
"436 904 LINE",
"355 987 LINE",
"178 797 LINE"
);
},
{
closed = 1;
nodes = (
"466 735 LINE",
"661 904 LINE",
"580 987 LINE",
"403 797 LINE"
);
},
{
closed = 1;
nodes = (
"182 717 OFFCURVE",
"55 577 OFFCURVE",
"55 347 CURVE SMOOTH",
"55 112 OFFCURVE",
"165 -13 OFFCURVE",
"365 -13 CURVE SMOOTH",
"565 -13 OFFCURVE",
"700 137 OFFCURVE",
"700 362 CURVE SMOOTH",
"700 585 OFFCURVE",
"585 717 OFFCURVE",
"385 717 CURVE SMOOTH"
);
},
{
closed = 1;
nodes = (
"480 592 OFFCURVE",
"530 522 OFFCURVE",
"530 357 CURVE SMOOTH",
"530 177 OFFCURVE",
"470 112 OFFCURVE",
"370 112 CURVE SMOOTH",
"270 112 OFFCURVE",
"225 187 OFFCURVE",
"225 352 CURVE SMOOTH",
"225 530 OFFCURVE",
"280 592 OFFCURVE",
"380 592 CURVE SMOOTH"
);
}
);
width = 755;
}
);
leftKerningGroup = C;
rightKerningGroup = D;
unicode = 0150;
},
{
glyphname = Omacron;
lastChange = "2016-08-22 17:50:02 +0000";
layers = (
{
layerId = UUID0;
paths = (
{
closed = 1;
nodes = (
"247 865 LINE",
"247 790 LINE",
"517 790 LINE",
"517 865 LINE"
);
},
{
closed = 1;
nodes = (
"185 710 OFFCURVE",
"60 565 OFFCURVE",
"60 345 CURVE SMOOTH",
"60 115 OFFCURVE",
"170 -10 OFFCURVE",
"365 -10 CURVE SMOOTH",
"560 -10 OFFCURVE",
"695 140 OFFCURVE",
"695 360 CURVE SMOOTH",
"695 575 OFFCURVE",
"580 710 OFFCURVE",
"385 710 CURVE SMOOTH"
);
},
{
closed = 1;
nodes = (
"510 625 OFFCURVE",
"580 535 OFFCURVE",
"580 355 CURVE SMOOTH",
"580 165 OFFCURVE",
"500 75 OFFCURVE",
"370 75 CURVE SMOOTH",
"240 75 OFFCURVE",
"175 170 OFFCURVE",
"175 350 CURVE SMOOTH",
"175 540 OFFCURVE",
"250 625 OFFCURVE",
"380 625 CURVE SMOOTH"
);
}
);
width = 755;
},
{
layerId = "708C77EA-8E11-4C15-94D7-0069457547BC";
paths = (
{
closed = 1;
nodes = (
"182 717 OFFCURVE",
"55 577 OFFCURVE",
"55 347 CURVE SMOOTH",
"55 112 OFFCURVE",
"165 -13 OFFCURVE",
"365 -13 CURVE SMOOTH",
"565 -13 OFFCURVE",
"700 137 OFFCURVE",
"700 362 CURVE SMOOTH",
"700 585 OFFCURVE",
"585 717 OFFCURVE",
"385 717 CURVE SMOOTH"
);
},
{
closed = 1;
nodes = (
"480 592 OFFCURVE",
"530 522 OFFCURVE",
"530 357 CURVE SMOOTH",
"530 177 OFFCURVE",
"470 112 OFFCURVE",
"370 112 CURVE SMOOTH",
"270 112 OFFCURVE",
"225 187 OFFCURVE",
"225 352 CURVE SMOOTH",
"225 530 OFFCURVE",
"280 592 OFFCURVE",
"380 592 CURVE SMOOTH"
);
},
{
closed = 1;
nodes = (
"238 907 LINE",
"238 802 LINE",
"538 802 LINE",
"538 907 LINE"
);
}
);
width = 755;
}
);
leftKerningGroup = C;
rightKerningGroup = D;
unicode = 014C;
},
{
glyphname = Oslash;
lastChange = "2016-08-22 17:50:02 +0000";
layers = (
{
layerId = UUID0;
paths = (
{
closed = 1;
nodes = (
"150 -105 LINE",
"225 20 LINE",
"266 0 OFFCURVE",
"314 -10 OFFCURVE",
"370 -10 CURVE SMOOTH",
"565 -10 OFFCURVE",
"700 140 OFFCURVE",
"700 360 CURVE SMOOTH",
"700 481 OFFCURVE",
"663 576 OFFCURVE",
"597 637 CURVE",
"665 750 LINE",
"600 785 LINE",
"536 678 LINE",
"494 699 OFFCURVE",
"445 710 OFFCURVE",
"390 710 CURVE SMOOTH",
"190 710 OFFCURVE",
"65 565 OFFCURVE",
"65 345 CURVE SMOOTH",
"65 216 OFFCURVE",
"99 120 OFFCURVE",
"164 61 CURVE",
"85 -70 LINE"
);
},
{
closed = 1;
nodes = (
"221 156 LINE",
"194 202 OFFCURVE",
"180 267 OFFCURVE",
"180 350 CURVE SMOOTH",
"180 540 OFFCURVE",
"255 625 OFFCURVE",
"385 625 CURVE SMOOTH",
"425 625 OFFCURVE",
"459 616 OFFCURVE",
"488 599 CURVE"
);
},
{
closed = 1;
nodes = (
"335 75 OFFCURVE",
"301 84 OFFCURVE",
"274 101 CURVE",
"542 546 LINE",
"570 501 OFFCURVE",
"585 437 OFFCURVE",
"585 355 CURVE SMOOTH",
"585 165 OFFCURVE",
"505 75 OFFCURVE",
"375 75 CURVE SMOOTH"
);
}
);
width = 765;
},
{
layerId = "708C77EA-8E11-4C15-94D7-0069457547BC";
paths = (
{
closed = 1;
nodes = (
"161 -110 LINE",
"235 12 LINE",
"274 -4 OFFCURVE",
"319 -12 OFFCURVE",
"370 -12 CURVE SMOOTH",
"570 -12 OFFCURVE",
"705 137 OFFCURVE",
"705 362 CURVE SMOOTH",
"705 479 OFFCURVE",
"673 572 OFFCURVE",
"613 633 CURVE",
"680 742 LINE",
"591 793 LINE",
"529 690 LINE",
"488 708 OFFCURVE",
"442 717 OFFCURVE",
"390 717 CURVE SMOOTH",
"188 717 OFFCURVE",
"60 577 OFFCURVE",
"60 347 CURVE SMOOTH",
"60 223 OFFCURVE",
"91 129 OFFCURVE",
"150 69 CURVE",
"72 -59 LINE"
);
},
{
closed = 1;
nodes = (
"249 231 LINE",
"234 264 OFFCURVE",
"228 311 OFFCURVE",
"228 363 CURVE SMOOTH",
"228 530 OFFCURVE",
"286 592 OFFCURVE",
"385 592 CURVE SMOOTH",
"413 592 OFFCURVE",
"437 586 OFFCURVE",
"458 575 CURVE"
);
},
{
closed = 1;
nodes = (
"348 112 OFFCURVE",
"325 118 OFFCURVE",
"306 129 CURVE",
"516 473 LINE",
"530 444 OFFCURVE",
"538 406 OFFCURVE",
"538 357 CURVE SMOOTH",
"538 181 OFFCURVE",
"475 112 OFFCURVE",
"375 112 CURVE SMOOTH"
);
}
);
width = 765;
}
);
leftKerningGroup = C;
rightKerningGroup = D;
unicode = 00D8;
},
{
glyphname = Oslashacute;
lastChange = "2016-08-22 17:50:02 +0000";
layers = (
{
layerId = UUID0;
paths = (
{
closed = 1;
nodes = (
"510 860 LINE",
"459 933 LINE",
"277 788 LINE",
"315 735 LINE"
);
},
{
closed = 1;
nodes = (
"150 -105 LINE",
"225 20 LINE",
"266 0 OFFCURVE",
"314 -10 OFFCURVE",
"370 -10 CURVE SMOOTH",
"565 -10 OFFCURVE",
"700 140 OFFCURVE",
"700 360 CURVE SMOOTH",
"700 481 OFFCURVE",
"663 576 OFFCURVE",
"597 637 CURVE",
"665 750 LINE",
"600 785 LINE",
"536 678 LINE",
"494 699 OFFCURVE",
"445 710 OFFCURVE",
"390 710 CURVE SMOOTH",
"190 710 OFFCURVE",
"65 565 OFFCURVE",
"65 345 CURVE SMOOTH",
"65 216 OFFCURVE",
"99 120 OFFCURVE",
"164 61 CURVE",
"85 -70 LINE"
);
},
{
closed = 1;
nodes = (
"221 156 LINE",
"194 202 OFFCURVE",
"180 267 OFFCURVE",
"180 350 CURVE SMOOTH",
"180 540 OFFCURVE",
"255 625 OFFCURVE",
"385 625 CURVE SMOOTH",
"425 625 OFFCURVE",
"459 616 OFFCURVE",
"488 599 CURVE"
);
},
{
closed = 1;
nodes = (
"335 75 OFFCURVE",
"301 84 OFFCURVE",
"274 101 CURVE",
"542 546 LINE",
"570 501 OFFCURVE",
"585 437 OFFCURVE",
"585 355 CURVE SMOOTH",
"585 165 OFFCURVE",
"505 75 OFFCURVE",
"375 75 CURVE SMOOTH"
);
}
);
width = 765;
},
{
layerId = "708C77EA-8E11-4C15-94D7-0069457547BC";
paths = (
{
closed = 1;
nodes = (
"161 -110 LINE",
"235 12 LINE",
"274 -4 OFFCURVE",
"319 -12 OFFCURVE",
"370 -12 CURVE SMOOTH",
"570 -12 OFFCURVE",
"705 137 OFFCURVE",
"705 362 CURVE SMOOTH",
"705 479 OFFCURVE",
"673 572 OFFCURVE",
"613 633 CURVE",
"680 742 LINE",
"591 793 LINE",
"529 690 LINE",
"488 708 OFFCURVE",
"442 717 OFFCURVE",
"390 717 CURVE SMOOTH",
"188 717 OFFCURVE",
"60 577 OFFCURVE",
"60 347 CURVE SMOOTH",
"60 223 OFFCURVE",
"91 129 OFFCURVE",
"150 69 CURVE",
"72 -59 LINE"
);
},
{
closed = 1;
nodes = (
"249 231 LINE",
"234 264 OFFCURVE",
"228 311 OFFCURVE",
"228 363 CURVE SMOOTH",
"228 530 OFFCURVE",
"286 592 OFFCURVE",
"385 592 CURVE SMOOTH",
"413 592 OFFCURVE",
"437 586 OFFCURVE",
"458 575 CURVE"
);
},
{
closed = 1;
nodes = (
"348 112 OFFCURVE",
"325 118 OFFCURVE",
"306 129 CURVE",
"516 473 LINE",
"530 444 OFFCURVE",
"538 406 OFFCURVE",
"538 357 CURVE SMOOTH",
"538 181 OFFCURVE",
"475 112 OFFCURVE",
"375 112 CURVE SMOOTH"
);
},
{
closed = 1;
nodes = (
"533 847 LINE",
"475 956 LINE",
"260 815 LINE",
"306 735 LINE"
);
}
);
width = 765;
}
);
leftKerningGroup = C;
rightKerningGroup = D;
unicode = 01FE;
},
{
glyphname = Otilde;
lastChange = "2016-08-22 17:50:02 +0000";
layers = (
{
layerId = UUID0;
paths = (
{
closed = 1;
nodes = (
"220 765 LINE",
"220 765 OFFCURVE",
"250 809 OFFCURVE",
"290 809 CURVE SMOOTH",
"350 809 OFFCURVE",
"395 765 OFFCURVE",
"465 765 CURVE SMOOTH",
"535 765 OFFCURVE",
"570 855 OFFCURVE",
"570 855 CURVE",
"535 885 LINE",
"535 885 OFFCURVE",
"510 843 OFFCURVE",
"470 843 CURVE SMOOTH",
"410 843 OFFCURVE",
"365 889 OFFCURVE",
"295 889 CURVE SMOOTH",
"225 889 OFFCURVE",
"185 795 OFFCURVE",
"185 795 CURVE"
);
},
{
closed = 1;
nodes = (
"185 710 OFFCURVE",
"60 565 OFFCURVE",
"60 345 CURVE SMOOTH",
"60 115 OFFCURVE",
"170 -10 OFFCURVE",
"365 -10 CURVE SMOOTH",
"560 -10 OFFCURVE",
"695 140 OFFCURVE",
"695 360 CURVE SMOOTH",
"695 575 OFFCURVE",
"580 710 OFFCURVE",
"385 710 CURVE SMOOTH"
);
},
{
closed = 1;
nodes = (
"510 625 OFFCURVE",
"580 535 OFFCURVE",
"580 355 CURVE SMOOTH",
"580 165 OFFCURVE",
"500 75 OFFCURVE",
"370 75 CURVE SMOOTH",
"240 75 OFFCURVE",
"175 170 OFFCURVE",
"175 350 CURVE SMOOTH",
"175 540 OFFCURVE",
"250 625 OFFCURVE",
"380 625 CURVE SMOOTH"
);
}
);
width = 755;
},
{
layerId = "708C77EA-8E11-4C15-94D7-0069457547BC";
paths = (
{
closed = 1;
nodes = (
"182 717 OFFCURVE",
"55 577 OFFCURVE",
"55 347 CURVE SMOOTH",
"55 112 OFFCURVE",
"165 -13 OFFCURVE",
"365 -13 CURVE SMOOTH",
"565 -13 OFFCURVE",
"700 137 OFFCURVE",
"700 362 CURVE SMOOTH",
"700 585 OFFCURVE",
"585 717 OFFCURVE",
"385 717 CURVE SMOOTH"
);
},
{
closed = 1;
nodes = (
"480 592 OFFCURVE",
"530 522 OFFCURVE",
"530 357 CURVE SMOOTH",
"530 177 OFFCURVE",
"470 112 OFFCURVE",
"370 112 CURVE SMOOTH",
"270 112 OFFCURVE",
"225 187 OFFCURVE",
"225 352 CURVE SMOOTH",
"225 530 OFFCURVE",
"280 592 OFFCURVE",
"380 592 CURVE SMOOTH"
);
},
{
closed = 1;
nodes = (
"212 776 LINE",
"212 776 OFFCURVE",
"242 814 OFFCURVE",
"284 814 CURVE SMOOTH",
"344 814 OFFCURVE",
"382 775 OFFCURVE",
"452 775 CURVE SMOOTH",
"535 775 OFFCURVE",
"587 879 OFFCURVE",
"587 879 CURVE",
"532 921 LINE",
"532 921 OFFCURVE",
"502 879 OFFCURVE",
"463 879 CURVE SMOOTH",
"403 879 OFFCURVE",
"359 925 OFFCURVE",
"289 925 CURVE SMOOTH",
"206 925 OFFCURVE",
"164 815 OFFCURVE",
"164 815 CURVE"
);
}
);
width = 755;
}
);
leftKerningGroup = C;
rightKerningGroup = D;
unicode = 00D5;
},
{
glyphname = OE;
lastChange = "2016-08-22 17:50:02 +0000";
layers = (
{
layerId = UUID0;
paths = (
{
closed = 1;
nodes = (
"425 -5 OFFCURVE",
"490 0 OFFCURVE",
"525 0 CURVE SMOOTH",
"875 0 LINE",
"875 180 LINE",
"810 180 LINE",
"790 80 LINE",
"560 80 LINE",
"560 325 LINE",
"790 325 LINE",
"790 405 LINE",
"560 405 LINE",
"560 620 LINE",
"775 620 LINE",
"800 530 LINE",
"865 530 LINE",
"865 700 LINE",
"535 700 LINE SMOOTH",
"495 700 OFFCURVE",
"435 705 OFFCURVE",
"385 705 CURVE SMOOTH",
"185 705 OFFCURVE",
"60 565 OFFCURVE",
"60 345 CURVE SMOOTH",
"60 115 OFFCURVE",
"170 -5 OFFCURVE",
"365 -5 CURVE SMOOTH"
);
},
{
closed = 1;
nodes = (
"240 75 OFFCURVE",
"175 170 OFFCURVE",
"175 350 CURVE SMOOTH",
"175 540 OFFCURVE",
"250 625 OFFCURVE",
"380 625 CURVE SMOOTH",
"410 625 OFFCURVE",
"455 620 OFFCURVE",
"455 620 CURVE",
"455 80 LINE",
"455 80 OFFCURVE",
"405 75 OFFCURVE",
"370 75 CURVE SMOOTH"
);
}
);
width = 935;
},
{
layerId = "708C77EA-8E11-4C15-94D7-0069457547BC";
paths = (
{
closed = 1;
nodes = (
"427 -10 OFFCURVE",
"500 0 OFFCURVE",
"549 0 CURVE SMOOTH",
"909 0 LINE",
"909 200 LINE",
"817 200 LINE",
"794 120 LINE",
"617 120 LINE",
"617 310 LINE",
"819 310 LINE",
"819 420 LINE",
"617 420 LINE",
"617 585 LINE",
"779 585 LINE",
"804 510 LINE",
"897 510 LINE",
"897 705 LINE",
"562 705 LINE SMOOTH",
"509 705 OFFCURVE",
"443 715 OFFCURVE",
"385 715 CURVE SMOOTH",
"183 715 OFFCURVE",
"55 577 OFFCURVE",
"55 347 CURVE SMOOTH",
"55 112 OFFCURVE",
"165 -10 OFFCURVE",
"365 -10 CURVE SMOOTH"
);
},
{
closed = 1;
nodes = (
"271 115 OFFCURVE",
"223 187 OFFCURVE",
"223 352 CURVE SMOOTH",
"223 538 OFFCURVE",
"283 589 OFFCURVE",
"391 589 CURVE SMOOTH",
"413 589 OFFCURVE",
"455 586 OFFCURVE",
"462 585 CURVE",
"462 120 LINE",
"449 120 OFFCURVE",
"408 115 OFFCURVE",
"373 115 CURVE SMOOTH"
);
}
);
width = 964;
}
);
leftKerningGroup = C;
rightKerningGroup = AE;
unicode = 0152;
},
{
glyphname = P;
lastChange = "2016-08-22 17:50:02 +0000";
layers = (
{
layerId = UUID0;
paths = (
{
closed = 1;
nodes = (
"40 0 LINE",
"315 0 LINE",
"315 60 LINE",
"230 80 LINE",
"230 260 LINE",
"295 260 LINE SMOOTH",
"465 260 OFFCURVE",
"565 340 OFFCURVE",
"565 495 CURVE SMOOTH",
"565 620 OFFCURVE",
"485 700 OFFCURVE",
"335 700 CURVE SMOOTH",
"230 700 LINE",
"40 695 LINE",
"40 640 LINE",
"125 620 LINE",
"125 80 LINE",
"40 60 LINE"
);
},
{
closed = 1;
nodes = (
"230 340 LINE",
"230 620 LINE",
"330 620 LINE SMOOTH",
"415 620 OFFCURVE",
"460 560 OFFCURVE",
"460 480 CURVE SMOOTH",
"460 390 OFFCURVE",
"405 340 OFFCURVE",
"295 340 CURVE SMOOTH"
);
}
);
width = 590;
},
{
layerId = "708C77EA-8E11-4C15-94D7-0069457547BC";
paths = (
{
closed = 1;
nodes = (
"35 0 LINE",
"340 0 LINE",
"340 85 LINE",
"265 115 LINE",
"265 245 LINE",
"318 245 LINE SMOOTH",
"500 245 OFFCURVE",
"603 327 OFFCURVE",
"603 495 CURVE SMOOTH",
"603 625 OFFCURVE",
"513 705 OFFCURVE",
"360 705 CURVE SMOOTH",
"265 705 LINE",
"35 700 LINE",
"35 615 LINE",
"110 585 LINE",
"110 115 LINE",
"35 85 LINE"
);
},
{
closed = 1;
nodes = (
"265 362 LINE",
"265 585 LINE",
"345 585 LINE SMOOTH",
"413 585 OFFCURVE",
"448 540 OFFCURVE",
"448 475 CURVE SMOOTH",
"448 401 OFFCURVE",
"401 362 OFFCURVE",
"318 362 CURVE SMOOTH"
);
}
);
width = 623;
}
);
leftKerningGroup = D;
unicode = 0050;
},
{
glyphname = Thorn;
lastChange = "2016-08-22 17:50:02 +0000";
layers = (
{
layerId = UUID0;
paths = (
{
closed = 1;
nodes = (
"40 0 LINE",
"315 0 LINE",
"315 60 LINE",
"230 80 LINE",
"230 155 LINE",
"300 155 LINE SMOOTH",
"470 155 OFFCURVE",
"565 235 OFFCURVE",
"565 380 CURVE SMOOTH",
"565 495 OFFCURVE",
"480 565 OFFCURVE",
"335 565 CURVE SMOOTH",
"230 565 LINE",
"230 620 LINE",
"315 640 LINE",
"315 700 LINE",
"40 695 LINE",
"40 640 LINE",
"125 620 LINE",
"125 80 LINE",
"40 60 LINE"
);
},
{
closed = 1;
nodes = (
"230 235 LINE",
"230 485 LINE",
"330 485 LINE SMOOTH",
"415 485 OFFCURVE",
"465 435 OFFCURVE",
"465 365 CURVE SMOOTH",
"465 280 OFFCURVE",
"405 235 OFFCURVE",
"300 235 CURVE SMOOTH"
);
}
);
width = 595;
},
{
layerId = "708C77EA-8E11-4C15-94D7-0069457547BC";
paths = (
{
closed = 1;
nodes = (
"35 0 LINE",
"350 0 LINE",
"350 85 LINE",
"265 115 LINE",
"265 160 LINE",
"319 160 LINE SMOOTH",
"490 160 OFFCURVE",
"604 221 OFFCURVE",
"604 370 CURVE SMOOTH",
"604 490 OFFCURVE",
"514 555 OFFCURVE",
"364 555 CURVE SMOOTH",
"265 555 LINE",
"265 585 LINE",
"350 615 LINE",
"350 705 LINE",
"35 700 LINE",
"35 615 LINE",
"110 585 LINE",
"110 115 LINE",
"35 85 LINE"
);
},
{
closed = 1;
nodes = (
"265 267 LINE",
"265 445 LINE",
"346 445 LINE SMOOTH",
"409 445 OFFCURVE",
"451 415 OFFCURVE",
"451 360 CURVE SMOOTH",
"451 297 OFFCURVE",
"404 267 OFFCURVE",
"329 267 CURVE SMOOTH"
);
}
);
width = 629;
}
);
unicode = 00DE;
},
{
glyphname = Q;
lastChange = "2016-08-22 17:50:02 +0000";
layers = (
{
layerId = UUID0;
paths = (
{
closed = 1;
nodes = (
"725 -185 OFFCURVE",
"825 -125 OFFCURVE",
"825 -125 CURVE",
"785 -65 LINE",
"785 -65 OFFCURVE",
"725 -100 OFFCURVE",
"690 -100 CURVE SMOOTH",
"649 -100 OFFCURVE",
"633 -88 OFFCURVE",
"477 5 CURVE",
"618 47 OFFCURVE",
"705 180 OFFCURVE",
"705 360 CURVE SMOOTH",
"705 575 OFFCURVE",
"595 710 OFFCURVE",
"395 710 CURVE SMOOTH",
"195 710 OFFCURVE",
"60 565 OFFCURVE",
"60 345 CURVE SMOOTH",
"60 128 OFFCURVE",
"162 5 OFFCURVE",
"341 -8 CURVE",
"540 -130 LINE SMOOTH",
"580 -154 OFFCURVE",
"630 -185 OFFCURVE",
"670 -185 CURVE SMOOTH"
);
},
{
closed = 1;
nodes = (
"240 75 OFFCURVE",
"170 175 OFFCURVE",
"170 350 CURVE SMOOTH",
"170 535 OFFCURVE",
"250 625 OFFCURVE",
"390 625 CURVE SMOOTH",
"530 625 OFFCURVE",
"595 530 OFFCURVE",
"595 355 CURVE SMOOTH",
"595 170 OFFCURVE",
"520 75 OFFCURVE",
"380 75 CURVE SMOOTH"
);
}
);
width = 740;
},
{
layerId = "708C77EA-8E11-4C15-94D7-0069457547BC";
paths = (
{
closed = 1;
nodes = (
"735 -200 OFFCURVE",
"840 -130 OFFCURVE",
"840 -130 CURVE",
"787 -50 LINE",
"787 -50 OFFCURVE",
"727 -85 OFFCURVE",
"695 -85 CURVE SMOOTH",
"634 -85 OFFCURVE",
"562 -27 OFFCURVE",
"502 11 CURVE",
"631 61 OFFCURVE",
"710 189 OFFCURVE",
"710 362 CURVE SMOOTH",
"710 585 OFFCURVE",
"597 717 OFFCURVE",
"392 717 CURVE SMOOTH",
"185 717 OFFCURVE",
"55 575 OFFCURVE",
"55 347 CURVE SMOOTH",
"55 124 OFFCURVE",
"156 1 OFFCURVE",
"340 -11 CURVE",
"542 -147 LINE SMOOTH",
"586 -177 OFFCURVE",
"627 -200 OFFCURVE",
"670 -200 CURVE SMOOTH"
);
},
{
closed = 1;
nodes = (
"270 112 OFFCURVE",
"220 192 OFFCURVE",
"220 352 CURVE SMOOTH",
"220 520 OFFCURVE",
"275 592 OFFCURVE",
"387 592 CURVE SMOOTH",
"497 592 OFFCURVE",
"545 517 OFFCURVE",
"545 357 CURVE SMOOTH",
"545 190 OFFCURVE",
"490 112 OFFCURVE",
"377 112 CURVE SMOOTH"
);
}
);
width = 742;
}
);
leftKerningGroup = C;
rightKerningGroup = D;
unicode = 0051;
},
{
glyphname = R;
lastChange = "2016-08-22 17:50:02 +0000";
layers = (
{
layerId = UUID0;
paths = (
{
closed = 1;
nodes = (
"40 0 LINE",
"315 0 LINE",
"315 60 LINE",
"230 80 LINE",
"230 305 LINE",
"275 305 LINE SMOOTH",
"341 305 OFFCURVE",
"363 285 OFFCURVE",
"410 185 CURVE SMOOTH",
"495 0 LINE",
"645 0 LINE",
"645 60 LINE",
"574 76 LINE",
"495 235 LINE",
"469 285 OFFCURVE",
"451 311 OFFCURVE",
"435 325 CURVE",
"521 357 OFFCURVE",
"565 423 OFFCURVE",
"565 520 CURVE SMOOTH",
"565 632 OFFCURVE",
"481 700 OFFCURVE",
"340 700 CURVE SMOOTH",
"230 700 LINE",
"40 695 LINE",
"40 640 LINE",
"125 620 LINE",
"125 80 LINE",
"40 60 LINE"
);
},
{
closed = 1;
nodes = (
"230 380 LINE",
"230 620 LINE",
"335 620 LINE SMOOTH",
"408 620 OFFCURVE",
"460 572 OFFCURVE",
"460 505 CURVE SMOOTH",
"460 426 OFFCURVE",
"403 380 OFFCURVE",
"305 380 CURVE SMOOTH"
);
}
);
width = 650;
},
{
layerId = "708C77EA-8E11-4C15-94D7-0069457547BC";
paths = (
{
closed = 1;
nodes = (
"35 0 LINE",
"337 0 LINE",
"337 85 LINE",
"265 115 LINE",
"265 277 LINE",
"300 277 LINE SMOOTH",
"353 277 OFFCURVE",
"362 261 OFFCURVE",
"396 185 CURVE SMOOTH",
"480 0 LINE",
"665 0 LINE",
"665 85 LINE",
"597 110 LINE",
"530 247 LINE SMOOTH",
"514 280 OFFCURVE",
"499 299 OFFCURVE",
"488 312 CURVE",
"556 346 OFFCURVE",
"601 407 OFFCURVE",
"601 501 CURVE SMOOTH",
"601 637 OFFCURVE",
"505 705 OFFCURVE",
"341 705 CURVE SMOOTH",
"265 705 LINE",
"35 700 LINE",
"35 615 LINE",
"110 585 LINE",
"110 115 LINE",
"35 85 LINE"
);
},
{
closed = 1;
nodes = (
"265 382 LINE",
"265 585 LINE",
"347 585 LINE SMOOTH",
"409 585 OFFCURVE",
"447 544 OFFCURVE",
"447 487 CURVE SMOOTH",
"447 420 OFFCURVE",
"401 382 OFFCURVE",
"322 382 CURVE SMOOTH"
);
}
);
width = 675;
}
);
unicode = 0052;
},
{
glyphname = Racute;
lastChange = "2016-08-22 17:50:02 +0000";
layers = (
{
layerId = UUID0;
paths = (
{
closed = 1;
nodes = (
"435 860 LINE",
"384 933 LINE",
"202 788 LINE",
"240 735 LINE"
);
},
{
closed = 1;
nodes = (
"40 0 LINE",
"315 0 LINE",
"315 60 LINE",
"230 80 LINE",
"230 305 LINE",
"275 305 LINE SMOOTH",
"341 305 OFFCURVE",
"363 285 OFFCURVE",
"410 185 CURVE SMOOTH",
"495 0 LINE",
"645 0 LINE",
"645 60 LINE",
"574 76 LINE",
"495 235 LINE",
"469 285 OFFCURVE",
"451 311 OFFCURVE",
"435 325 CURVE",
"521 357 OFFCURVE",
"565 423 OFFCURVE",
"565 520 CURVE SMOOTH",
"565 632 OFFCURVE",
"481 700 OFFCURVE",
"340 700 CURVE SMOOTH",
"230 700 LINE",
"40 695 LINE",
"40 640 LINE",
"125 620 LINE",
"125 80 LINE",
"40 60 LINE"
);
},
{
closed = 1;
nodes = (
"230 380 LINE",
"230 620 LINE",
"335 620 LINE SMOOTH",
"408 620 OFFCURVE",
"460 572 OFFCURVE",
"460 505 CURVE SMOOTH",
"460 426 OFFCURVE",
"403 380 OFFCURVE",
"305 380 CURVE SMOOTH"
);
}
);
width = 650;
},
{
layerId = "708C77EA-8E11-4C15-94D7-0069457547BC";
paths = (
{
closed = 1;
nodes = (
"35 0 LINE",
"337 0 LINE",
"337 85 LINE",
"265 115 LINE",
"265 277 LINE",
"300 277 LINE SMOOTH",
"353 277 OFFCURVE",
"362 261 OFFCURVE",
"396 185 CURVE SMOOTH",
"480 0 LINE",
"665 0 LINE",
"665 85 LINE",
"597 110 LINE",
"530 247 LINE SMOOTH",
"514 280 OFFCURVE",
"499 299 OFFCURVE",
"488 312 CURVE",
"556 346 OFFCURVE",
"601 407 OFFCURVE",
"601 501 CURVE SMOOTH",
"601 637 OFFCURVE",
"505 705 OFFCURVE",
"341 705 CURVE SMOOTH",
"265 705 LINE",
"35 700 LINE",
"35 615 LINE",
"110 585 LINE",
"110 115 LINE",
"35 85 LINE"
);
},
{
closed = 1;
nodes = (
"265 382 LINE",
"265 585 LINE",
"347 585 LINE SMOOTH",
"409 585 OFFCURVE",
"447 544 OFFCURVE",
"447 487 CURVE SMOOTH",
"447 420 OFFCURVE",
"401 382 OFFCURVE",
"322 382 CURVE SMOOTH"
);
},
{
closed = 1;
nodes = (
"478 847 LINE",
"420 956 LINE",
"205 815 LINE",
"251 735 LINE"
);
}
);
width = 675;
}
);
unicode = 0154;
},
{
glyphname = Rcaron;
lastChange = "2016-08-22 17:50:02 +0000";
layers = (
{
layerId = UUID0;
paths = (
{
closed = 1;
nodes = (
"275 750 LINE",
"335 755 LINE",
"480 875 LINE",
"440 920 LINE",
"303 827 LINE",
"170 920 LINE",
"130 875 LINE"
);
},
{
closed = 1;
nodes = (
"40 0 LINE",
"315 0 LINE",
"315 60 LINE",
"230 80 LINE",
"230 305 LINE",
"275 305 LINE SMOOTH",
"341 305 OFFCURVE",
"363 285 OFFCURVE",
"410 185 CURVE SMOOTH",
"495 0 LINE",
"645 0 LINE",
"645 60 LINE",
"574 76 LINE",
"495 235 LINE",
"469 285 OFFCURVE",
"451 311 OFFCURVE",
"435 325 CURVE",
"521 357 OFFCURVE",
"565 423 OFFCURVE",
"565 520 CURVE SMOOTH",
"565 632 OFFCURVE",
"481 700 OFFCURVE",
"340 700 CURVE SMOOTH",
"230 700 LINE",
"40 695 LINE",
"40 640 LINE",
"125 620 LINE",
"125 80 LINE",
"40 60 LINE"
);
},
{
closed = 1;
nodes = (
"230 380 LINE",
"230 620 LINE",
"335 620 LINE SMOOTH",
"408 620 OFFCURVE",
"460 572 OFFCURVE",
"460 505 CURVE SMOOTH",
"460 426 OFFCURVE",
"403 380 OFFCURVE",
"305 380 CURVE SMOOTH"
);
}
);
width = 650;
},
{
layerId = "708C77EA-8E11-4C15-94D7-0069457547BC";
paths = (
{
closed = 1;
nodes = (
"35 0 LINE",
"337 0 LINE",
"337 85 LINE",
"265 115 LINE",
"265 277 LINE",
"300 277 LINE SMOOTH",
"353 277 OFFCURVE",
"362 261 OFFCURVE",
"396 185 CURVE SMOOTH",
"480 0 LINE",
"665 0 LINE",
"665 85 LINE",
"597 110 LINE",
"530 247 LINE SMOOTH",
"514 280 OFFCURVE",
"499 299 OFFCURVE",
"488 312 CURVE",
"556 346 OFFCURVE",
"601 407 OFFCURVE",
"601 501 CURVE SMOOTH",
"601 637 OFFCURVE",
"505 705 OFFCURVE",
"341 705 CURVE SMOOTH",
"265 705 LINE",
"35 700 LINE",
"35 615 LINE",
"110 585 LINE",
"110 115 LINE",
"35 85 LINE"
);
},
{
closed = 1;
nodes = (
"265 382 LINE",
"265 585 LINE",
"347 585 LINE SMOOTH",
"409 585 OFFCURVE",
"447 544 OFFCURVE",
"447 487 CURVE SMOOTH",
"447 420 OFFCURVE",
"401 382 OFFCURVE",
"322 382 CURVE SMOOTH"
);
},
{
closed = 1;
nodes = (
"273 750 LINE",
"362 757 LINE",
"505 897 LINE",
"455 957 LINE",
"316 851 LINE",
"175 957 LINE",
"120 897 LINE"
);
}
);
width = 675;
}
);
unicode = 0158;
},
{
glyphname = Rcommaaccent;
lastChange = "2016-08-22 17:50:02 +0000";
layers = (
{
layerId = UUID0;
paths = (
{
closed = 1;
nodes = (
"40 0 LINE",
"315 0 LINE",
"315 60 LINE",
"230 80 LINE",
"230 305 LINE",
"275 305 LINE SMOOTH",
"341 305 OFFCURVE",
"363 285 OFFCURVE",
"410 185 CURVE SMOOTH",
"495 0 LINE",
"645 0 LINE",
"645 60 LINE",
"574 76 LINE",
"495 235 LINE",
"469 285 OFFCURVE",
"451 311 OFFCURVE",
"435 325 CURVE",
"521 357 OFFCURVE",
"565 423 OFFCURVE",
"565 520 CURVE SMOOTH",
"565 632 OFFCURVE",
"481 700 OFFCURVE",
"340 700 CURVE SMOOTH",
"230 700 LINE",
"40 695 LINE",
"40 640 LINE",
"125 620 LINE",
"125 80 LINE",
"40 60 LINE"
);
},
{
closed = 1;
nodes = (
"230 380 LINE",
"230 620 LINE",
"335 620 LINE SMOOTH",
"408 620 OFFCURVE",
"460 572 OFFCURVE",
"460 505 CURVE SMOOTH",
"460 426 OFFCURVE",
"403 380 OFFCURVE",
"305 380 CURVE SMOOTH"
);
},
{
closed = 1;
nodes = (
"295 -140 OFFCURVE",
"315 -160 OFFCURVE",
"315 -175 CURVE SMOOTH",
"315 -195 OFFCURVE",
"265 -245 OFFCURVE",
"265 -245 CURVE",
"305 -285 LINE",
"372 -231 OFFCURVE",
"415 -168 OFFCURVE",
"415 -115 CURVE SMOOTH",
"415 -75 OFFCURVE",
"390 -50 OFFCURVE",
"355 -50 CURVE SMOOTH",
"320 -50 OFFCURVE",
"295 -75 OFFCURVE",
"295 -112 CURVE SMOOTH"
);
}
);
width = 650;
},
{
layerId = "708C77EA-8E11-4C15-94D7-0069457547BC";
paths = (
{
closed = 1;
nodes = (
"35 0 LINE",
"337 0 LINE",
"337 85 LINE",
"265 115 LINE",
"265 277 LINE",
"300 277 LINE SMOOTH",
"353 277 OFFCURVE",
"362 261 OFFCURVE",
"396 185 CURVE SMOOTH",
"480 0 LINE",
"665 0 LINE",
"665 85 LINE",
"597 110 LINE",
"530 247 LINE SMOOTH",
"514 280 OFFCURVE",
"499 299 OFFCURVE",
"488 312 CURVE",
"556 346 OFFCURVE",
"601 407 OFFCURVE",
"601 501 CURVE SMOOTH",
"601 637 OFFCURVE",
"505 705 OFFCURVE",
"341 705 CURVE SMOOTH",
"265 705 LINE",
"35 700 LINE",
"35 615 LINE",
"110 585 LINE",
"110 115 LINE",
"35 85 LINE"
);
},
{
closed = 1;
nodes = (
"265 382 LINE",
"265 585 LINE",
"347 585 LINE SMOOTH",
"409 585 OFFCURVE",
"447 544 OFFCURVE",
"447 487 CURVE SMOOTH",
"447 420 OFFCURVE",
"401 382 OFFCURVE",
"322 382 CURVE SMOOTH"
);
},
{
closed = 1;
nodes = (
"290 -157 OFFCURVE",
"315 -173 OFFCURVE",
"315 -198 CURVE SMOOTH",
"315 -221 OFFCURVE",
"257 -284 OFFCURVE",
"257 -284 CURVE",
"310 -332 LINE",
"387 -264 OFFCURVE",
"435 -189 OFFCURVE",
"435 -128 CURVE SMOOTH",
"435 -78 OFFCURVE",
"403 -50 OFFCURVE",
"363 -50 CURVE SMOOTH",
"323 -50 OFFCURVE",
"290 -78 OFFCURVE",
"290 -123 CURVE SMOOTH"
);
}
);
width = 675;
}
);
unicode = 0156;
},
{
glyphname = S;
lastChange = "2016-08-22 17:50:02 +0000";
layers = (
{
layerId = UUID0;
paths = (
{
closed = 1;
nodes = (
"150 205 LINE",
"70 205 LINE",
"70 30 LINE",
"70 30 OFFCURVE",
"171 -10 OFFCURVE",
"276 -10 CURVE SMOOTH",
"416 -10 OFFCURVE",
"537 59 OFFCURVE",
"537 209 CURVE SMOOTH",
"537 434 OFFCURVE",
"177 376 OFFCURVE",
"177 528 CURVE SMOOTH",
"177 578 OFFCURVE",
"220 625 OFFCURVE",
"310 625 CURVE SMOOTH",
"365 625 OFFCURVE",
"416 607 OFFCURVE",
"416 607 CURVE",
"450 500 LINE",
"515 500 LINE",
"520 670 LINE",
"520 670 OFFCURVE",
"404 710 OFFCURVE",
"309 710 CURVE SMOOTH",
"184 710 OFFCURVE",
"72 651 OFFCURVE",
"72 511 CURVE SMOOTH",
"72 272 OFFCURVE",
"433 336 OFFCURVE",
"433 182 CURVE SMOOTH",
"433 111 OFFCURVE",
"353 75 OFFCURVE",
"280 75 CURVE SMOOTH",
"215 75 OFFCURVE",
"170 100 OFFCURVE",
"170 100 CURVE"
);
}
);
width = 597;
},
{
layerId = "708C77EA-8E11-4C15-94D7-0069457547BC";
paths = (
{
closed = 1;
nodes = (
"164 217 LINE",
"62 217 LINE",
"62 25 LINE",
"62 25 OFFCURVE",
"172 -13 OFFCURVE",
"285 -13 CURVE SMOOTH",
"439 -13 OFFCURVE",
"555 69 OFFCURVE",
"555 219 CURVE SMOOTH",
"555 454 OFFCURVE",
"218 408 OFFCURVE",
"218 524 CURVE SMOOTH",
"218 564 OFFCURVE",
"253 595 OFFCURVE",
"324 595 CURVE SMOOTH",
"367 595 OFFCURVE",
"412 580 OFFCURVE",
"412 580 CURVE",
"437 495 LINE",
"529 495 LINE",
"534 677 LINE",
"534 677 OFFCURVE",
"427 717 OFFCURVE",
"314 717 CURVE SMOOTH",
"169 717 OFFCURVE",
"60 643 OFFCURVE",
"60 505 CURVE SMOOTH",
"60 258 OFFCURVE",
"398 310 OFFCURVE",
"398 193 CURVE SMOOTH",
"398 140 OFFCURVE",
"341 112 OFFCURVE",
"277 112 CURVE SMOOTH",
"219 112 OFFCURVE",
"179 133 OFFCURVE",
"179 133 CURVE"
);
}
);
width = 605;
}
);
leftKerningGroup = S;
rightKerningGroup = S;
unicode = 0053;
},
{
glyphname = Sacute;
lastChange = "2016-08-22 17:50:02 +0000";
layers = (
{
layerId = UUID0;
paths = (
{
closed = 1;
nodes = (
"430 860 LINE",
"379 933 LINE",
"197 788 LINE",
"235 735 LINE"
);
},
{
closed = 1;
nodes = (
"150 205 LINE",
"70 205 LINE",
"70 30 LINE",
"70 30 OFFCURVE",
"171 -10 OFFCURVE",
"276 -10 CURVE SMOOTH",
"416 -10 OFFCURVE",
"537 59 OFFCURVE",
"537 209 CURVE SMOOTH",
"537 434 OFFCURVE",
"177 376 OFFCURVE",
"177 528 CURVE SMOOTH",
"177 578 OFFCURVE",
"220 625 OFFCURVE",
"310 625 CURVE SMOOTH",
"365 625 OFFCURVE",
"416 607 OFFCURVE",
"416 607 CURVE",
"450 500 LINE",
"515 500 LINE",
"520 670 LINE",
"520 670 OFFCURVE",
"404 710 OFFCURVE",
"309 710 CURVE SMOOTH",
"184 710 OFFCURVE",
"72 651 OFFCURVE",
"72 511 CURVE SMOOTH",
"72 272 OFFCURVE",
"433 336 OFFCURVE",
"433 182 CURVE SMOOTH",
"433 111 OFFCURVE",
"353 75 OFFCURVE",
"280 75 CURVE SMOOTH",
"215 75 OFFCURVE",
"170 100 OFFCURVE",
"170 100 CURVE"
);
}
);
width = 597;
},
{
layerId = "708C77EA-8E11-4C15-94D7-0069457547BC";
paths = (
{
closed = 1;
nodes = (
"164 217 LINE",
"62 217 LINE",
"62 25 LINE",
"62 25 OFFCURVE",
"172 -13 OFFCURVE",
"285 -13 CURVE SMOOTH",
"439 -13 OFFCURVE",
"555 69 OFFCURVE",
"555 219 CURVE SMOOTH",
"555 454 OFFCURVE",
"218 408 OFFCURVE",
"218 524 CURVE SMOOTH",
"218 564 OFFCURVE",
"253 595 OFFCURVE",
"324 595 CURVE SMOOTH",
"367 595 OFFCURVE",
"412 580 OFFCURVE",
"412 580 CURVE",
"437 495 LINE",
"529 495 LINE",
"534 677 LINE",
"534 677 OFFCURVE",
"427 717 OFFCURVE",
"314 717 CURVE SMOOTH",
"169 717 OFFCURVE",
"60 643 OFFCURVE",
"60 505 CURVE SMOOTH",
"60 258 OFFCURVE",
"398 310 OFFCURVE",
"398 193 CURVE SMOOTH",
"398 140 OFFCURVE",
"341 112 OFFCURVE",
"277 112 CURVE SMOOTH",
"219 112 OFFCURVE",
"179 133 OFFCURVE",
"179 133 CURVE"
);
},
{
closed = 1;
nodes = (
"463 847 LINE",
"405 956 LINE",
"190 815 LINE",
"236 735 LINE"
);
}
);
width = 605;
}
);
leftKerningGroup = S;
rightKerningGroup = S;
unicode = 015A;
},
{
glyphname = Scaron;
lastChange = "2016-08-22 17:50:02 +0000";
layers = (
{
layerId = UUID0;
paths = (
{
closed = 1;
nodes = (
"266 750 LINE",
"326 755 LINE",
"471 875 LINE",
"431 920 LINE",
"294 827 LINE",
"161 920 LINE",
"121 875 LINE"
);
},
{
closed = 1;
nodes = (
"150 205 LINE",
"70 205 LINE",
"70 30 LINE",
"70 30 OFFCURVE",
"171 -10 OFFCURVE",
"276 -10 CURVE SMOOTH",
"416 -10 OFFCURVE",
"537 59 OFFCURVE",
"537 209 CURVE SMOOTH",
"537 434 OFFCURVE",
"177 376 OFFCURVE",
"177 528 CURVE SMOOTH",
"177 578 OFFCURVE",
"220 625 OFFCURVE",
"310 625 CURVE SMOOTH",
"365 625 OFFCURVE",
"416 607 OFFCURVE",
"416 607 CURVE",
"450 500 LINE",
"515 500 LINE",
"520 670 LINE",
"520 670 OFFCURVE",
"404 710 OFFCURVE",
"309 710 CURVE SMOOTH",
"184 710 OFFCURVE",
"72 651 OFFCURVE",
"72 511 CURVE SMOOTH",
"72 272 OFFCURVE",
"433 336 OFFCURVE",
"433 182 CURVE SMOOTH",
"433 111 OFFCURVE",
"353 75 OFFCURVE",
"280 75 CURVE SMOOTH",
"215 75 OFFCURVE",
"170 100 OFFCURVE",
"170 100 CURVE"
);
}
);
width = 597;
},
{
layerId = "708C77EA-8E11-4C15-94D7-0069457547BC";
paths = (
{
closed = 1;
nodes = (
"164 217 LINE",
"62 217 LINE",
"62 25 LINE",
"62 25 OFFCURVE",
"172 -13 OFFCURVE",
"285 -13 CURVE SMOOTH",
"439 -13 OFFCURVE",
"555 69 OFFCURVE",
"555 219 CURVE SMOOTH",
"555 454 OFFCURVE",
"218 408 OFFCURVE",
"218 524 CURVE SMOOTH",
"218 564 OFFCURVE",
"253 595 OFFCURVE",
"324 595 CURVE SMOOTH",
"367 595 OFFCURVE",
"412 580 OFFCURVE",
"412 580 CURVE",
"437 495 LINE",
"529 495 LINE",
"534 677 LINE",
"534 677 OFFCURVE",
"427 717 OFFCURVE",
"314 717 CURVE SMOOTH",
"169 717 OFFCURVE",
"60 643 OFFCURVE",
"60 505 CURVE SMOOTH",
"60 258 OFFCURVE",
"398 310 OFFCURVE",
"398 193 CURVE SMOOTH",
"398 140 OFFCURVE",
"341 112 OFFCURVE",
"277 112 CURVE SMOOTH",
"219 112 OFFCURVE",
"179 133 OFFCURVE",
"179 133 CURVE"
);
},
{
closed = 1;
nodes = (
"264 750 LINE",
"353 757 LINE",
"496 897 LINE",
"446 957 LINE",
"307 851 LINE",
"166 957 LINE",
"111 897 LINE"
);
}
);
width = 605;
}
);
leftKerningGroup = S;
rightKerningGroup = S;
unicode = 0160;
},
{
glyphname = Scedilla;
lastChange = "2016-08-22 17:50:02 +0000";
layers = (
{
layerId = UUID0;
paths = (
{
closed = 1;
nodes = (
"537 434 OFFCURVE",
"177 376 OFFCURVE",
"177 528 CURVE SMOOTH",
"177 578 OFFCURVE",
"220 625 OFFCURVE",
"310 625 CURVE SMOOTH",
"365 625 OFFCURVE",
"416 607 OFFCURVE",
"416 607 CURVE",
"450 500 LINE",
"515 500 LINE",
"520 670 LINE",
"520 670 OFFCURVE",
"404 710 OFFCURVE",
"309 710 CURVE SMOOTH",
"184 710 OFFCURVE",
"72 651 OFFCURVE",
"72 511 CURVE SMOOTH",
"72 272 OFFCURVE",
"433 336 OFFCURVE",
"433 182 CURVE SMOOTH",
"433 111 OFFCURVE",
"353 75 OFFCURVE",
"280 75 CURVE SMOOTH",
"215 75 OFFCURVE",
"170 100 OFFCURVE",
"170 100 CURVE",
"150 205 LINE",
"70 205 LINE",
"70 30 LINE",
"70 30 OFFCURVE",
"160 -6 OFFCURVE",
"259 -10 CURVE",
"259 -79 LINE",
"310 -79 OFFCURVE",
"341 -97 OFFCURVE",
"341 -128 CURVE SMOOTH",
"341 -154 OFFCURVE",
"319 -171 OFFCURVE",
"286 -171 CURVE SMOOTH",
"250 -171 OFFCURVE",
"209 -150 OFFCURVE",
"209 -150 CURVE",
"185 -191 LINE",
"185 -191 OFFCURVE",
"232 -219 OFFCURVE",
"297 -219 CURVE SMOOTH",
"362 -219 OFFCURVE",
"406 -183 OFFCURVE",
"406 -130 CURVE SMOOTH",
"406 -84 OFFCURVE",
"373 -52 OFFCURVE",
"319 -43 CURVE",
"319 -8 LINE",
"440 5 OFFCURVE",
"537 75 OFFCURVE",
"537 209 CURVE SMOOTH"
);
}
);
width = 597;
},
{
layerId = "708C77EA-8E11-4C15-94D7-0069457547BC";
paths = (
{
closed = 1;
nodes = (
"164 217 LINE",
"62 217 LINE",
"62 25 LINE",
"62 25 OFFCURVE",
"172 -13 OFFCURVE",
"285 -13 CURVE SMOOTH",
"439 -13 OFFCURVE",
"555 69 OFFCURVE",
"555 219 CURVE SMOOTH",
"555 454 OFFCURVE",
"218 408 OFFCURVE",
"218 524 CURVE SMOOTH",
"218 564 OFFCURVE",
"253 595 OFFCURVE",
"324 595 CURVE SMOOTH",
"367 595 OFFCURVE",
"412 580 OFFCURVE",
"412 580 CURVE",
"437 495 LINE",
"529 495 LINE",
"534 677 LINE",
"534 677 OFFCURVE",
"427 717 OFFCURVE",
"314 717 CURVE SMOOTH",
"169 717 OFFCURVE",
"60 643 OFFCURVE",
"60 505 CURVE SMOOTH",
"60 258 OFFCURVE",
"398 310 OFFCURVE",
"398 193 CURVE SMOOTH",
"398 140 OFFCURVE",
"341 112 OFFCURVE",
"277 112 CURVE SMOOTH",
"219 112 OFFCURVE",
"179 133 OFFCURVE",
"179 133 CURVE"
);
},
{
closed = 1;
nodes = (
"372 -233 OFFCURVE",
"423 -192 OFFCURVE",
"423 -132 CURVE SMOOTH",
"423 -85 OFFCURVE",
"389 -53 OFFCURVE",
"337 -43 CURVE",
"337 0 LINE",
"252 0 LINE",
"252 -86 LINE",
"301 -86 OFFCURVE",
"334 -100 OFFCURVE",
"334 -129 CURVE SMOOTH",
"334 -151 OFFCURVE",
"316 -167 OFFCURVE",
"284 -167 CURVE SMOOTH",
"246 -167 OFFCURVE",
"206 -146 OFFCURVE",
"206 -146 CURVE",
"175 -201 LINE",
"175 -201 OFFCURVE",
"230 -233 OFFCURVE",
"297 -233 CURVE SMOOTH"
);
}
);
width = 605;
}
);
leftKerningGroup = S;
rightKerningGroup = S;
unicode = 015E;
},
{
glyphname = Scircumflex;
lastChange = "2016-08-22 17:50:02 +0000";
layers = (
{
layerId = UUID0;
paths = (
{
closed = 1;
nodes = (
"167 750 LINE",
"304 843 LINE",
"437 750 LINE",
"477 795 LINE",
"332 920 LINE",
"272 915 LINE",
"127 795 LINE"
);
},
{
closed = 1;
nodes = (
"150 205 LINE",
"70 205 LINE",
"70 30 LINE",
"70 30 OFFCURVE",
"171 -10 OFFCURVE",
"276 -10 CURVE SMOOTH",
"416 -10 OFFCURVE",
"537 59 OFFCURVE",
"537 209 CURVE SMOOTH",
"537 434 OFFCURVE",
"177 376 OFFCURVE",
"177 528 CURVE SMOOTH",
"177 578 OFFCURVE",
"220 625 OFFCURVE",
"310 625 CURVE SMOOTH",
"365 625 OFFCURVE",
"416 607 OFFCURVE",
"416 607 CURVE",
"450 500 LINE",
"515 500 LINE",
"520 670 LINE",
"520 670 OFFCURVE",
"404 710 OFFCURVE",
"309 710 CURVE SMOOTH",
"184 710 OFFCURVE",
"72 651 OFFCURVE",
"72 511 CURVE SMOOTH",
"72 272 OFFCURVE",
"433 336 OFFCURVE",
"433 182 CURVE SMOOTH",
"433 111 OFFCURVE",
"353 75 OFFCURVE",
"280 75 CURVE SMOOTH",
"215 75 OFFCURVE",
"170 100 OFFCURVE",
"170 100 CURVE"
);
}
);
width = 597;
},
{
layerId = "708C77EA-8E11-4C15-94D7-0069457547BC";
paths = (
{
closed = 1;
nodes = (
"164 217 LINE",
"62 217 LINE",
"62 25 LINE",
"62 25 OFFCURVE",
"172 -13 OFFCURVE",
"285 -13 CURVE SMOOTH",
"439 -13 OFFCURVE",
"555 69 OFFCURVE",
"555 219 CURVE SMOOTH",
"555 454 OFFCURVE",
"218 408 OFFCURVE",
"218 524 CURVE SMOOTH",
"218 564 OFFCURVE",
"253 595 OFFCURVE",
"324 595 CURVE SMOOTH",
"367 595 OFFCURVE",
"412 580 OFFCURVE",
"412 580 CURVE",
"437 495 LINE",
"529 495 LINE",
"534 677 LINE",
"534 677 OFFCURVE",
"427 717 OFFCURVE",
"314 717 CURVE SMOOTH",
"169 717 OFFCURVE",
"60 643 OFFCURVE",
"60 505 CURVE SMOOTH",
"60 258 OFFCURVE",
"398 310 OFFCURVE",
"398 193 CURVE SMOOTH",
"398 140 OFFCURVE",
"341 112 OFFCURVE",
"277 112 CURVE SMOOTH",
"219 112 OFFCURVE",
"179 133 OFFCURVE",
"179 133 CURVE"
);
},
{
closed = 1;
nodes = (
"149 742 LINE",
"306 840 LINE",
"457 742 LINE",
"505 808 LINE",
"343 947 LINE",
"254 939 LINE",
"101 808 LINE"
);
}
);
width = 605;
}
);
leftKerningGroup = S;
rightKerningGroup = S;
unicode = 015C;
},
{
glyphname = Scommaaccent;
lastChange = "2016-08-22 17:50:02 +0000";
layers = (
{
layerId = UUID0;
paths = (
{
closed = 1;
nodes = (
"150 205 LINE",
"70 205 LINE",
"70 30 LINE",
"70 30 OFFCURVE",
"171 -10 OFFCURVE",
"276 -10 CURVE SMOOTH",
"416 -10 OFFCURVE",
"537 59 OFFCURVE",
"537 209 CURVE SMOOTH",
"537 434 OFFCURVE",
"177 376 OFFCURVE",
"177 528 CURVE SMOOTH",
"177 578 OFFCURVE",
"220 625 OFFCURVE",
"310 625 CURVE SMOOTH",
"365 625 OFFCURVE",
"416 607 OFFCURVE",
"416 607 CURVE",
"450 500 LINE",
"515 500 LINE",
"520 670 LINE",
"520 670 OFFCURVE",
"404 710 OFFCURVE",
"309 710 CURVE SMOOTH",
"184 710 OFFCURVE",
"72 651 OFFCURVE",
"72 511 CURVE SMOOTH",
"72 272 OFFCURVE",
"433 336 OFFCURVE",
"433 182 CURVE SMOOTH",
"433 111 OFFCURVE",
"353 75 OFFCURVE",
"280 75 CURVE SMOOTH",
"215 75 OFFCURVE",
"170 100 OFFCURVE",
"170 100 CURVE"
);
},
{
closed = 1;
nodes = (
"255 -140 OFFCURVE",
"275 -160 OFFCURVE",
"275 -175 CURVE SMOOTH",
"275 -195 OFFCURVE",
"225 -245 OFFCURVE",
"225 -245 CURVE",
"265 -285 LINE",
"332 -231 OFFCURVE",
"375 -168 OFFCURVE",
"375 -115 CURVE SMOOTH",
"375 -75 OFFCURVE",
"350 -50 OFFCURVE",
"315 -50 CURVE SMOOTH",
"280 -50 OFFCURVE",
"255 -75 OFFCURVE",
"255 -112 CURVE SMOOTH"
);
}
);
width = 597;
},
{
layerId = "708C77EA-8E11-4C15-94D7-0069457547BC";
paths = (
{
closed = 1;
nodes = (
"164 217 LINE",
"62 217 LINE",
"62 25 LINE",
"62 25 OFFCURVE",
"172 -13 OFFCURVE",
"285 -13 CURVE SMOOTH",
"439 -13 OFFCURVE",
"555 69 OFFCURVE",
"555 219 CURVE SMOOTH",
"555 454 OFFCURVE",
"218 408 OFFCURVE",
"218 524 CURVE SMOOTH",
"218 564 OFFCURVE",
"253 595 OFFCURVE",
"324 595 CURVE SMOOTH",
"367 595 OFFCURVE",
"412 580 OFFCURVE",
"412 580 CURVE",
"437 495 LINE",
"529 495 LINE",
"534 677 LINE",
"534 677 OFFCURVE",
"427 717 OFFCURVE",
"314 717 CURVE SMOOTH",
"169 717 OFFCURVE",
"60 643 OFFCURVE",
"60 505 CURVE SMOOTH",
"60 258 OFFCURVE",
"398 310 OFFCURVE",
"398 193 CURVE SMOOTH",
"398 140 OFFCURVE",
"341 112 OFFCURVE",
"277 112 CURVE SMOOTH",
"219 112 OFFCURVE",
"179 133 OFFCURVE",
"179 133 CURVE"
);
},
{
closed = 1;
nodes = (
"245 -157 OFFCURVE",
"270 -173 OFFCURVE",
"270 -198 CURVE SMOOTH",
"270 -221 OFFCURVE",
"212 -284 OFFCURVE",
"212 -284 CURVE",
"265 -332 LINE",
"342 -264 OFFCURVE",
"390 -189 OFFCURVE",
"390 -128 CURVE SMOOTH",
"390 -78 OFFCURVE",
"358 -50 OFFCURVE",
"318 -50 CURVE SMOOTH",
"278 -50 OFFCURVE",
"245 -78 OFFCURVE",
"245 -123 CURVE SMOOTH"
);
}
);
width = 605;
}
);
leftKerningGroup = S;
rightKerningGroup = S;
unicode = 0218;
},
{
glyphname = T;
lastChange = "2016-08-22 17:50:02 +0000";
layers = (
{
layerId = UUID0;
paths = (
{
closed = 1;
nodes = (
"130 0 LINE",
"435 0 LINE",
"435 60 LINE",
"335 80 LINE",
"335 620 LINE",
"465 620 LINE",
"490 520 LINE",
"555 520 LINE",
"555 700 LINE",
"10 700 LINE",
"10 520 LINE",
"75 520 LINE",
"100 620 LINE",
"230 620 LINE",
"230 80 LINE",
"130 60 LINE"
);
}
);
width = 565;
},
{
layerId = "708C77EA-8E11-4C15-94D7-0069457547BC";
paths = (
{
closed = 1;
nodes = (
"127 0 LINE",
"472 0 LINE",
"472 85 LINE",
"377 115 LINE",
"377 585 LINE",
"472 585 LINE",
"497 490 LINE",
"590 490 LINE",
"590 705 LINE",
"10 705 LINE",
"10 490 LINE",
"102 490 LINE",
"127 585 LINE",
"222 585 LINE",
"222 115 LINE",
"127 85 LINE"
);
}
);
width = 600;
}
);
leftKerningGroup = T;
unicode = 0054;
},
{
glyphname = Tbar;
lastChange = "2016-08-22 17:50:02 +0000";
layers = (
{
layerId = UUID0;
paths = (
{
closed = 1;
nodes = (
"10 700 LINE",
"10 520 LINE",
"75 520 LINE",
"100 620 LINE",
"230 620 LINE",
"230 395 LINE",
"83 395 LINE",
"83 315 LINE",
"230 315 LINE",
"230 80 LINE",
"130 60 LINE",
"130 0 LINE",
"435 0 LINE",
"435 60 LINE",
"335 80 LINE",
"335 315 LINE",
"483 315 LINE",
"483 395 LINE",
"335 395 LINE",
"335 620 LINE",
"465 620 LINE",
"490 520 LINE",
"555 520 LINE",
"555 700 LINE"
);
}
);
width = 565;
},
{
layerId = "708C77EA-8E11-4C15-94D7-0069457547BC";
paths = (
{
closed = 1;
nodes = (
"87 300 LINE",
"512 300 LINE",
"512 395 LINE",
"87 395 LINE"
);
},
{
closed = 1;
nodes = (
"127 0 LINE",
"472 0 LINE",
"472 85 LINE",
"377 115 LINE",
"377 585 LINE",
"472 585 LINE",
"497 490 LINE",
"590 490 LINE",
"590 705 LINE",
"10 705 LINE",
"10 490 LINE",
"102 490 LINE",
"127 585 LINE",
"222 585 LINE",
"222 115 LINE",
"127 85 LINE"
);
}
);
width = 600;
}
);
leftKerningGroup = T;
unicode = 0166;
},
{
glyphname = Tcaron;
lastChange = "2016-08-22 17:50:02 +0000";
layers = (
{
layerId = UUID0;
paths = (
{
closed = 1;
nodes = (
"255 750 LINE",
"315 755 LINE",
"460 875 LINE",
"420 920 LINE",
"283 827 LINE",
"150 920 LINE",
"110 875 LINE"
);
},
{
closed = 1;
nodes = (
"130 0 LINE",
"435 0 LINE",
"435 60 LINE",
"335 80 LINE",
"335 620 LINE",
"465 620 LINE",
"490 520 LINE",
"555 520 LINE",
"555 700 LINE",
"10 700 LINE",
"10 520 LINE",
"75 520 LINE",
"100 620 LINE",
"230 620 LINE",
"230 80 LINE",
"130 60 LINE"
);
}
);
width = 565;
},
{
layerId = "708C77EA-8E11-4C15-94D7-0069457547BC";
paths = (
{
closed = 1;
nodes = (
"127 0 LINE",
"472 0 LINE",
"472 85 LINE",
"377 115 LINE",
"377 585 LINE",
"472 585 LINE",
"497 490 LINE",
"590 490 LINE",
"590 705 LINE",
"10 705 LINE",
"10 490 LINE",
"102 490 LINE",
"127 585 LINE",
"222 585 LINE",
"222 115 LINE",
"127 85 LINE"
);
},
{
closed = 1;
nodes = (
"263 750 LINE",
"352 757 LINE",
"495 897 LINE",
"445 957 LINE",
"306 851 LINE",
"165 957 LINE",
"110 897 LINE"
);
}
);
width = 600;
}
);
leftKerningGroup = T;
unicode = 0164;
},
{
glyphname = U;
lastChange = "2016-09-12 12:04:45 +0000";
layers = (
{
anchors = (
{
name = bottom;
position = "{395, 0}";
},
{
name = ogonek;
position = "{711, 10}";
},
{
name = top;
position = "{395, 700}";
},
{
name = topright;
position = "{770, 700}";
}
);
layerId = UUID0;
paths = (
{
closed = 1;
nodes = (
"600 -10 OFFCURVE",
"665 100 OFFCURVE",
"665 285 CURVE SMOOTH",
"665 620 LINE",
"750 640 LINE",
"750 700 LINE",
"465 695 LINE",
"465 640 LINE",
"560 620 LINE",
"560 285 LINE SMOOTH",
"560 130 OFFCURVE",
"520 75 OFFCURVE",
"395 75 CURVE SMOOTH",
"280 75 OFFCURVE",
"230 120 OFFCURVE",
"230 270 CURVE SMOOTH",
"230 620 LINE",
"325 640 LINE",
"325 700 LINE",
"40 695 LINE",
"40 640 LINE",
"125 620 LINE",
"125 270 LINE SMOOTH",
"125 85 OFFCURVE",
"195 -10 OFFCURVE",
"390 -10 CURVE SMOOTH"
);
}
);
width = 790;
},
{
anchors = (
{
name = bottom;
position = "{395, 0}";
},
{
name = ogonek;
position = "{710, 10}";
},
{
name = top;
position = "{395, 705}";
},
{
name = topright;
position = "{734, 705}";
}
);
layerId = "708C77EA-8E11-4C15-94D7-0069457547BC";
paths = (
{
closed = 1;
nodes = (
"605 -12 OFFCURVE",
"679 92 OFFCURVE",
"679 285 CURVE SMOOTH",
"679 585 LINE",
"754 615 LINE",
"754 705 LINE",
"446 700 LINE",
"446 615 LINE",
"524 585 LINE",
"524 285 LINE SMOOTH",
"524 167 OFFCURVE",
"501 110 OFFCURVE",
"395 110 CURVE SMOOTH",
"297 110 OFFCURVE",
"264 155 OFFCURVE",
"264 270 CURVE SMOOTH",
"264 585 LINE",
"342 615 LINE",
"342 705 LINE",
"35 700 LINE",
"35 615 LINE",
"109 585 LINE",
"109 270 LINE SMOOTH",
"109 77 OFFCURVE",
"189 -12 OFFCURVE",
"390 -12 CURVE SMOOTH"
);
}
);
width = 789;
}
);
leftKerningGroup = U;
rightKerningGroup = U;
unicode = 0055;
},
{
glyphname = Uacute;
lastChange = "2016-08-22 17:50:02 +0000";
layers = (
{
layerId = UUID0;
paths = (
{
closed = 1;
nodes = (
"554 860 LINE",
"503 933 LINE",
"321 788 LINE",
"359 735 LINE"
);
},
{
closed = 1;
nodes = (
"600 -10 OFFCURVE",
"665 100 OFFCURVE",
"665 285 CURVE SMOOTH",
"665 620 LINE",
"750 640 LINE",
"750 700 LINE",
"465 695 LINE",
"465 640 LINE",
"560 620 LINE",
"560 285 LINE SMOOTH",
"560 130 OFFCURVE",
"520 75 OFFCURVE",
"395 75 CURVE SMOOTH",
"280 75 OFFCURVE",
"230 120 OFFCURVE",
"230 270 CURVE SMOOTH",
"230 620 LINE",
"325 640 LINE",
"325 700 LINE",
"40 695 LINE",
"40 640 LINE",
"125 620 LINE",
"125 270 LINE SMOOTH",
"125 85 OFFCURVE",
"195 -10 OFFCURVE",
"390 -10 CURVE SMOOTH"
);
}
);
width = 790;
},
{
layerId = "708C77EA-8E11-4C15-94D7-0069457547BC";
paths = (
{
closed = 1;
nodes = (
"605 -12 OFFCURVE",
"679 92 OFFCURVE",
"679 285 CURVE SMOOTH",
"679 585 LINE",
"754 615 LINE",
"754 705 LINE",
"446 700 LINE",
"446 615 LINE",
"524 585 LINE",
"524 285 LINE SMOOTH",
"524 167 OFFCURVE",
"501 110 OFFCURVE",
"395 110 CURVE SMOOTH",
"297 110 OFFCURVE",
"264 155 OFFCURVE",
"264 270 CURVE SMOOTH",
"264 585 LINE",
"342 615 LINE",
"342 705 LINE",
"35 700 LINE",
"35 615 LINE",
"109 585 LINE",
"109 270 LINE SMOOTH",
"109 77 OFFCURVE",
"189 -12 OFFCURVE",
"390 -12 CURVE SMOOTH"
);
},
{
closed = 1;
nodes = (
"558 847 LINE",
"500 956 LINE",
"285 815 LINE",
"331 735 LINE"
);
}
);
width = 789;
}
);
leftKerningGroup = U;
rightKerningGroup = U;
unicode = 00DA;
},
{
glyphname = Ubreve;
lastChange = "2016-08-22 17:50:02 +0000";
layers = (
{
layerId = UUID0;
paths = (
{
closed = 1;
nodes = (
"469 760 OFFCURVE",
"538 810 OFFCURVE",
"540 910 CURVE",
"480 905 LINE",
"475 862 OFFCURVE",
"440 834 OFFCURVE",
"401 834 CURVE SMOOTH",
"366 834 OFFCURVE",
"331 856 OFFCURVE",
"320 910 CURVE",
"260 905 LINE",
"262 809 OFFCURVE",
"331 760 OFFCURVE",
"399 760 CURVE SMOOTH"
);
},
{
closed = 1;
nodes = (
"600 -10 OFFCURVE",
"665 100 OFFCURVE",
"665 285 CURVE SMOOTH",
"665 620 LINE",
"750 640 LINE",
"750 700 LINE",
"465 695 LINE",
"465 640 LINE",
"560 620 LINE",
"560 285 LINE SMOOTH",
"560 130 OFFCURVE",
"520 75 OFFCURVE",
"395 75 CURVE SMOOTH",
"280 75 OFFCURVE",
"230 120 OFFCURVE",
"230 270 CURVE SMOOTH",
"230 620 LINE",
"325 640 LINE",
"325 700 LINE",
"40 695 LINE",
"40 640 LINE",
"125 620 LINE",
"125 270 LINE SMOOTH",
"125 85 OFFCURVE",
"195 -10 OFFCURVE",
"390 -10 CURVE SMOOTH"
);
}
);
width = 790;
},
{
layerId = "708C77EA-8E11-4C15-94D7-0069457547BC";
paths = (
{
closed = 1;
nodes = (
"605 -12 OFFCURVE",
"679 92 OFFCURVE",
"679 285 CURVE SMOOTH",
"679 585 LINE",
"754 615 LINE",
"754 705 LINE",
"446 700 LINE",
"446 615 LINE",
"524 585 LINE",
"524 285 LINE SMOOTH",
"524 167 OFFCURVE",
"501 110 OFFCURVE",
"395 110 CURVE SMOOTH",
"297 110 OFFCURVE",
"264 155 OFFCURVE",
"264 270 CURVE SMOOTH",
"264 585 LINE",
"342 615 LINE",
"342 705 LINE",
"35 700 LINE",
"35 615 LINE",
"109 585 LINE",
"109 270 LINE SMOOTH",
"109 77 OFFCURVE",
"189 -12 OFFCURVE",
"390 -12 CURVE SMOOTH"
);
},
{
closed = 1;
nodes = (
"478 763 OFFCURVE",
"561 823 OFFCURVE",
"563 939 CURVE",
"476 932 LINE",
"470 888 OFFCURVE",
"436 867 OFFCURVE",
"401 867 CURVE SMOOTH",
"368 867 OFFCURVE",
"334 889 OFFCURVE",
"323 941 CURVE",
"236 932 LINE",
"236 818 OFFCURVE",
"314 763 OFFCURVE",
"394 763 CURVE SMOOTH"
);
}
);
width = 789;
}
);
leftKerningGroup = U;
rightKerningGroup = U;
unicode = 016C;
},
{
glyphname = Ucircumflex;
lastChange = "2016-08-22 17:50:02 +0000";
layers = (
{
layerId = UUID0;
paths = (
{
closed = 1;
nodes = (
"260 750 LINE",
"397 843 LINE",
"530 750 LINE",
"570 795 LINE",
"425 920 LINE",
"365 915 LINE",
"220 795 LINE"
);
},
{
closed = 1;
nodes = (
"600 -10 OFFCURVE",
"665 100 OFFCURVE",
"665 285 CURVE SMOOTH",
"665 620 LINE",
"750 640 LINE",
"750 700 LINE",
"465 695 LINE",
"465 640 LINE",
"560 620 LINE",
"560 285 LINE SMOOTH",
"560 130 OFFCURVE",
"520 75 OFFCURVE",
"395 75 CURVE SMOOTH",
"280 75 OFFCURVE",
"230 120 OFFCURVE",
"230 270 CURVE SMOOTH",
"230 620 LINE",
"325 640 LINE",
"325 700 LINE",
"40 695 LINE",
"40 640 LINE",
"125 620 LINE",
"125 270 LINE SMOOTH",
"125 85 OFFCURVE",
"195 -10 OFFCURVE",
"390 -10 CURVE SMOOTH"
);
}
);
width = 790;
},
{
layerId = "708C77EA-8E11-4C15-94D7-0069457547BC";
paths = (
{
closed = 1;
nodes = (
"605 -12 OFFCURVE",
"679 92 OFFCURVE",
"679 285 CURVE SMOOTH",
"679 585 LINE",
"754 615 LINE",
"754 705 LINE",
"446 700 LINE",
"446 615 LINE",
"524 585 LINE",
"524 285 LINE SMOOTH",
"524 167 OFFCURVE",
"501 110 OFFCURVE",
"395 110 CURVE SMOOTH",
"297 110 OFFCURVE",
"264 155 OFFCURVE",
"264 270 CURVE SMOOTH",
"264 585 LINE",
"342 615 LINE",
"342 705 LINE",
"35 700 LINE",
"35 615 LINE",
"109 585 LINE",
"109 270 LINE SMOOTH",
"109 77 OFFCURVE",
"189 -12 OFFCURVE",
"390 -12 CURVE SMOOTH"
);
},
{
closed = 1;
nodes = (
"238 742 LINE",
"395 840 LINE",
"546 742 LINE",
"594 808 LINE",
"432 947 LINE",
"343 939 LINE",
"190 808 LINE"
);
}
);
width = 789;
}
);
leftKerningGroup = U;
rightKerningGroup = U;
unicode = 00DB;
},
{
glyphname = Udieresis;
lastChange = "2016-08-22 17:50:02 +0000";
layers = (
{
layerId = UUID0;
paths = (
{
closed = 1;
nodes = (
"235 787 OFFCURVE",
"256 765 OFFCURVE",
"290 765 CURVE SMOOTH",
"320 765 OFFCURVE",
"345 787 OFFCURVE",
"345 825 CURVE SMOOTH",
"345 863 OFFCURVE",
"324 885 OFFCURVE",
"290 885 CURVE SMOOTH",
"260 885 OFFCURVE",
"235 863 OFFCURVE",
"235 825 CURVE SMOOTH"
);
},
{
closed = 1;
nodes = (
"440 787 OFFCURVE",
"461 765 OFFCURVE",
"495 765 CURVE SMOOTH",
"525 765 OFFCURVE",
"550 787 OFFCURVE",
"550 825 CURVE SMOOTH",
"550 863 OFFCURVE",
"529 885 OFFCURVE",
"495 885 CURVE SMOOTH",
"465 885 OFFCURVE",
"440 863 OFFCURVE",
"440 825 CURVE SMOOTH"
);
},
{
closed = 1;
nodes = (
"600 -10 OFFCURVE",
"665 100 OFFCURVE",
"665 285 CURVE SMOOTH",
"665 620 LINE",
"750 640 LINE",
"750 700 LINE",
"465 695 LINE",
"465 640 LINE",
"560 620 LINE",
"560 285 LINE SMOOTH",
"560 130 OFFCURVE",
"520 75 OFFCURVE",
"395 75 CURVE SMOOTH",
"280 75 OFFCURVE",
"230 120 OFFCURVE",
"230 270 CURVE SMOOTH",
"230 620 LINE",
"325 640 LINE",
"325 700 LINE",
"40 695 LINE",
"40 640 LINE",
"125 620 LINE",
"125 270 LINE SMOOTH",
"125 85 OFFCURVE",
"195 -10 OFFCURVE",
"390 -10 CURVE SMOOTH"
);
}
);
width = 790;
},
{
layerId = "708C77EA-8E11-4C15-94D7-0069457547BC";
paths = (
{
closed = 1;
nodes = (
"605 -12 OFFCURVE",
"679 92 OFFCURVE",
"679 285 CURVE SMOOTH",
"679 585 LINE",
"754 615 LINE",
"754 705 LINE",
"446 700 LINE",
"446 615 LINE",
"524 585 LINE",
"524 285 LINE SMOOTH",
"524 167 OFFCURVE",
"501 110 OFFCURVE",
"395 110 CURVE SMOOTH",
"297 110 OFFCURVE",
"264 155 OFFCURVE",
"264 270 CURVE SMOOTH",
"264 585 LINE",
"342 615 LINE",
"342 705 LINE",
"35 700 LINE",
"35 615 LINE",
"109 585 LINE",
"109 270 LINE SMOOTH",
"109 77 OFFCURVE",
"189 -12 OFFCURVE",
"390 -12 CURVE SMOOTH"
);
},
{
closed = 1;
nodes = (
"213 797 OFFCURVE",
"238 769 OFFCURVE",
"285 769 CURVE SMOOTH",
"324 769 OFFCURVE",
"359 797 OFFCURVE",
"359 847 CURVE SMOOTH",
"359 896 OFFCURVE",
"334 925 OFFCURVE",
"287 925 CURVE SMOOTH",
"248 925 OFFCURVE",
"213 896 OFFCURVE",
"213 847 CURVE SMOOTH"
);
},
{
closed = 1;
nodes = (
"431 797 OFFCURVE",
"456 769 OFFCURVE",
"503 769 CURVE SMOOTH",
"542 769 OFFCURVE",
"577 797 OFFCURVE",
"577 847 CURVE SMOOTH",
"577 896 OFFCURVE",
"553 925 OFFCURVE",
"505 925 CURVE SMOOTH",
"467 925 OFFCURVE",
"431 896 OFFCURVE",
"431 847 CURVE SMOOTH"
);
}
);
width = 789;
}
);
leftKerningGroup = U;
rightKerningGroup = U;
unicode = 00DC;
},
{
glyphname = Ugrave;
lastChange = "2016-09-12 12:30:52 +0000";
layers = (
{
layerId = UUID0;
paths = (
{
closed = 1;
nodes = (
"235 860 LINE",
"430 735 LINE",
"470 790 LINE",
"285 935 LINE"
);
},
{
closed = 1;
nodes = (
"600 -10 OFFCURVE",
"665 100 OFFCURVE",
"665 285 CURVE SMOOTH",
"665 620 LINE",
"750 640 LINE",
"750 700 LINE",
"465 695 LINE",
"465 640 LINE",
"560 620 LINE",
"560 285 LINE SMOOTH",
"560 130 OFFCURVE",
"520 75 OFFCURVE",
"395 75 CURVE SMOOTH",
"280 75 OFFCURVE",
"230 120 OFFCURVE",
"230 270 CURVE SMOOTH",
"230 620 LINE",
"325 640 LINE",
"325 700 LINE",
"40 695 LINE",
"40 640 LINE",
"125 620 LINE",
"125 270 LINE SMOOTH",
"125 85 OFFCURVE",
"195 -10 OFFCURVE",
"390 -10 CURVE SMOOTH"
);
}
);
width = 790;
},
{
layerId = "708C77EA-8E11-4C15-94D7-0069457547BC";
paths = (
{
closed = 1;
nodes = (
"605 -12 OFFCURVE",
"679 92 OFFCURVE",
"679 285 CURVE SMOOTH",
"679 585 LINE",
"754 615 LINE",
"754 705 LINE",
"446 700 LINE",
"446 615 LINE",
"524 585 LINE",
"524 285 LINE SMOOTH",
"524 167 OFFCURVE",
"501 110 OFFCURVE",
"395 110 CURVE SMOOTH",
"297 110 OFFCURVE",
"264 155 OFFCURVE",
"264 270 CURVE SMOOTH",
"264 585 LINE",
"342 615 LINE",
"342 705 LINE",
"35 700 LINE",
"35 615 LINE",
"109 585 LINE",
"109 270 LINE SMOOTH",
"109 77 OFFCURVE",
"189 -12 OFFCURVE",
"390 -12 CURVE SMOOTH"
);
},
{
closed = 1;
nodes = (
"219 847 LINE",
"446 735 LINE",
"492 815 LINE",
"277 956 LINE"
);
}
);
width = 789;
}
);
leftKerningGroup = U;
rightKerningGroup = U;
unicode = 00D9;
},
{
glyphname = Uhungarumlaut;
lastChange = "2016-08-22 17:50:02 +0000";
layers = (
{
layerId = UUID0;
paths = (
{
closed = 1;
nodes = (
"275 733 LINE",
"417 883 LINE",
"351 941 LINE",
"221 775 LINE"
);
},
{
closed = 1;
nodes = (
"470 733 LINE",
"612 883 LINE",
"546 941 LINE",
"416 775 LINE"
);
},
{
closed = 1;
nodes = (
"600 -10 OFFCURVE",
"665 100 OFFCURVE",
"665 285 CURVE SMOOTH",
"665 620 LINE",
"750 640 LINE",
"750 700 LINE",
"465 695 LINE",
"465 640 LINE",
"560 620 LINE",
"560 285 LINE SMOOTH",
"560 130 OFFCURVE",
"520 75 OFFCURVE",
"395 75 CURVE SMOOTH",
"280 75 OFFCURVE",
"230 120 OFFCURVE",
"230 270 CURVE SMOOTH",
"230 620 LINE",
"325 640 LINE",
"325 700 LINE",
"40 695 LINE",
"40 640 LINE",
"125 620 LINE",
"125 270 LINE SMOOTH",
"125 85 OFFCURVE",
"195 -10 OFFCURVE",
"390 -10 CURVE SMOOTH"
);
}
);
width = 790;
},
{
layerId = "708C77EA-8E11-4C15-94D7-0069457547BC";
paths = (
{
closed = 1;
nodes = (
"478 735 LINE",
"673 904 LINE",
"592 987 LINE",
"415 797 LINE"
);
},
{
closed = 1;
nodes = (
"253 735 LINE",
"448 904 LINE",
"367 987 LINE",
"190 797 LINE"
);
},
{
closed = 1;
nodes = (
"605 -12 OFFCURVE",
"679 92 OFFCURVE",
"679 285 CURVE SMOOTH",
"679 585 LINE",
"754 615 LINE",
"754 705 LINE",
"446 700 LINE",
"446 615 LINE",
"524 585 LINE",
"524 285 LINE SMOOTH",
"524 167 OFFCURVE",
"501 110 OFFCURVE",
"395 110 CURVE SMOOTH",
"297 110 OFFCURVE",
"264 155 OFFCURVE",
"264 270 CURVE SMOOTH",
"264 585 LINE",
"342 615 LINE",
"342 705 LINE",
"35 700 LINE",
"35 615 LINE",
"109 585 LINE",
"109 270 LINE SMOOTH",
"109 77 OFFCURVE",
"189 -12 OFFCURVE",
"390 -12 CURVE SMOOTH"
);
}
);
width = 789;
}
);
leftKerningGroup = U;
rightKerningGroup = U;
unicode = 0170;
},
{
glyphname = Umacron;
lastChange = "2016-08-22 17:50:02 +0000";
layers = (
{
layerId = UUID0;
paths = (
{
closed = 1;
nodes = (
"265 865 LINE",
"265 790 LINE",
"535 790 LINE",
"535 865 LINE"
);
},
{
closed = 1;
nodes = (
"600 -10 OFFCURVE",
"665 100 OFFCURVE",
"665 285 CURVE SMOOTH",
"665 620 LINE",
"750 640 LINE",
"750 700 LINE",
"465 695 LINE",
"465 640 LINE",
"560 620 LINE",
"560 285 LINE SMOOTH",
"560 130 OFFCURVE",
"520 75 OFFCURVE",
"395 75 CURVE SMOOTH",
"280 75 OFFCURVE",
"230 120 OFFCURVE",
"230 270 CURVE SMOOTH",
"230 620 LINE",
"325 640 LINE",
"325 700 LINE",
"40 695 LINE",
"40 640 LINE",
"125 620 LINE",
"125 270 LINE SMOOTH",
"125 85 OFFCURVE",
"195 -10 OFFCURVE",
"390 -10 CURVE SMOOTH"
);
}
);
width = 790;
},
{
layerId = "708C77EA-8E11-4C15-94D7-0069457547BC";
paths = (
{
closed = 1;
nodes = (
"605 -12 OFFCURVE",
"679 92 OFFCURVE",
"679 285 CURVE SMOOTH",
"679 585 LINE",
"754 615 LINE",
"754 705 LINE",
"446 700 LINE",
"446 615 LINE",
"524 585 LINE",
"524 285 LINE SMOOTH",
"524 167 OFFCURVE",
"501 110 OFFCURVE",
"395 110 CURVE SMOOTH",
"297 110 OFFCURVE",
"264 155 OFFCURVE",
"264 270 CURVE SMOOTH",
"264 585 LINE",
"342 615 LINE",
"342 705 LINE",
"35 700 LINE",
"35 615 LINE",
"109 585 LINE",
"109 270 LINE SMOOTH",
"109 77 OFFCURVE",
"189 -12 OFFCURVE",
"390 -12 CURVE SMOOTH"
);
},
{
closed = 1;
nodes = (
"248 907 LINE",
"248 802 LINE",
"548 802 LINE",
"548 907 LINE"
);
}
);
width = 789;
}
);
leftKerningGroup = U;
rightKerningGroup = U;
unicode = 016A;
},
{
glyphname = Uogonek;
lastChange = "2016-08-22 17:50:02 +0000";
layers = (
{
layerId = UUID0;
paths = (
{
closed = 1;
nodes = (
"455 -220 OFFCURVE",
"495 -200 OFFCURVE",
"495 -200 CURVE",
"485 -153 LINE",
"485 -153 OFFCURVE",
"460 -160 OFFCURVE",
"440 -160 CURVE SMOOTH",
"415 -160 OFFCURVE",
"395 -145 OFFCURVE",
"395 -115 CURVE SMOOTH",
"395 -54 OFFCURVE",
"499 0 OFFCURVE",
"527 12 CURVE SMOOTH",
"630 55 OFFCURVE",
"665 148 OFFCURVE",
"665 285 CURVE SMOOTH",
"665 620 LINE",
"750 640 LINE",
"750 700 LINE",
"465 695 LINE",
"465 640 LINE",
"560 620 LINE",
"560 285 LINE SMOOTH",
"560 130 OFFCURVE",
"520 75 OFFCURVE",
"395 75 CURVE SMOOTH",
"280 75 OFFCURVE",
"230 120 OFFCURVE",
"230 270 CURVE SMOOTH",
"230 620 LINE",
"325 640 LINE",
"325 700 LINE",
"40 695 LINE",
"40 640 LINE",
"125 620 LINE",
"125 270 LINE SMOOTH",
"125 85 OFFCURVE",
"192 -10 OFFCURVE",
"393 -10 CURVE",
"365 -27 OFFCURVE",
"315 -67 OFFCURVE",
"315 -125 CURVE SMOOTH",
"315 -185 OFFCURVE",
"360 -220 OFFCURVE",
"415 -220 CURVE SMOOTH"
);
}
);
width = 790;
},
{
layerId = "708C77EA-8E11-4C15-94D7-0069457547BC";
paths = (
{
closed = 1;
nodes = (
"447 -235 OFFCURVE",
"494 -210 OFFCURVE",
"494 -210 CURVE",
"477 -140 LINE",
"477 -140 OFFCURVE",
"450 -146 OFFCURVE",
"434 -146 CURVE SMOOTH",
"413 -146 OFFCURVE",
"397 -134 OFFCURVE",
"397 -110 CURVE SMOOTH",
"397 -74 OFFCURVE",
"450 -32 OFFCURVE",
"533 12 CURVE SMOOTH",
"637 67 OFFCURVE",
"675 139 OFFCURVE",
"675 285 CURVE SMOOTH",
"675 585 LINE",
"750 615 LINE",
"750 705 LINE",
"442 700 LINE",
"442 615 LINE",
"520 585 LINE",
"520 285 LINE SMOOTH",
"520 167 OFFCURVE",
"498 110 OFFCURVE",
"392 110 CURVE SMOOTH",
"295 110 OFFCURVE",
"262 155 OFFCURVE",
"262 270 CURVE SMOOTH",
"262 585 LINE",
"340 615 LINE",
"340 705 LINE",
"32 700 LINE",
"32 615 LINE",
"107 585 LINE",
"107 270 LINE SMOOTH",
"107 75 OFFCURVE",
"195 -11 OFFCURVE",
"366 -11 CURVE",
"337 -30 OFFCURVE",
"282 -74 OFFCURVE",
"282 -135 CURVE SMOOTH",
"282 -203 OFFCURVE",
"332 -235 OFFCURVE",
"392 -235 CURVE SMOOTH"
);
}
);
width = 785;
}
);
leftKerningGroup = U;
rightKerningGroup = U;
unicode = 0172;
},
{
glyphname = Uring;
lastChange = "2016-08-22 17:50:02 +0000";
layers = (
{
layerId = UUID0;
paths = (
{
closed = 1;
nodes = (
"285 774 OFFCURVE",
"343 735 OFFCURVE",
"400 735 CURVE SMOOTH",
"457 735 OFFCURVE",
"515 779 OFFCURVE",
"515 850 CURVE SMOOTH",
"515 921 OFFCURVE",
"457 960 OFFCURVE",
"400 960 CURVE SMOOTH",
"343 960 OFFCURVE",
"285 916 OFFCURVE",
"285 845 CURVE SMOOTH"
);
},
{
closed = 1;
nodes = (
"345 887 OFFCURVE",
"369 910 OFFCURVE",
"400 910 CURVE SMOOTH",
"435 910 OFFCURVE",
"455 888 OFFCURVE",
"455 848 CURVE SMOOTH",
"455 808 OFFCURVE",
"431 785 OFFCURVE",
"400 785 CURVE SMOOTH",
"365 785 OFFCURVE",
"345 807 OFFCURVE",
"345 847 CURVE SMOOTH"
);
},
{
closed = 1;
nodes = (
"600 -10 OFFCURVE",
"665 100 OFFCURVE",
"665 285 CURVE SMOOTH",
"665 620 LINE",
"750 640 LINE",
"750 700 LINE",
"465 695 LINE",
"465 640 LINE",
"560 620 LINE",
"560 285 LINE SMOOTH",
"560 130 OFFCURVE",
"520 75 OFFCURVE",
"395 75 CURVE SMOOTH",
"280 75 OFFCURVE",
"230 120 OFFCURVE",
"230 270 CURVE SMOOTH",
"230 620 LINE",
"325 640 LINE",
"325 700 LINE",
"40 695 LINE",
"40 640 LINE",
"125 620 LINE",
"125 270 LINE SMOOTH",
"125 85 OFFCURVE",
"195 -10 OFFCURVE",
"390 -10 CURVE SMOOTH"
);
}
);
width = 790;
},
{
layerId = "708C77EA-8E11-4C15-94D7-0069457547BC";
paths = (
{
closed = 1;
nodes = (
"605 -12 OFFCURVE",
"679 92 OFFCURVE",
"679 285 CURVE SMOOTH",
"679 585 LINE",
"754 615 LINE",
"754 705 LINE",
"446 700 LINE",
"446 615 LINE",
"524 585 LINE",
"524 285 LINE SMOOTH",
"524 167 OFFCURVE",
"501 110 OFFCURVE",
"395 110 CURVE SMOOTH",
"297 110 OFFCURVE",
"264 155 OFFCURVE",
"264 270 CURVE SMOOTH",
"264 585 LINE",
"342 615 LINE",
"342 705 LINE",
"35 700 LINE",
"35 615 LINE",
"109 585 LINE",
"109 270 LINE SMOOTH",
"109 77 OFFCURVE",
"189 -12 OFFCURVE",
"390 -12 CURVE SMOOTH"
);
},
{
closed = 1;
nodes = (
"257 779 OFFCURVE",
"325 735 OFFCURVE",
"391 735 CURVE SMOOTH",
"456 735 OFFCURVE",
"524 785 OFFCURVE",
"524 868 CURVE SMOOTH",
"524 951 OFFCURVE",
"456 995 OFFCURVE",
"391 995 CURVE SMOOTH",
"325 995 OFFCURVE",
"257 946 OFFCURVE",
"257 862 CURVE SMOOTH"
);
},
{
closed = 1;
nodes = (
"342 903 OFFCURVE",
"363 923 OFFCURVE",
"391 923 CURVE SMOOTH",
"421 923 OFFCURVE",
"439 904 OFFCURVE",
"439 866 CURVE SMOOTH",
"439 828 OFFCURVE",
"418 808 OFFCURVE",
"391 808 CURVE SMOOTH",
"360 808 OFFCURVE",
"342 827 OFFCURVE",
"342 865 CURVE SMOOTH"
);
}
);
width = 789;
}
);
leftKerningGroup = U;
rightKerningGroup = U;
unicode = 016E;
},
{
glyphname = Utilde;
lastChange = "2016-08-22 17:50:02 +0000";
layers = (
{
layerId = UUID0;
paths = (
{
closed = 1;
nodes = (
"244 766 LINE",
"244 766 OFFCURVE",
"274 810 OFFCURVE",
"314 810 CURVE SMOOTH",
"374 810 OFFCURVE",
"419 766 OFFCURVE",
"489 766 CURVE SMOOTH",
"559 766 OFFCURVE",
"594 856 OFFCURVE",
"594 856 CURVE",
"559 886 LINE",
"559 886 OFFCURVE",
"534 844 OFFCURVE",
"494 844 CURVE SMOOTH",
"434 844 OFFCURVE",
"389 890 OFFCURVE",
"319 890 CURVE SMOOTH",
"249 890 OFFCURVE",
"209 796 OFFCURVE",
"209 796 CURVE"
);
},
{
closed = 1;
nodes = (
"600 -10 OFFCURVE",
"665 100 OFFCURVE",
"665 285 CURVE SMOOTH",
"665 620 LINE",
"750 640 LINE",
"750 700 LINE",
"465 695 LINE",
"465 640 LINE",
"560 620 LINE",
"560 285 LINE SMOOTH",
"560 130 OFFCURVE",
"520 75 OFFCURVE",
"395 75 CURVE SMOOTH",
"280 75 OFFCURVE",
"230 120 OFFCURVE",
"230 270 CURVE SMOOTH",
"230 620 LINE",
"325 640 LINE",
"325 700 LINE",
"40 695 LINE",
"40 640 LINE",
"125 620 LINE",
"125 270 LINE SMOOTH",
"125 85 OFFCURVE",
"195 -10 OFFCURVE",
"390 -10 CURVE SMOOTH"
);
}
);
width = 790;
},
{
layerId = "708C77EA-8E11-4C15-94D7-0069457547BC";
paths = (
{
closed = 1;
nodes = (
"230 777 LINE",
"230 777 OFFCURVE",
"260 815 OFFCURVE",
"302 815 CURVE SMOOTH",
"362 815 OFFCURVE",
"400 776 OFFCURVE",
"470 776 CURVE SMOOTH",
"553 776 OFFCURVE",
"605 880 OFFCURVE",
"605 880 CURVE",
"550 922 LINE",
"550 922 OFFCURVE",
"520 880 OFFCURVE",
"481 880 CURVE SMOOTH",
"421 880 OFFCURVE",
"377 926 OFFCURVE",
"307 926 CURVE SMOOTH",
"224 926 OFFCURVE",
"182 816 OFFCURVE",
"182 816 CURVE"
);
},
{
closed = 1;
nodes = (
"605 -12 OFFCURVE",
"679 92 OFFCURVE",
"679 285 CURVE SMOOTH",
"679 585 LINE",
"754 615 LINE",
"754 705 LINE",
"446 700 LINE",
"446 615 LINE",
"524 585 LINE",
"524 285 LINE SMOOTH",
"524 167 OFFCURVE",
"501 110 OFFCURVE",
"395 110 CURVE SMOOTH",
"297 110 OFFCURVE",
"264 155 OFFCURVE",
"264 270 CURVE SMOOTH",
"264 585 LINE",
"342 615 LINE",
"342 705 LINE",
"35 700 LINE",
"35 615 LINE",
"109 585 LINE",
"109 270 LINE SMOOTH",
"109 77 OFFCURVE",
"189 -12 OFFCURVE",
"390 -12 CURVE SMOOTH"
);
}
);
width = 789;
}
);
leftKerningGroup = U;
rightKerningGroup = U;
unicode = 0168;
},
{
glyphname = V;
lastChange = "2016-08-22 17:50:02 +0000";
layers = (
{
layerId = UUID0;
paths = (
{
closed = 1;
nodes = (
"295 0 LINE",
"395 0 LINE",
"617 620 LINE",
"695 640 LINE",
"695 700 LINE",
"425 695 LINE",
"425 640 LINE",
"518 620 LINE",
"368 183 LINE",
"351 135 LINE",
"336 183 LINE",
"194 621 LINE",
"285 640 LINE",
"285 700 LINE",
"5 695 LINE",
"5 640 LINE",
"82 620 LINE"
);
}
);
width = 700;
},
{
layerId = "708C77EA-8E11-4C15-94D7-0069457547BC";
paths = (
{
closed = 1;
nodes = (
"275 0 LINE",
"435 0 LINE",
"646 585 LINE",
"719 615 LINE",
"719 705 LINE",
"420 700 LINE",
"420 615 LINE",
"496 585 LINE",
"397 294 LINE",
"365 176 LINE",
"333 299 LINE",
"241 586 LINE",
"315 615 LINE",
"315 705 LINE",
"5 700 LINE",
"5 615 LINE",
"73 587 LINE"
);
}
);
width = 724;
}
);
leftKerningGroup = V;
rightKerningGroup = V;
unicode = 0056;
},
{
glyphname = W;
lastChange = "2016-08-22 17:50:02 +0000";
layers = (
{
layerId = UUID0;
paths = (
{
closed = 1;
nodes = (
"83 620 LINE",
"250 0 LINE",
"350 0 LINE",
"516 568 LINE",
"665 0 LINE",
"775 0 LINE",
"951 620 LINE",
"1030 640 LINE",
"1030 700 LINE",
"760 695 LINE",
"760 640 LINE",
"851 620 LINE",
"727 156 LINE",
"565 700 LINE",
"470 695 LINE",
"305 167 LINE",
"198 620 LINE",
"285 640 LINE",
"285 700 LINE",
"5 695 LINE",
"5 640 LINE"
);
}
);
width = 1035;
},
{
layerId = "708C77EA-8E11-4C15-94D7-0069457547BC";
paths = (
{
closed = 1;
nodes = (
"75 586 LINE",
"240 0 LINE",
"378 0 LINE",
"514 475 LINE",
"648 0 LINE",
"790 0 LINE",
"958 585 LINE",
"1030 615 LINE",
"1030 705 LINE",
"745 700 LINE",
"745 615 LINE",
"820 585 LINE",
"727 226 LINE",
"590 705 LINE",
"455 697 LINE",
"318 225 LINE",
"229 585 LINE",
"302 615 LINE",
"302 705 LINE",
"5 700 LINE",
"5 615 LINE"
);
}
);
width = 1035;
}
);
leftKerningGroup = V;
rightKerningGroup = V;
unicode = 0057;
},
{
glyphname = Wacute;
lastChange = "2016-08-22 17:50:02 +0000";
layers = (
{
layerId = UUID0;
paths = (
{
closed = 1;
nodes = (
"628 860 LINE",
"577 933 LINE",
"395 788 LINE",
"433 735 LINE"
);
},
{
closed = 1;
nodes = (
"83 620 LINE",
"250 0 LINE",
"350 0 LINE",
"516 568 LINE",
"665 0 LINE",
"775 0 LINE",
"951 620 LINE",
"1030 640 LINE",
"1030 700 LINE",
"760 695 LINE",
"760 640 LINE",
"851 620 LINE",
"727 156 LINE",
"565 700 LINE",
"470 695 LINE",
"305 167 LINE",
"198 620 LINE",
"285 640 LINE",
"285 700 LINE",
"5 695 LINE",
"5 640 LINE"
);
}
);
width = 1035;
},
{
layerId = "708C77EA-8E11-4C15-94D7-0069457547BC";
paths = (
{
closed = 1;
nodes = (
"75 586 LINE",
"240 0 LINE",
"378 0 LINE",
"514 475 LINE",
"648 0 LINE",
"790 0 LINE",
"958 585 LINE",
"1030 615 LINE",
"1030 705 LINE",
"745 700 LINE",
"745 615 LINE",
"820 585 LINE",
"727 226 LINE",
"590 705 LINE",
"455 697 LINE",
"318 225 LINE",
"229 585 LINE",
"302 615 LINE",
"302 705 LINE",
"5 700 LINE",
"5 615 LINE"
);
},
{
closed = 1;
nodes = (
"653 847 LINE",
"595 956 LINE",
"380 815 LINE",
"426 735 LINE"
);
}
);
width = 1035;
}
);
leftKerningGroup = V;
rightKerningGroup = V;
unicode = 1E82;
},
{
glyphname = Wcircumflex;
lastChange = "2016-08-22 17:50:02 +0000";
layers = (
{
layerId = UUID0;
paths = (
{
closed = 1;
nodes = (
"385 750 LINE",
"522 843 LINE",
"655 750 LINE",
"695 795 LINE",
"550 920 LINE",
"490 915 LINE",
"345 795 LINE"
);
},
{
closed = 1;
nodes = (
"83 620 LINE",
"250 0 LINE",
"350 0 LINE",
"516 568 LINE",
"665 0 LINE",
"775 0 LINE",
"951 620 LINE",
"1030 640 LINE",
"1030 700 LINE",
"760 695 LINE",
"760 640 LINE",
"851 620 LINE",
"727 156 LINE",
"565 700 LINE",
"470 695 LINE",
"305 167 LINE",
"198 620 LINE",
"285 640 LINE",
"285 700 LINE",
"5 695 LINE",
"5 640 LINE"
);
}
);
width = 1035;
},
{
layerId = "708C77EA-8E11-4C15-94D7-0069457547BC";
paths = (
{
closed = 1;
nodes = (
"75 586 LINE",
"240 0 LINE",
"378 0 LINE",
"514 475 LINE",
"648 0 LINE",
"790 0 LINE",
"958 585 LINE",
"1030 615 LINE",
"1030 705 LINE",
"745 700 LINE",
"745 615 LINE",
"820 585 LINE",
"727 226 LINE",
"590 705 LINE",
"455 697 LINE",
"318 225 LINE",
"229 585 LINE",
"302 615 LINE",
"302 705 LINE",
"5 700 LINE",
"5 615 LINE"
);
},
{
closed = 1;
nodes = (
"363 742 LINE",
"520 840 LINE",
"671 742 LINE",
"719 808 LINE",
"557 947 LINE",
"468 939 LINE",
"315 808 LINE"
);
}
);
width = 1035;
}
);
leftKerningGroup = V;
rightKerningGroup = V;
unicode = 0174;
},
{
glyphname = Wdieresis;
lastChange = "2016-08-22 17:50:02 +0000";
layers = (
{
layerId = UUID0;
paths = (
{
closed = 1;
nodes = (
"360 787 OFFCURVE",
"381 765 OFFCURVE",
"415 765 CURVE SMOOTH",
"445 765 OFFCURVE",
"470 787 OFFCURVE",
"470 825 CURVE SMOOTH",
"470 863 OFFCURVE",
"449 885 OFFCURVE",
"415 885 CURVE SMOOTH",
"385 885 OFFCURVE",
"360 863 OFFCURVE",
"360 825 CURVE SMOOTH"
);
},
{
closed = 1;
nodes = (
"565 787 OFFCURVE",
"586 765 OFFCURVE",
"620 765 CURVE SMOOTH",
"650 765 OFFCURVE",
"675 787 OFFCURVE",
"675 825 CURVE SMOOTH",
"675 863 OFFCURVE",
"654 885 OFFCURVE",
"620 885 CURVE SMOOTH",
"590 885 OFFCURVE",
"565 863 OFFCURVE",
"565 825 CURVE SMOOTH"
);
},
{
closed = 1;
nodes = (
"83 620 LINE",
"250 0 LINE",
"350 0 LINE",
"516 568 LINE",
"665 0 LINE",
"775 0 LINE",
"951 620 LINE",
"1030 640 LINE",
"1030 700 LINE",
"760 695 LINE",
"760 640 LINE",
"851 620 LINE",
"727 156 LINE",
"565 700 LINE",
"470 695 LINE",
"305 167 LINE",
"198 620 LINE",
"285 640 LINE",
"285 700 LINE",
"5 695 LINE",
"5 640 LINE"
);
}
);
width = 1035;
},
{
layerId = "708C77EA-8E11-4C15-94D7-0069457547BC";
paths = (
{
closed = 1;
nodes = (
"75 586 LINE",
"240 0 LINE",
"378 0 LINE",
"514 475 LINE",
"648 0 LINE",
"790 0 LINE",
"958 585 LINE",
"1030 615 LINE",
"1030 705 LINE",
"745 700 LINE",
"745 615 LINE",
"820 585 LINE",
"727 226 LINE",
"590 705 LINE",
"455 697 LINE",
"318 225 LINE",
"229 585 LINE",
"302 615 LINE",
"302 705 LINE",
"5 700 LINE",
"5 615 LINE"
);
},
{
closed = 1;
nodes = (
"355 797 OFFCURVE",
"380 769 OFFCURVE",
"427 769 CURVE SMOOTH",
"466 769 OFFCURVE",
"501 797 OFFCURVE",
"501 847 CURVE SMOOTH",
"501 896 OFFCURVE",
"476 925 OFFCURVE",
"429 925 CURVE SMOOTH",
"390 925 OFFCURVE",
"355 896 OFFCURVE",
"355 847 CURVE SMOOTH"
);
},
{
closed = 1;
nodes = (
"573 797 OFFCURVE",
"598 769 OFFCURVE",
"645 769 CURVE SMOOTH",
"684 769 OFFCURVE",
"719 797 OFFCURVE",
"719 847 CURVE SMOOTH",
"719 896 OFFCURVE",
"695 925 OFFCURVE",
"647 925 CURVE SMOOTH",
"609 925 OFFCURVE",
"573 896 OFFCURVE",
"573 847 CURVE SMOOTH"
);
}
);
width = 1035;
}
);
leftKerningGroup = V;
rightKerningGroup = V;
unicode = 1E84;
},
{
glyphname = Wgrave;
lastChange = "2016-08-22 17:50:02 +0000";
layers = (
{
layerId = UUID0;
paths = (
{
closed = 1;
nodes = (
"400 860 LINE",
"595 735 LINE",
"635 790 LINE",
"450 935 LINE"
);
},
{
closed = 1;
nodes = (
"83 620 LINE",
"250 0 LINE",
"350 0 LINE",
"516 568 LINE",
"665 0 LINE",
"775 0 LINE",
"951 620 LINE",
"1030 640 LINE",
"1030 700 LINE",
"760 695 LINE",
"760 640 LINE",
"851 620 LINE",
"727 156 LINE",
"565 700 LINE",
"470 695 LINE",
"305 167 LINE",
"198 620 LINE",
"285 640 LINE",
"285 700 LINE",
"5 695 LINE",
"5 640 LINE"
);
}
);
width = 1035;
},
{
layerId = "708C77EA-8E11-4C15-94D7-0069457547BC";
paths = (
{
closed = 1;
nodes = (
"75 586 LINE",
"240 0 LINE",
"378 0 LINE",
"514 475 LINE",
"648 0 LINE",
"790 0 LINE",
"958 585 LINE",
"1030 615 LINE",
"1030 705 LINE",
"745 700 LINE",
"745 615 LINE",
"820 585 LINE",
"727 226 LINE",
"590 705 LINE",
"455 697 LINE",
"318 225 LINE",
"229 585 LINE",
"302 615 LINE",
"302 705 LINE",
"5 700 LINE",
"5 615 LINE"
);
},
{
closed = 1;
nodes = (
"385 847 LINE",
"612 735 LINE",
"658 815 LINE",
"443 956 LINE"
);
}
);
width = 1035;
}
);
leftKerningGroup = V;
rightKerningGroup = V;
unicode = 1E80;
},
{
glyphname = X;
lastChange = "2016-08-22 17:50:02 +0000";
layers = (
{
layerId = UUID0;
paths = (
{
closed = 1;
nodes = (
"10 0 LINE",
"275 0 LINE",
"275 60 LINE",
"190 80 LINE",
"340 280 LINE",
"480 75 LINE",
"420 60 LINE",
"420 0 LINE",
"690 0 LINE",
"690 60 LINE",
"605 80 LINE",
"410 360 LINE",
"590 620 LINE",
"680 640 LINE",
"680 700 LINE",
"415 695 LINE",
"415 640 LINE",
"485 620 LINE",
"355 430 LINE",
"225 620 LINE",
"290 640 LINE",
"290 700 LINE",
"25 695 LINE",
"25 640 LINE",
"100 620 LINE",
"285 355 LINE",
"75 75 LINE",
"10 60 LINE"
);
}
);
width = 700;
},
{
layerId = "708C77EA-8E11-4C15-94D7-0069457547BC";
paths = (
{
closed = 1;
nodes = (
"10 0 LINE",
"307 0 LINE",
"307 85 LINE",
"244 109 LINE",
"356 253 LINE",
"466 105 LINE",
"420 85 LINE",
"420 0 LINE",
"730 0 LINE",
"730 85 LINE",
"660 109 LINE",
"465 362 LINE",
"649 595 LINE",
"715 615 LINE",
"715 705 LINE",
"427 700 LINE",
"427 615 LINE",
"481 594 LINE",
"383 461 LINE",
"280 598 LINE",
"330 615 LINE",
"330 705 LINE",
"30 700 LINE",
"30 615 LINE",
"88 596 LINE",
"274 354 LINE",
"72 110 LINE",
"10 85 LINE"
);
}
);
width = 740;
}
);
leftKerningGroup = X;
rightKerningGroup = X;
unicode = 0058;
},
{
glyphname = Y;
lastChange = "2016-09-12 12:03:45 +0000";
layers = (
{
anchors = (
{
name = bottom;
position = "{323, 0}";
},
{
name = top;
position = "{323, 700}";
},
{
name = topleft;
position = "{20, 700}";
}
);
layerId = UUID0;
paths = (
{
closed = 1;
nodes = (
"185 0 LINE",
"460 0 LINE",
"460 60 LINE",
"375 80 LINE",
"375 261 LINE",
"573 622 LINE",
"635 640 LINE",
"635 700 LINE",
"395 695 LINE",
"395 640 LINE",
"472 620 LINE",
"325 340 LINE",
"192 620 LINE",
"260 640 LINE",
"260 700 LINE",
"10 695 LINE",
"10 640 LINE",
"77 621 LINE",
"270 259 LINE",
"270 80 LINE",
"185 60 LINE"
);
}
);
width = 645;
},
{
anchors = (
{
name = bottom;
position = "{334, 0}";
},
{
name = top;
position = "{334, 705}";
},
{
name = topleft;
position = "{20, 705}";
}
);
layerId = "708C77EA-8E11-4C15-94D7-0069457547BC";
paths = (
{
closed = 1;
nodes = (
"180 0 LINE",
"485 0 LINE",
"485 85 LINE",
"410 115 LINE",
"410 245 LINE",
"591 588 LINE",
"660 615 LINE",
"660 705 LINE",
"390 700 LINE",
"390 615 LINE",
"445 593 LINE",
"339 379 LINE",
"239 594 LINE",
"290 615 LINE",
"290 705 LINE",
"7 700 LINE",
"7 615 LINE",
"72 588 LINE",
"255 244 LINE",
"255 115 LINE",
"180 85 LINE"
);
}
);
width = 667;
}
);
leftKerningGroup = Y;
rightKerningGroup = Y;
unicode = 0059;
},
{
glyphname = Yacute;
lastChange = "2016-08-22 17:50:02 +0000";
layers = (
{
layerId = UUID0;
paths = (
{
closed = 1;
nodes = (
"490 860 LINE",
"439 933 LINE",
"257 788 LINE",
"295 735 LINE"
);
},
{
closed = 1;
nodes = (
"185 0 LINE",
"460 0 LINE",
"460 60 LINE",
"375 80 LINE",
"375 261 LINE",
"573 622 LINE",
"635 640 LINE",
"635 700 LINE",
"395 695 LINE",
"395 640 LINE",
"472 620 LINE",
"325 340 LINE",
"192 620 LINE",
"260 640 LINE",
"260 700 LINE",
"10 695 LINE",
"10 640 LINE",
"77 621 LINE",
"270 259 LINE",
"270 80 LINE",
"185 60 LINE"
);
}
);
width = 645;
},
{
layerId = "708C77EA-8E11-4C15-94D7-0069457547BC";
paths = (
{
closed = 1;
nodes = (
"180 0 LINE",
"485 0 LINE",
"485 85 LINE",
"410 115 LINE",
"410 245 LINE",
"591 588 LINE",
"660 615 LINE",
"660 705 LINE",
"390 700 LINE",
"390 615 LINE",
"445 593 LINE",
"339 379 LINE",
"239 594 LINE",
"290 615 LINE",
"290 705 LINE",
"7 700 LINE",
"7 615 LINE",
"72 588 LINE",
"255 244 LINE",
"255 115 LINE",
"180 85 LINE"
);
},
{
closed = 1;
nodes = (
"533 847 LINE",
"475 956 LINE",
"260 815 LINE",
"306 735 LINE"
);
}
);
width = 667;
}
);
leftKerningGroup = Y;
rightKerningGroup = Y;
unicode = 00DD;
},
{
glyphname = Ycircumflex;
lastChange = "2016-08-22 17:50:02 +0000";
layers = (
{
layerId = UUID0;
paths = (
{
closed = 1;
nodes = (
"196 750 LINE",
"333 843 LINE",
"466 750 LINE",
"506 795 LINE",
"361 920 LINE",
"301 915 LINE",
"156 795 LINE"
);
},
{
closed = 1;
nodes = (
"185 0 LINE",
"460 0 LINE",
"460 60 LINE",
"375 80 LINE",
"375 261 LINE",
"573 622 LINE",
"635 640 LINE",
"635 700 LINE",
"395 695 LINE",
"395 640 LINE",
"472 620 LINE",
"325 340 LINE",
"192 620 LINE",
"260 640 LINE",
"260 700 LINE",
"10 695 LINE",
"10 640 LINE",
"77 621 LINE",
"270 259 LINE",
"270 80 LINE",
"185 60 LINE"
);
}
);
width = 645;
},
{
layerId = "708C77EA-8E11-4C15-94D7-0069457547BC";
paths = (
{
closed = 1;
nodes = (
"180 0 LINE",
"485 0 LINE",
"485 85 LINE",
"410 115 LINE",
"410 245 LINE",
"591 588 LINE",
"660 615 LINE",
"660 705 LINE",
"390 700 LINE",
"390 615 LINE",
"445 593 LINE",
"339 379 LINE",
"239 594 LINE",
"290 615 LINE",
"290 705 LINE",
"7 700 LINE",
"7 615 LINE",
"72 588 LINE",
"255 244 LINE",
"255 115 LINE",
"180 85 LINE"
);
},
{
closed = 1;
nodes = (
"197 742 LINE",
"354 840 LINE",
"505 742 LINE",
"553 808 LINE",
"391 947 LINE",
"302 939 LINE",
"149 808 LINE"
);
}
);
width = 667;
}
);
leftKerningGroup = Y;
rightKerningGroup = Y;
unicode = 0176;
},
{
glyphname = Ydieresis;
lastChange = "2016-08-22 17:50:02 +0000";
layers = (
{
layerId = UUID0;
paths = (
{
closed = 1;
nodes = (
"160 787 OFFCURVE",
"181 765 OFFCURVE",
"215 765 CURVE SMOOTH",
"245 765 OFFCURVE",
"270 787 OFFCURVE",
"270 825 CURVE SMOOTH",
"270 863 OFFCURVE",
"249 885 OFFCURVE",
"215 885 CURVE SMOOTH",
"185 885 OFFCURVE",
"160 863 OFFCURVE",
"160 825 CURVE SMOOTH"
);
},
{
closed = 1;
nodes = (
"365 787 OFFCURVE",
"386 765 OFFCURVE",
"420 765 CURVE SMOOTH",
"450 765 OFFCURVE",
"475 787 OFFCURVE",
"475 825 CURVE SMOOTH",
"475 863 OFFCURVE",
"454 885 OFFCURVE",
"420 885 CURVE SMOOTH",
"390 885 OFFCURVE",
"365 863 OFFCURVE",
"365 825 CURVE SMOOTH"
);
},
{
closed = 1;
nodes = (
"185 0 LINE",
"460 0 LINE",
"460 60 LINE",
"375 80 LINE",
"375 261 LINE",
"573 622 LINE",
"635 640 LINE",
"635 700 LINE",
"395 695 LINE",
"395 640 LINE",
"472 620 LINE",
"325 340 LINE",
"192 620 LINE",
"260 640 LINE",
"260 700 LINE",
"10 695 LINE",
"10 640 LINE",
"77 621 LINE",
"270 259 LINE",
"270 80 LINE",
"185 60 LINE"
);
}
);
width = 645;
},
{
layerId = "708C77EA-8E11-4C15-94D7-0069457547BC";
paths = (
{
closed = 1;
nodes = (
"180 0 LINE",
"485 0 LINE",
"485 85 LINE",
"410 115 LINE",
"410 245 LINE",
"591 588 LINE",
"660 615 LINE",
"660 705 LINE",
"390 700 LINE",
"390 615 LINE",
"445 593 LINE",
"339 379 LINE",
"239 594 LINE",
"290 615 LINE",
"290 705 LINE",
"7 700 LINE",
"7 615 LINE",
"72 588 LINE",
"255 244 LINE",
"255 115 LINE",
"180 85 LINE"
);
},
{
closed = 1;
nodes = (
"148 798 OFFCURVE",
"173 770 OFFCURVE",
"220 770 CURVE SMOOTH",
"259 770 OFFCURVE",
"294 798 OFFCURVE",
"294 848 CURVE SMOOTH",
"294 897 OFFCURVE",
"269 926 OFFCURVE",
"222 926 CURVE SMOOTH",
"183 926 OFFCURVE",
"148 897 OFFCURVE",
"148 848 CURVE SMOOTH"
);
},
{
closed = 1;
nodes = (
"366 798 OFFCURVE",
"391 770 OFFCURVE",
"438 770 CURVE SMOOTH",
"477 770 OFFCURVE",
"512 798 OFFCURVE",
"512 848 CURVE SMOOTH",
"512 897 OFFCURVE",
"488 926 OFFCURVE",
"440 926 CURVE SMOOTH",
"402 926 OFFCURVE",
"366 897 OFFCURVE",
"366 848 CURVE SMOOTH"
);
}
);
width = 667;
}
);
leftKerningGroup = Y;
rightKerningGroup = Y;
unicode = 0178;
},
{
glyphname = Ygrave;
lastChange = "2016-09-12 12:31:00 +0000";
layers = (
{
layerId = UUID0;
paths = (
{
closed = 1;
nodes = (
"190 860 LINE",
"385 735 LINE",
"425 790 LINE",
"240 935 LINE"
);
},
{
closed = 1;
nodes = (
"185 0 LINE",
"460 0 LINE",
"460 60 LINE",
"375 80 LINE",
"375 261 LINE",
"573 622 LINE",
"635 640 LINE",
"635 700 LINE",
"395 695 LINE",
"395 640 LINE",
"472 620 LINE",
"325 340 LINE",
"192 620 LINE",
"260 640 LINE",
"260 700 LINE",
"10 695 LINE",
"10 640 LINE",
"77 621 LINE",
"270 259 LINE",
"270 80 LINE",
"185 60 LINE"
);
}
);
width = 645;
},
{
layerId = "708C77EA-8E11-4C15-94D7-0069457547BC";
paths = (
{
closed = 1;
nodes = (
"180 0 LINE",
"485 0 LINE",
"485 85 LINE",
"410 115 LINE",
"410 245 LINE",
"591 588 LINE",
"660 615 LINE",
"660 705 LINE",
"390 700 LINE",
"390 615 LINE",
"445 593 LINE",
"339 379 LINE",
"239 594 LINE",
"290 615 LINE",
"290 705 LINE",
"7 700 LINE",
"7 615 LINE",
"72 588 LINE",
"255 244 LINE",
"255 115 LINE",
"180 85 LINE"
);
},
{
closed = 1;
nodes = (
"194 847 LINE",
"421 735 LINE",
"467 815 LINE",
"252 956 LINE"
);
}
);
width = 667;
}
);
leftKerningGroup = Y;
rightKerningGroup = Y;
unicode = 1EF2;
},
{
glyphname = Z;
lastChange = "2016-08-22 17:50:02 +0000";
layers = (
{
layerId = UUID0;
paths = (
{
closed = 1;
nodes = (
"40 0 LINE",
"570 0 LINE",
"570 180 LINE",
"505 180 LINE",
"485 80 LINE",
"175 80 LINE",
"575 630 LINE",
"575 700 LINE",
"70 700 LINE",
"70 520 LINE",
"135 520 LINE",
"160 620 LINE",
"440 620 LINE",
"40 70 LINE"
);
}
);
width = 615;
},
{
layerId = "708C77EA-8E11-4C15-94D7-0069457547BC";
paths = (
{
closed = 1;
nodes = (
"30 0 LINE",
"582 0 LINE",
"582 220 LINE",
"487 220 LINE",
"465 120 LINE",
"237 120 LINE",
"585 592 LINE",
"585 705 LINE",
"55 705 LINE",
"55 495 LINE",
"150 495 LINE",
"175 585 LINE",
"385 585 LINE",
"30 105 LINE"
);
}
);
width = 615;
}
);
leftKerningGroup = Z;
rightKerningGroup = Z;
unicode = 005A;
},
{
glyphname = Zacute;
lastChange = "2016-08-22 17:50:02 +0000";
layers = (
{
layerId = UUID0;
paths = (
{
closed = 1;
nodes = (
"450 860 LINE",
"399 933 LINE",
"217 788 LINE",
"255 735 LINE"
);
},
{
closed = 1;
nodes = (
"40 0 LINE",
"570 0 LINE",
"570 180 LINE",
"505 180 LINE",
"485 80 LINE",
"175 80 LINE",
"575 630 LINE",
"575 700 LINE",
"70 700 LINE",
"70 520 LINE",
"135 520 LINE",
"160 620 LINE",
"440 620 LINE",
"40 70 LINE"
);
}
);
width = 615;
},
{
layerId = "708C77EA-8E11-4C15-94D7-0069457547BC";
paths = (
{
closed = 1;
nodes = (
"30 0 LINE",
"582 0 LINE",
"582 220 LINE",
"487 220 LINE",
"465 120 LINE",
"237 120 LINE",
"585 592 LINE",
"585 705 LINE",
"55 705 LINE",
"55 495 LINE",
"150 495 LINE",
"175 585 LINE",
"385 585 LINE",
"30 105 LINE"
);
},
{
closed = 1;
nodes = (
"483 847 LINE",
"425 956 LINE",
"210 815 LINE",
"256 735 LINE"
);
}
);
width = 615;
}
);
leftKerningGroup = Z;
rightKerningGroup = Z;
unicode = 0179;
},
{
glyphname = Zcaron;
lastChange = "2016-08-22 17:50:02 +0000";
layers = (
{
layerId = UUID0;
paths = (
{
closed = 1;
nodes = (
"274 750 LINE",
"334 755 LINE",
"479 875 LINE",
"439 920 LINE",
"302 827 LINE",
"169 920 LINE",
"129 875 LINE"
);
},
{
closed = 1;
nodes = (
"40 0 LINE",
"570 0 LINE",
"570 180 LINE",
"505 180 LINE",
"485 80 LINE",
"175 80 LINE",
"575 630 LINE",
"575 700 LINE",
"70 700 LINE",
"70 520 LINE",
"135 520 LINE",
"160 620 LINE",
"440 620 LINE",
"40 70 LINE"
);
}
);
width = 615;
},
{
layerId = "708C77EA-8E11-4C15-94D7-0069457547BC";
paths = (
{
closed = 1;
nodes = (
"30 0 LINE",
"582 0 LINE",
"582 220 LINE",
"487 220 LINE",
"465 120 LINE",
"237 120 LINE",
"585 592 LINE",
"585 705 LINE",
"55 705 LINE",
"55 495 LINE",
"150 495 LINE",
"175 585 LINE",
"385 585 LINE",
"30 105 LINE"
);
},
{
closed = 1;
nodes = (
"266 750 LINE",
"355 757 LINE",
"498 897 LINE",
"448 957 LINE",
"309 851 LINE",
"168 957 LINE",
"113 897 LINE"
);
}
);
width = 615;
}
);
leftKerningGroup = Z;
rightKerningGroup = Z;
unicode = 017D;
},
{
glyphname = Zdotaccent;
lastChange = "2016-08-22 17:50:02 +0000";
layers = (
{
layerId = UUID0;
paths = (
{
closed = 1;
nodes = (
"250 787 OFFCURVE",
"271 765 OFFCURVE",
"305 765 CURVE SMOOTH",
"335 765 OFFCURVE",
"360 787 OFFCURVE",
"360 825 CURVE SMOOTH",
"360 863 OFFCURVE",
"339 885 OFFCURVE",
"305 885 CURVE SMOOTH",
"275 885 OFFCURVE",
"250 863 OFFCURVE",
"250 825 CURVE SMOOTH"
);
},
{
closed = 1;
nodes = (
"40 0 LINE",
"570 0 LINE",
"570 180 LINE",
"505 180 LINE",
"485 80 LINE",
"175 80 LINE",
"575 630 LINE",
"575 700 LINE",
"70 700 LINE",
"70 520 LINE",
"135 520 LINE",
"160 620 LINE",
"440 620 LINE",
"40 70 LINE"
);
}
);
width = 615;
},
{
layerId = "708C77EA-8E11-4C15-94D7-0069457547BC";
paths = (
{
closed = 1;
nodes = (
"30 0 LINE",
"582 0 LINE",
"582 220 LINE",
"487 220 LINE",
"465 120 LINE",
"237 120 LINE",
"585 592 LINE",
"585 705 LINE",
"55 705 LINE",
"55 495 LINE",
"150 495 LINE",
"175 585 LINE",
"385 585 LINE",
"30 105 LINE"
);
},
{
closed = 1;
nodes = (
"245 797 OFFCURVE",
"270 769 OFFCURVE",
"317 769 CURVE SMOOTH",
"356 769 OFFCURVE",
"391 797 OFFCURVE",
"391 847 CURVE SMOOTH",
"391 896 OFFCURVE",
"367 925 OFFCURVE",
"319 925 CURVE SMOOTH",
"281 925 OFFCURVE",
"245 896 OFFCURVE",
"245 847 CURVE SMOOTH"
);
}
);
width = 615;
}
);
leftKerningGroup = Z;
rightKerningGroup = Z;
unicode = 017B;
},
{
glyphname = a;
lastChange = "2016-09-12 12:03:45 +0000";
layers = (
{
anchors = (
{
name = bottom;
position = "{283, 0}";
},
{
name = ogonek;
position = "{508, 10}";
},
{
name = top;
position = "{283, 530}";
}
);
layerId = UUID0;
paths = (
{
closed = 1;
nodes = (
"265 -10 OFFCURVE",
"325 36 OFFCURVE",
"359 70 CURVE",
"380 0 LINE",
"535 5 LINE",
"535 60 LINE",
"455 80 LINE",
"455 385 LINE SMOOTH",
"455 500 OFFCURVE",
"386 540 OFFCURVE",
"270 540 CURVE SMOOTH",
"185 540 OFFCURVE",
"75 500 OFFCURVE",
"75 500 CURVE",
"80 375 LINE",
"145 375 LINE",
"159 450 LINE",
"159 450 OFFCURVE",
"200 465 OFFCURVE",
"260 465 CURVE SMOOTH",
"320 465 OFFCURVE",
"355 435 OFFCURVE",
"355 375 CURVE SMOOTH",
"355 295 LINE",
"275 295 LINE SMOOTH",
"135 295 OFFCURVE",
"45 255 OFFCURVE",
"45 140 CURVE SMOOTH",
"45 45 OFFCURVE",
"100 -10 OFFCURVE",
"195 -10 CURVE SMOOTH"
);
},
{
closed = 1;
nodes = (
"175 70 OFFCURVE",
"147 100 OFFCURVE",
"147 145 CURVE SMOOTH",
"147 205 OFFCURVE",
"185 230 OFFCURVE",
"285 230 CURVE SMOOTH",
"355 230 LINE",
"355 150 LINE",
"355 150 OFFCURVE",
"295 70 OFFCURVE",
"220 70 CURVE SMOOTH"
);
}
);
width = 565;
},
{
anchors = (
{
name = bottom;
position = "{301, 0}";
},
{
name = ogonek;
position = "{541, 10}";
},
{
name = top;
position = "{301, 540}";
}
);
layerId = "708C77EA-8E11-4C15-94D7-0069457547BC";
paths = (
{
closed = 1;
nodes = (
"281 -10 OFFCURVE",
"358 65 OFFCURVE",
"358 65 CURVE",
"376 0 LINE",
"576 7 LINE",
"576 87 LINE",
"501 105 LINE",
"501 352 LINE SMOOTH",
"501 497 OFFCURVE",
"443 550 OFFCURVE",
"291 550 CURVE SMOOTH",
"195 550 OFFCURVE",
"74 510 OFFCURVE",
"74 510 CURVE",
"81 362 LINE",
"171 362 LINE",
"186 425 LINE",
"186 425 OFFCURVE",
"223 440 OFFCURVE",
"274 440 CURVE SMOOTH",
"324 440 OFFCURVE",
"351 418 OFFCURVE",
"351 367 CURVE SMOOTH",
"351 312 LINE",
"281 312 LINE SMOOTH",
"129 312 OFFCURVE",
"40 265 OFFCURVE",
"40 147 CURVE SMOOTH",
"40 47 OFFCURVE",
"99 -10 OFFCURVE",
"196 -10 CURVE SMOOTH"
);
},
{
closed = 1;
nodes = (
"206 102 OFFCURVE",
"185 124 OFFCURVE",
"185 162 CURVE SMOOTH",
"185 207 OFFCURVE",
"216 227 OFFCURVE",
"294 227 CURVE SMOOTH",
"351 227 LINE",
"351 160 LINE",
"351 160 OFFCURVE",
"297 102 OFFCURVE",
"244 102 CURVE SMOOTH"
);
}
);
width = 601;
}
);
leftKerningGroup = a;
rightKerningGroup = a;
unicode = 0061;
},
